<svg xmlns="http://www.w3.org/2000/svg" height="44" width="140"  fill="#ffffff" preserveAspectRatio="xMidYMid meet" viewBox="0 0 140 44">
  <path d="m 11.563637,29.890909 8.145455,-4.581819 v 2.545455 l -5.6,3.054545"  fill="#173f4f" />
  <path d="m 11.563637,28.363636 6.512225,-3.484839 1.63323,0.430293 -8.145455,4.581819"  fill="#35b9ab" />
  <path d="m 10.036364,30.4 1.527273,-0.509091 V 15.636363 h -1.527273"  fill="#173f4f" />
  <path d="M 22.254547,32.436364 11.563637,29.890909 10.036364,30.4 22.254547,33.454546"  fill="#35b9ab" />
  <path d="M 8.0000002,13.090907 V 31.927273 L 24.29091,36 24.33525,16.947197 Z m 2.0363638,2.545456 12.218183,3.054545 V 33.454546 L 10.036364,30.4 Z"  fill="#73ba25"/>
  <path d="M 36.000002,11.054544 V 30.4 L 24.29091,36 24.323102,16.947972 Z m -2.036363,3.563637 -8.145456,4.072727 v 14.254546 l 8.145456,-4.072727 z"  fill="#173f4f" />
  <path d="m 11.228961,12.925366 8.480131,-3.9071854 v 2.0363634 l -5.410329,2.586595 v 0"  fill="#173f4f" />
  <path d="M 19.709092,7.9999987 8.0000002,13.090907 24.329217,16.941428 36.000002,11.054544 Z m 0,1.0181819 12.218183,2.5454544 -8.145455,4.072728 -12.544528,-2.7119 z"  fill="#35b9ab" />
  <path d="m 19.709092,11.054544 1.596706,0.146794 -0.06943,13.598661 -1.527273,0.509091 v 0"  fill="#173f4f" />
  <path d="M 31.927275,11.563635 19.709092,9.0181806 v 2.0363634 l 9.163637,2.036363"  fill="#73ba25" />
  <path d="M 18.07188,24.893642 V 11.78429 l 1.637212,-0.729746 V 25.30909"  fill="#73ba25" />
  <path d="m 19.709092,25.30909 v 2.545455 l 9.727436,1.98507 3.069397,-1.497432"  fill="#73ba25" />
  <path d="m 31.927275,27.345454 -10.69091,-2.545455 -1.527273,0.509091 12.218183,3.054546"  fill="#35b9ab" />
  <path d="m 33.963639,14.618181 -2.036364,1.018182 v 12.727273 l 2.036364,0.509091"  fill="#73ba25" />
  <path d="m 33.963639,28.872727 -8.145456,4.072727 v -1.527272 l 6.109092,-3.054546 z"  fill="#35b9ab" />
  <path d="M 89.478516,7.4179688 V 34 h 2.46289 l 0.261719,-1.867188 h 0.111328 c 1.605333,1.456 3.509453,2.314454 5.189453,2.314454 4.144004,0 7.839844,-3.621027 7.839844,-9.81836 0,-5.6 -2.50108,-9.220703 -7.205078,-9.220703 -2.016,0 -4.031162,1.083063 -5.673828,2.539063 l 0.07422,-3.285157 V 7.4179688 Z m 22.203124,0.7480468 c -1.19467,0 -2.12891,0.783849 -2.12891,1.9785154 0,1.157334 0.93424,1.978516 2.12891,1.978516 1.19467,0 2.12695,-0.821182 2.12695,-1.978516 0,-1.1946664 -0.93228,-1.9785154 -2.12695,-1.9785154 z m -63.322265,1.34375 V 34 h 3.099609 V 26.234375 L 55.677734,21.269531 62.994141,34 h 3.472656 L 57.619141,18.841797 65.271484,9.5097656 H 61.761719 L 51.570312,21.792969 H 51.458984 V 9.5097656 Z m 78.333985,5.8984374 c -4.66667,0 -8.73633,3.471308 -8.73633,9.556641 0,6.010666 3.69572,9.482422 8.51172,9.482422 2.16533,0 4.21866,-0.858454 5.86133,-2.314454 l -1.34375,-2.052734 c -1.12,1.008 -2.57586,1.830078 -4.25586,1.830078 -3.32267,0 -5.59961,-2.801312 -5.59961,-6.945312 0,-4.181333 2.38849,-7.017578 5.67383,-7.017578 1.456,0 2.57576,0.672135 3.62109,1.605468 l 1.56836,-2.017578 c -1.26933,-1.157333 -2.91145,-2.126953 -5.30078,-2.126953 z m -57.820313,0.447266 v 11.5 c 0,4.629333 1.717167,7.091797 5.5625,7.091797 2.501333,0 4.292656,-1.30649 5.972656,-3.285157 h 0.113281 L 80.783203,34 h 2.537109 V 15.855469 h -3.060546 v 12.880859 c -1.717334,2.128 -3.023959,3.060547 -4.890625,3.060547 -2.389334,0 -3.398438,-1.456182 -3.398438,-4.853516 v -11.08789 z m 41.240233,0 V 34 h 3.06055 V 15.855469 Z m -12.720702,2.128906 c 3.434662,0 4.779302,2.686974 4.779302,6.681641 0,4.479999 -2.202792,7.205078 -5.189458,7.205078 -1.194667,0 -2.838026,-0.521011 -4.44336,-1.902344 v -9.521484 c 1.717334,-1.605334 3.32285,-2.462891 4.853516,-2.462891 z" />
</svg>
