<?xml version="1.0" encoding="UTF-8" standalone="no"?>
<svg
   xmlns:dc="http://purl.org/dc/elements/1.1/"
   xmlns:cc="http://creativecommons.org/ns#"
   xmlns:rdf="http://www.w3.org/1999/02/22-rdf-syntax-ns#"
   xmlns:svg="http://www.w3.org/2000/svg"
   xmlns="http://www.w3.org/2000/svg"
   id="svg8"
   version="1.1"
   viewBox="0 0 180 80"
   preserveAspectRatio="xMidYMid meet"
   height="80"
   width="180">
  <defs
     id="defs2" />
  <metadata
     id="metadata5">
    <rdf:RDF>
      <cc:Work
         rdf:about="">
        <dc:format>image/svg+xml</dc:format>
        <dc:type
           rdf:resource="http://purl.org/dc/dcmitype/StillImage" />
        <dc:title></dc:title>
      </cc:Work>
    </rdf:RDF>
  </metadata>
  <g
     transform="translate(0,-1042.5197)"
     id="layer1">
    <g
       transform="matrix(0.21093748,0,0,0.20866795,-0.10703504,1063.6144)"
       id="g887">
      <path
         id="Geeko"
         style="fill:#ffffff"
         d="m 281.36486,27.426451 c -3.31129,-0.119262 -6.45069,1.050561 -8.84997,3.300759 -2.39927,2.250199 -3.81464,5.298403 -3.91461,8.599162 -0.22975,6.820751 5.11074,12.559372 11.91571,12.810173 3.30953,0.09997 6.46472,-1.069853 8.87802,-3.320051 2.4098,-2.260722 3.79535,-5.31068 3.90058,-8.599162 0.22976,-6.818997 -5.10898,-12.548849 -11.92973,-12.790881 z m 2.02044,13.511716 c -3.03067,0 -5.47905,-1.639856 -5.47905,-3.649777 0,-2.029213 2.44838,-3.6603 5.47905,-3.6603 3.03066,0 5.48606,1.631087 5.48606,3.6603 -0.002,2.009921 -2.45715,3.649777 -5.48606,3.649777 z m 27.15322,15.798746 c 0.80502,-0.531419 1.39607,-0.971637 1.64511,-1.069853 l 0.26834,-0.419172 c -0.68049,-4.279412 -7.05927,-25.029296 -11.88413,-30.01902 -1.32943,-1.359239 -2.39402,-2.699186 -4.54951,-3.960209 C 278.56395,11.098041 237.15538,4.9595405 235.21561,4.6789233 l -0.32972,0.091201 -0.12453,0.2999096 c 0,0 -0.1596,8.5798691 -0.18415,9.5392291 -4.22855,-1.420625 -34.97192,-11.3509636 -63.7913,-12.3506622 -24.44,-0.85939 -60.03277,-4.0198407 -107.195749,24.9801872 l -1.394316,0.86816 C 40.006043,41.948389 24.686101,59.016927 16.677989,78.846037 c -2.511524,6.240224 -5.889453,20.320189 -2.541339,33.568823 1.44167,5.79124 4.130333,11.61054 7.755556,16.81949 8.194021,11.77014 21.944262,19.58007 36.74857,20.89897 20.904224,1.86961 36.732785,-7.51879 42.362664,-25.09945 3.87077,-12.12968 0,-29.927823 -14.839383,-39.007542 C 74.094012,78.635574 61.115469,80.315769 53.58616,85.296723 47.054795,89.626997 43.355911,96.356547 43.420803,103.7473 c 0.150832,13.11008 11.443919,20.07816 19.564277,20.0992 2.358938,0 4.728399,-0.4104 7.399524,-1.28031 0.950591,-0.28939 1.845058,-0.64893 2.830725,-1.25927 l 0.308679,-0.18065 0.194679,-0.12978 -0.06489,0.0386 c 1.850319,-1.26102 2.964018,-3.31128 2.964018,-5.51062 0,-0.59982 -0.08419,-1.20841 -0.256063,-1.8205 -0.95936,-3.32005 -4.239073,-5.32822 -7.638048,-4.70911 l -0.45951,0.10874 -0.620866,0.18942 -0.901482,0.31043 c -1.869612,0.45951 -3.26919,0.49985 -3.5691,0.51037 -0.95059,-0.0614 -5.62462,-1.46096 -5.62462,-6.58047 v -0.0702 c 0,-1.88014 0.754159,-3.19904 1.169823,-3.919875 1.453947,-2.280014 5.435203,-4.517936 10.814283,-4.049656 7.059276,0.610342 12.148969,4.230304 15.519883,11.059821 3.128881,6.34897 2.30983,14.15889 -2.10989,19.87997 -4.389905,5.66847 -12.205093,8.07827 -22.59845,6.95931 -10.481051,-1.1593 -19.339784,-7.19082 -24.3032,-16.57921 -4.85643,-9.17794 -5.121263,-20.058868 -0.685758,-28.417751 10.609082,-20.029049 30.648655,-19.82034 41.63657,-17.920913 16.26001,2.820203 34.757943,17.819189 41.319123,35.138534 1.05933,2.76057 1.59951,4.94938 2.0713,6.95053 l 0.70856,2.99033 18.3699,8.96922 0.24028,0.18065 0.44548,-0.0403 0.0807,-0.52966 c -0.11401,-0.41041 -0.38059,-0.78924 -0.80503,-5.92979 -0.34901,-4.56179 -1.05932,-17.051 5.22825,-23.240366 2.44137,-2.418569 6.1613,-4.577567 9.09901,-5.268587 12.04023,-2.941218 26.15878,-0.912006 39.50739,14.539473 6.9102,7.98005 10.27936,11.61931 11.97008,13.24864 l 0.58929,0.53142 0.69453,0.51914 c 0.55422,0.30166 22.95448,10.62136 22.95448,10.62136 l 0.46127,-0.11049 0.009,-0.47881 c -0.14908,-0.17012 -14.19923,-18.3278 -11.69823,-33.279436 1.96958,-11.90869 11.44743,-10.830068 24.55751,-9.349813 4.27941,0.49985 9.15163,1.05933 14.19572,1.171577 14.08347,0.08945 29.25434,-2.511524 38.60415,-6.601519 6.04905,-2.629032 9.90929,-4.379381 12.32786,-6.578718 0.86991,-0.720835 1.32066,-1.890658 1.79069,-3.149928 l 0.32972,-0.831328 c 0.39112,-1.020745 0.96638,-3.170974 1.21894,-4.349566 0.10172,-0.519141 0.16135,-1.068099 -0.20871,-1.359239 l -1.29435,0.240278 c -4.10578,2.471185 -14.36935,7.150476 -23.9647,7.350416 -11.91421,0.240268 -35.8982,-11.980609 -38.3992,-13.280217 l -0.24028,-0.278863 c -0.5893,-1.439917 -4.18997,-9.949632 -4.95991,-11.749089 17.27023,11.379025 31.59398,17.668357 42.5591,18.63824 12.20684,1.087391 21.72152,-5.573758 25.78521,-8.422022 z M 263.19139,39.298311 c 0.17538,-4.730153 2.15549,-9.120058 5.61409,-12.34014 3.46036,-3.230605 7.97479,-4.900277 12.70845,-4.749445 9.76022,0.349018 17.42984,8.588639 17.09485,18.338331 -0.18416,4.730153 -2.16426,9.120057 -5.6141,12.329616 -3.46036,3.249897 -7.96426,4.919569 -12.71897,4.759968 -9.74969,-0.35954 -17.41054,-8.579869 -17.08432,-18.33833 z" />
      <path
         style="fill:#ffffff"
         d="m 134.48633,141.73234 c -7.78362,0 -12.06478,6.58047 -12.06478,11.12998 v 5.84034 c 0,6.69974 5.47379,10.85112 10.54945,10.85112 h 17.81919 c 2.24493,0 2.71497,1.46973 2.71497,2.70971 v 3.76904 c 0,0.39988 -0.0807,4.01984 -2.71497,4.01984 h -24.3032 c -2.41506,0 -4.16015,1.68019 -4.16015,3.9795 v 1.04179 c 0,2.29054 1.74509,3.96021 4.16015,3.96021 h 25.62385 c 6.69798,0 11.01949,-4.66 11.01949,-11.87888 v -6.3016 c 0,-6.77866 -4.87046,-9.80933 -9.70585,-9.80933 h -17.53331 c -2.63955,0 -3.83569,-1.9801 -3.83569,-3.37968 v -3.47965 c 0,-2.19057 1.46448,-3.46036 4.02511,-3.46036 h 19.40818 c 2.37998,0 4.17067,-1.71001 4.17067,-3.97074 v -1.04003 c 0,-2.2695 -1.8205,-3.98126 -4.25135,-3.98126 z"
         id="path865" />
      <path
         style="fill:#ffffff"
         d="m 207.34857,141.73234 c -2.30106,0 -4.15488,1.86961 -4.15488,4.17067 v 29.83838 c 0,2.3905 -1.95029,4.31098 -4.31098,4.31098 h -13.54504 c -2.36946,0 -4.30923,-1.92048 -4.30923,-4.31098 v -29.83838 c 0,-2.30106 -1.86961,-4.17067 -4.16892,-4.17067 h -1.31013 c -2.33438,0 -4.17067,1.84155 -4.17067,4.17067 v 30.96786 c 0,7.21011 5.67373,12.44011 13.48891,12.44011 h 14.48511 c 7.80466,0 13.47488,-5.22825 13.47488,-12.44011 v -30.96786 c 0,-2.32912 -1.82927,-4.17067 -4.16015,-4.17067 z"
         id="path867" />
      <path
         style="fill:#ffffff"
         d="m 233.28111,141.73234 c -7.78011,0 -12.07356,6.58047 -12.07356,11.12998 v 5.84034 c 0,6.69974 5.48432,10.85112 10.56349,10.85112 h 17.81392 c 2.24845,0 2.72024,1.46973 2.72024,2.70971 v 3.76904 c 0,0.39988 -0.0807,4.01984 -2.72024,4.01984 h -24.31372 c -2.40454,0 -4.16015,1.68019 -4.16015,3.9795 v 1.04179 c 0,2.29054 1.75561,3.96021 4.16015,3.96021 h 25.63262 c 6.69974,0 11.04054,-4.66 11.04054,-11.87888 v -6.3016 c 0,-6.77866 -4.8845,-9.80933 -9.71988,-9.80933 h -17.53331 c -2.64657,0 -3.8392,-1.9801 -3.8392,-3.37968 v -3.47965 c 0,-2.19057 1.46448,-3.46036 4.02511,-3.46036 h 19.4187 c 2.37473,0 4.1584,-1.71001 4.1584,-3.97074 v -1.04003 c 0,-2.2695 -1.81875,-3.98126 -4.26012,-3.98126 z"
         id="path869" />
      <path
         style="fill:#ffffff"
         d="m 274.24595,141.73234 c -2.30983,0 -4.05492,1.71176 -4.05492,3.98126 v 39.35831 c 0,2.25896 1.70475,3.96021 3.96372,3.96021 h 31.36423 c 2.41506,0 4.16015,-1.66968 4.16015,-3.96021 v -1.0418 c 0,-2.2993 -1.74509,-3.9795 -4.16015,-3.9795 0,0 -24.53296,0 -25.687,0 0,-1.02074 0,-9.01132 0,-10.01978 1.14352,0 18.8224,0 18.8224,0 2.4098,0 4.16015,-1.69072 4.16015,-3.98126 v -1.04004 c 0,-2.30106 -1.75035,-3.97073 -4.16015,-3.97073 0,0 -17.67888,0 -18.8224,0 0,-1.02951 0,-9.29018 0,-10.3197 1.14352,0 24.38213,0 24.38213,0 2.40629,0 4.16015,-1.65914 4.16015,-3.97073 v -1.04004 c 0,-2.30106 -1.75386,-3.98125 -4.16015,-3.98125 h -29.96816 z"
         id="path871" />
      <g
         style="fill:#ffffff"
         transform="matrix(1.7538572,0,0,1.7538572,-853.95251,-548.75247)"
         id="g881">
        <path
           style="fill:#ffffff"
           d="m 491.254,404.369 c -2.241,0 -4.065,1.744 -4.065,3.894 v 8.461 c 0,2.184 1.765,3.963 3.929,3.963 h 5.473 c 2.164,0 3.929,-1.779 3.929,-3.963 v -8.461 c 0,-2.149 -1.825,-3.894 -4.065,-3.894 z m -1.184,12.019 v -7.726 c 0,-0.906 0.744,-1.647 1.654,-1.647 h 4.264 c 0.89,0 1.648,0.758 1.648,1.647 v 7.726 c 0,0.912 -0.738,1.653 -1.648,1.653 h -4.296 c -0.912,0 -1.622,-0.725 -1.622,-1.653 z"
           id="path873" />
        <path
           style="fill:#ffffff"
           d="m 512.91,404.271 c -1.578,0 -2.768,0.564 -3.723,1.026 -0.582,0.279 -1.086,0.52 -1.477,0.52 -0.177,0 -0.328,-0.08 -0.408,-0.211 l -0.364,-0.696 c -0.091,-0.183 -0.456,-0.541 -0.907,-0.541 h -0.541 c -0.52,0 -0.936,0.467 -0.936,1.037 v 21.461 c 0,0.673 0.531,1.203 1.203,1.203 h 0.468 c 0.667,0 1.209,-0.536 1.209,-1.203 v -7.121 c 0,-0.211 0.137,-0.439 0.276,-0.439 0.391,0 0.895,0.229 1.477,0.496 0.955,0.439 2.145,0.98 3.723,0.98 h 0.505 c 2.794,0 4.532,-1.597 4.532,-4.162 v -8.192 c 0,-2.526 -1.775,-4.157 -4.532,-4.157 h -0.505 z m -5.475,11.952 v -7.39 c 0,-1.021 0.798,-1.818 1.818,-1.818 h 3.997 c 1.021,0 1.818,0.798 1.818,1.818 v 7.39 c 0,1.003 -0.818,1.818 -1.818,1.818 h -3.997 c -1.001,0 -1.818,-0.815 -1.818,-1.818 z"
           id="path875" />
        <path
           style="fill:#ffffff"
           d="m 526.044,404.369 c -2.241,0 -4.06,1.744 -4.06,3.894 v 8.398 c 0,2.178 1.768,4.025 3.854,4.025 h 5.647 c 0.698,0 1.203,-0.484 1.203,-1.141 v -0.37 c 0,-0.661 -0.505,-1.135 -1.203,-1.135 h -4.639 c -1.3,0 -1.986,-0.639 -1.986,-1.854 0,0 0,-2.115 0,-2.457 0.379,0 8.369,0 8.369,0 1.346,0 2.142,-0.821 2.142,-2.212 v -3.256 c 0,-2.149 -1.822,-3.894 -4.054,-3.894 h -5.273 z m -1.183,4.265 c 0,-0.907 0.713,-1.619 1.621,-1.619 h 4.396 c 0.906,0 1.613,0.712 1.613,1.619 0,0 0,2.28 0,2.622 -0.364,0 -7.258,0 -7.631,0 10e-4,-0.342 10e-4,-2.622 10e-4,-2.622 z"
           id="path877" />
        <path
           style="fill:#ffffff"
           d="m 546.997,404.271 c -1.573,0 -2.76,0.564 -3.718,1.021 -0.596,0.28 -1.105,0.525 -1.521,0.525 -0.183,0 -0.257,-0.023 -0.399,-0.269 l -0.331,-0.604 c -0.19,-0.382 -0.513,-0.575 -0.949,-0.575 h -0.465 c -0.562,0 -0.972,0.438 -0.972,1.037 v 14.077 c 0,0.667 0.527,1.203 1.206,1.203 h 0.465 c 0.667,0 1.211,-0.542 1.211,-1.203 v -10.65 c 0,-0.998 0.815,-1.818 1.813,-1.818 h 3.999 c 1.001,0 1.816,0.82 1.816,1.818 v 10.65 c 0,0.667 0.53,1.203 1.203,1.203 h 0.47 c 0.667,0 1.209,-0.542 1.209,-1.203 v -11.055 c 0,-2.526 -1.776,-4.157 -4.535,-4.157 z"
           id="path879" />
      </g>
      <g
         style="fill:#ffffff"
         transform="matrix(1.7538572,0,0,1.7538572,-853.95251,-548.75247)"
         id="g885">
        <path
           style="fill:#ffffff"
           d="m 667.456,415.229 c 1.218,0 2.188,0.99 2.188,2.229 0,1.257 -0.971,2.237 -2.198,2.237 -1.218,0 -2.208,-0.98 -2.208,-2.237 0,-1.238 0.99,-2.229 2.208,-2.229 z m -0.01,0.346 c -0.98,0 -1.782,0.842 -1.782,1.882 0,1.06 0.802,1.891 1.792,1.891 0.99,0.011 1.782,-0.831 1.782,-1.881 0,-1.05 -0.792,-1.892 -1.782,-1.892 z m -0.416,3.179 h -0.396 v -2.485 c 0.208,-0.03 0.406,-0.06 0.703,-0.06 0.377,0 0.624,0.079 0.772,0.188 0.149,0.108 0.229,0.276 0.229,0.515 0,0.326 -0.218,0.524 -0.485,0.604 v 0.021 c 0.218,0.039 0.366,0.237 0.416,0.604 0.06,0.387 0.118,0.535 0.158,0.614 h -0.416 c -0.06,-0.079 -0.119,-0.307 -0.168,-0.634 -0.06,-0.316 -0.218,-0.436 -0.535,-0.436 h -0.277 v 1.069 z m 0,-1.377 h 0.287 c 0.327,0 0.604,-0.118 0.604,-0.426 0,-0.218 -0.158,-0.436 -0.604,-0.436 -0.129,0 -0.218,0.01 -0.287,0.021 z"
           id="path883" />
      </g>
    </g>
    <path
       id="path910"
       d="m 95.562506,1056.2697 -2e-6,56.25"
       style="fill:none;stroke:#ffffff;stroke-width:1.12500894px;stroke-linecap:butt;stroke-linejoin:miter;stroke-opacity:1" />
    <path
       id="text847"
       transform="translate(0,1042.5197)"
       d="M 143.47266 50.556641 L 143.47266 61 L 144.44141 61 L 144.54492 60.267578 L 144.58789 60.267578 C 145.21856 60.839578 145.96695 61.175781 146.62695 61.175781 C 148.25495 61.175781 149.70703 59.753026 149.70703 57.318359 C 149.70703 55.118359 148.72495 53.695312 146.87695 53.695312 C 146.08495 53.695312 145.29182 54.121359 144.64648 54.693359 L 144.67578 53.402344 L 144.67578 50.556641 L 143.47266 50.556641 z M 152.19531 50.851562 C 151.72598 50.851562 151.35937 51.159573 151.35938 51.628906 C 151.35938 52.083573 151.72598 52.40625 152.19531 52.40625 C 152.66465 52.40625 153.0332 52.083573 153.0332 51.628906 C 153.0332 51.159573 152.66465 50.851562 152.19531 50.851562 z M 127.32031 51.378906 L 127.32031 61 L 128.53711 61 L 128.53711 57.949219 L 130.19531 55.998047 L 133.06836 61 L 134.43359 61 L 130.95703 55.044922 L 133.96484 51.378906 L 132.58594 51.378906 L 128.58203 56.203125 L 128.53711 56.203125 L 128.53711 51.378906 L 127.32031 51.378906 z M 158.09375 53.695312 C 156.26042 53.695312 154.66211 55.060505 154.66211 57.451172 C 154.66211 59.812505 156.11386 61.175781 158.00586 61.175781 C 158.85653 61.175781 159.66326 60.839578 160.30859 60.267578 L 159.78125 59.458984 C 159.34125 59.854984 158.76742 60.177734 158.10742 60.177734 C 156.80209 60.177734 155.9082 59.079172 155.9082 57.451172 C 155.9082 55.808505 156.84605 54.693359 158.13672 54.693359 C 158.70872 54.693359 159.14988 54.957552 159.56055 55.324219 L 160.17578 54.53125 C 159.67711 54.076583 159.03242 53.695312 158.09375 53.695312 z M 135.37891 53.871094 L 135.37891 58.388672 C 135.37891 60.207339 136.05379 61.175781 137.56445 61.175781 C 138.54712 61.175781 139.25016 60.662099 139.91016 59.884766 L 139.95508 59.884766 L 140.05664 61 L 141.05469 61 L 141.05469 53.871094 L 139.85156 53.871094 L 139.85156 58.931641 C 139.1769 59.767641 138.66302 60.134766 137.92969 60.134766 C 136.99102 60.134766 136.5957 59.563182 136.5957 58.228516 L 136.5957 53.871094 L 135.37891 53.871094 z M 151.58008 53.871094 L 151.58008 61 L 152.7832 61 L 152.7832 53.871094 L 151.58008 53.871094 z M 146.58203 54.707031 C 147.93136 54.707031 148.46094 55.764651 148.46094 57.333984 C 148.46094 59.093984 147.59521 60.164062 146.42188 60.164062 C 145.95254 60.164062 145.30645 59.958682 144.67578 59.416016 L 144.67578 55.675781 C 145.35045 55.045115 145.9807 54.707031 146.58203 54.707031 z "
       style="font-style:normal;font-variant:normal;font-weight:normal;font-stretch:normal;font-size:40px;line-height:1.25;font-family:Inter;-inkscape-font-specification:Inter;letter-spacing:0px;word-spacing:0px;fill:#ffffff;fill-opacity:1;stroke:none" />
  </g>
  <g
     transform="matrix(0.05461999,0,0,0.05461999,124.65455,10.909088)"
     id="g1085">
    <path
       id="path2207"
       style="fill:#173f4f;fill-opacity:1;fill-rule:evenodd;stroke:none;stroke-width:1.47053277px;stroke-linecap:butt;stroke-linejoin:miter;stroke-opacity:1"
       d="m 135.81442,551.24677 170.43379,-95.86901 v 53.26057 l -117.17323,63.91266" />
    <path
       id="path3954"
       style="fill:#35b9ab;fill-opacity:1;fill-rule:evenodd;stroke:none;stroke-width:1.47053277px;stroke-linecap:butt;stroke-linejoin:miter;stroke-opacity:1"
       d="m 135.81442,519.29044 136.26042,-72.91605 34.17337,9.00337 -170.43379,95.86901" />
    <path
       id="path1331"
       style="fill:#173f4f;fill-opacity:1;fill-rule:evenodd;stroke:none;stroke-width:1.47053277px;stroke-linecap:butt;stroke-linejoin:miter;stroke-opacity:1"
       d="m 103.85809,561.89889 31.95633,-10.65212 V 252.98765 h -31.95633" />
    <path
       id="path2209"
       style="fill:#35b9ab;fill-opacity:1;fill-rule:evenodd;stroke:none;stroke-width:1.47053277px;stroke-linecap:butt;stroke-linejoin:miter;stroke-opacity:1"
       d="m 359.50877,604.50734 -223.69435,-53.26057 -31.95633,10.65212 255.65068,63.91267" />
    <path
       id="path4030"
       style="fill:#73ba25;fill-opacity:1;fill-rule:evenodd;stroke:none;stroke-width:1.47053277px;stroke-linecap:butt;stroke-linejoin:miter;stroke-opacity:1"
       d="m 61.249638,199.72708 v 394.12814 l 340.867572,85.21689 0.92776,-398.65685 z m 42.608452,53.26057 255.65068,63.91266 V 625.81156 L 103.85809,561.89889 Z" />
    <path
       id="path4037"
       style="fill:#173f4f;fill-opacity:1;fill-rule:evenodd;stroke:none;stroke-width:1.47053242px;stroke-linecap:butt;stroke-linejoin:miter;stroke-opacity:1"
       d="m 647.11578,157.11864 v 404.78025 l -244.99857,117.17322 0.67357,-398.64063 z m -42.60844,74.56478 -170.43379,85.21689 v 298.25913 l 170.43379,-85.21689 z" />
    <path
       id="path5814"
       style="fill:#173f4f;fill-opacity:1;fill-rule:evenodd;stroke:none;stroke-width:1.47053277px;stroke-linecap:butt;stroke-linejoin:miter;stroke-opacity:1"
       d="M 128.81174,196.26333 306.24821,114.5102 v 42.60844 L 193.04363,211.24 v 0" />
    <path
       id="path5803"
       style="fill:#35b9ab;fill-opacity:1;fill-rule:evenodd;stroke:none;stroke-width:1.47053242px;stroke-linecap:butt;stroke-linejoin:miter;stroke-opacity:1"
       d="M 306.24821,93.205977 61.249638,199.72708 402.91874,280.29457 647.11578,157.11864 Z m 0,21.304223 255.65068,53.26056 -170.43378,85.21689 -262.47906,-56.74322 z" />
    <path
       id="path3964"
       style="fill:#173f4f;fill-opacity:1;fill-rule:evenodd;stroke:none;stroke-width:1.47053277px;stroke-linecap:butt;stroke-linejoin:miter;stroke-opacity:1"
       d="m 306.24821,157.11864 33.40915,3.07149 -1.45281,284.53552 -31.95634,10.65211 v 0" />
    <path
       id="path5816"
       style="fill:#73ba25;fill-opacity:1;fill-rule:evenodd;stroke:none;stroke-width:1.47053277px;stroke-linecap:butt;stroke-linejoin:miter;stroke-opacity:1"
       d="M 561.89889,167.77076 306.24821,114.5102 v 42.60844 l 191.73801,42.60844" />
    <path
       id="path1325"
       style="fill:#73ba25;fill-opacity:1;fill-rule:evenodd;stroke:none;stroke-width:1.47053277px;stroke-linecap:butt;stroke-linejoin:miter;stroke-opacity:1"
       d="M 271.99153,446.68501 V 172.38769 l 34.25668,-15.26905 v 298.25912" />
    <path
       id="path4846"
       style="fill:#73ba25;fill-opacity:1;fill-rule:evenodd;stroke:none;stroke-width:1.47053277px;stroke-linecap:butt;stroke-linejoin:miter;stroke-opacity:1"
       d="m 306.24821,455.37776 v 53.26057 l 203.53482,41.53518 64.22341,-31.33195" />
    <path
       id="path4842"
       style="fill:#35b9ab;fill-opacity:1;fill-rule:evenodd;stroke:none;stroke-width:1.47053277px;stroke-linecap:butt;stroke-linejoin:miter;stroke-opacity:1"
       d="m 561.89889,497.98621 -223.69434,-53.26056 -31.95634,10.65211 255.65068,63.91268" />
    <path
       id="path2205"
       style="fill:#73ba25;fill-opacity:1;fill-rule:evenodd;stroke:none;stroke-width:1.47053277px;stroke-linecap:butt;stroke-linejoin:miter;stroke-opacity:1"
       d="m 604.50734,231.68342 -42.60845,21.30423 v 266.30279 l 42.60845,10.65211" />
    <path
       id="path4848"
       style="fill:#35b9ab;fill-opacity:1;fill-rule:evenodd;stroke:none;stroke-width:1.47053277px;stroke-linecap:butt;stroke-linejoin:miter;stroke-opacity:1"
       d="M 604.50734,529.94255 434.07355,615.15944 V 583.20311 L 561.89889,519.29044 Z" />
  </g>
</svg>
