<svg xmlns="http://www.w3.org/2000/svg" width="16" height="16" preserveAspectRatio="xMidYMid meet" viewBox="0 0 16 16">
  <path d="m 6.6914062,9.890625 -4.6542968,2.619141 1.7539062,0.417968 2.9003906,-1.582031 z" />
  <path d="M 2.036364,11.636364 5.757635,9.645027 6.690909,9.890909 2.036364,12.509091" opacity="0.33333333" />
  <path d="M 1.1640625,4.3632812 V 12.800781 L 2.0371094,12.509766 V 4.5820312 Z" />
  <path d="M 8.145455,13.963637 2.036364,12.509091 1.163636,12.8 8.145455,14.545455" opacity="0.33333333" />
  <path d="M 0,2.909091 V 13.672728 L 9.309091,16 9.334431,5.112685 Z m 1.163636,1.454546 6.981819,1.745454 v 8.436364 L 1.163636,12.8 Z" opacity="0.66666666" />
  <path d="M 16,1.745455 V 12.8 L 9.309091,16 9.327491,5.113128 Z m -1.163636,2.036363 -4.654546,2.327273 v 8.145454 l 4.654546,-2.327272 z"  />
  <path d="M 1.84512,2.814496 6.690909,0.581818 V 1.745455 L 3.599293,3.223509 v 0"  />
  <path d="M 6.690909,0 0,2.909091 9.330981,5.109388 16,1.745455 Z m 0,0.581818 6.981819,1.454546 L 9.018182,4.363637 1.849881,2.81398 Z" opacity="0.33333333" />
  <path d="M 6.6914062,1.7460938 V 3.8613281 L 7.59375,4.0546875 7.6035156,1.9492188 Z m 0,2.7402343 v 0.00195 l 0.8984376,0.2128907 v -0.00195 z m 0,1.2597657 V 9.890625 L 7.5644531,9.5996094 7.5820312,5.96875 Z" />
  <path d="M 13.672728,2.036364 6.690909,0.581818 v 1.163637 l 5.236364,1.163636" opacity="0.66666666" />
  <path opacity="0.66666666" d="M 6.6914062,1.7460938 5.7558594,2.1621094 v 1.4960937 l 0.9355468,0.203125 z M 5.7558594,4.265625 v 0.00195 l 0.9355468,0.2207031 v -0.00195 z m 0,1.2460938 V 9.6542969 L 6.6914062,9.890625 V 5.7460938 Z" />
  <path opacity="0.66666666" d="m 6.6914062,9.890625 v 1.455078 l 1.453125,0.296875 v -1.388672 z m 3.4902348,0.873047 v 1.294922 l 1.878906,0.382812 1.611328,-0.804687 z" />
  <path opacity="0.33333333" d="M 7.5644531,9.5996094 6.6914062,9.890625 8.1445312,10.253906 V 9.7382812 Z m 2.6171879,0.6230466 v 0.541016 l 3.490234,0.873047 v -0.582031 z" />
  <path d="m 14.836364,3.781818 -1.163636,0.581819 v 7.272727 l 1.163636,0.290909" opacity="0.66666666" />
  <path d="m 14.836364,11.927273 -4.654546,2.327272 v -0.872727 l 3.49091,-1.745454 z" opacity="0.33333333" />
</svg>
