<svg xmlns="http://www.w3.org/2000/svg" width="128" height="128" preserveAspectRatio="xMidYMid meet" viewBox="0 0 128 128">
  <path fill="#173f4f" d="M 25.236365,93.309092 55.49091,76.290909 v 9.454546 L 34.690912,97.090907" />
  <path fill="#35b9ab" d="M 25.236365,87.636364 49.424628,74.692677 55.49091,76.290909 25.236365,93.309092" />
  <path fill="#173f4f" d="m 19.563637,95.200001 5.672728,-1.890909 V 40.363639 h -5.672728" />
  <path fill="#35b9ab" d="m 64.945457,102.76364 -39.709092,-9.454548 -5.672728,1.890909 45.38182,11.345459" />
  <path fill="#73ba25" d="M 12,30.909089 V 100.87273 L 72.50909,116 72.673781,45.232451 Z m 7.563637,9.45455 45.38182,11.345452 V 106.54546 L 19.563637,95.200001 Z" />
  <path fill="#173f4f" d="M 116,23.345456 V 95.200001 L 72.50909,116 72.628653,45.23533 Z m -7.56363,13.236365 -30.254552,15.12727 V 104.65454 L 108.43637,89.527274 Z" />
  <path fill="#173f4f" d="M 23.993283,30.294223 55.49091,15.781822 v 7.563634 l -20.095506,9.607352 v 0" />
  <path fill="#35b9ab" d="M 55.49091,12.000003 12,30.909089 72.651373,45.211023 116,23.345456 Z m 0,3.781819 45.38182,9.454543 -30.254546,15.127274 -46.593957,-10.07277 z" />
  <path fill="#173f4f" d="m 55.49091,23.345456 5.930622,0.545235 -0.257883,50.509308 -5.672728,1.89091 v 0" />
  <path fill="#73ba25" d="M 100.87273,25.236365 55.49091,15.781822 v 7.563634 l 34.036364,7.563633" />
  <path fill="#73ba25" d="M 49.409837,74.747816 V 26.055941 l 6.081073,-2.710485 v 52.945453" />
  <path fill="#73ba25" d="m 55.49091,76.290909 v 9.454546 l 36.130474,7.373117 11.400616,-5.56189" />
  <path fill="#35b9ab" d="m 100.87273,83.854546 -39.709092,-9.454547 -5.672728,1.89091 45.38182,11.345455" />
  <path fill="#73ba25" d="m 108.43637,36.581821 -7.56364,3.781818 v 47.272725 l 7.56364,1.89091" />
  <path fill="#35b9ab" d="M 108.43637,89.527274 78.181818,104.65454 V 98.98182 L 100.87273,87.636364 Z" />
</svg>
