<?xml version="1.0" encoding="UTF-8" standalone="no"?>
<svg
   xmlns:dc="http://purl.org/dc/elements/1.1/"
   xmlns:cc="http://creativecommons.org/ns#"
   xmlns:rdf="http://www.w3.org/1999/02/22-rdf-syntax-ns#"
   xmlns:svg="http://www.w3.org/2000/svg"
   xmlns="http://www.w3.org/2000/svg"
   xmlns:sodipodi="http://sodipodi.sourceforge.net/DTD/sodipodi-0.dtd"
   xmlns:inkscape="http://www.inkscape.org/namespaces/inkscape"
   width="128"
   height="128"
   version="1.1"
   viewBox="0 0 128 128"
   id="svg3259"
   sodipodi:docname="apple-touch-icon.svg"
   inkscape:version="1.0.1 (3bc2e813f5, 2020-09-07)">
  <metadata
     id="metadata3265">
    <rdf:RDF>
      <cc:Work
         rdf:about="">
        <dc:format>image/svg+xml</dc:format>
        <dc:type
           rdf:resource="http://purl.org/dc/dcmitype/StillImage" />
        <dc:title></dc:title>
      </cc:Work>
    </rdf:RDF>
  </metadata>
  <defs
     id="defs3263">
    <inkscape:path-effect
       effect="fillet_chamfer"
       id="path-effect2481"
       is_visible="true"
       lpeversion="1"
       satellites_param="F,0,0,1,0,10,0,1 @ F,0,0,1,0,10,0,1 @ F,0,0,1,0,10,0,1 @ F,0,0,1,0,10,0,1"
       unit="px"
       method="auto"
       mode="F"
       radius="10"
       chamfer_steps="1"
       flexible="false"
       use_knot_distance="true"
       apply_no_radius="true"
       apply_with_radius="true"
       only_selected="false"
       hide_knots="false" />
  </defs>
  <sodipodi:namedview
     pagecolor="#ffffff"
     bordercolor="#666666"
     borderopacity="1"
     objecttolerance="10"
     gridtolerance="10"
     guidetolerance="10"
     inkscape:pageopacity="0"
     inkscape:pageshadow="2"
     inkscape:window-width="1920"
     inkscape:window-height="1011"
     id="namedview3261"
     showgrid="false"
     inkscape:zoom="4.7011552"
     inkscape:cx="42.647464"
     inkscape:cy="73.435275"
     inkscape:window-x="0"
     inkscape:window-y="32"
     inkscape:window-maximized="1"
     inkscape:current-layer="svg3259" />
  <path
     style="fill:#ffffff;fill-opacity:1;stroke:#9141ac;stroke-width:1.98451;stroke-linejoin:miter;stroke-miterlimit:4;stroke-dasharray:none;stroke-opacity:1"
     id="rect831"
     width="126.0155"
     height="126.0155"
     x="0.99224854"
     y="0.99224854"
     inkscape:path-effect="#path-effect2481"
     sodipodi:type="rect"
     inkscape:export-xdpi="42.91"
     inkscape:export-ydpi="42.91"
     d="M 10.992249,0.99224854 H 117.00775 a 10,10 45 0 1 10,10.00000046 V 117.00775 a 10,10 135 0 1 -10,10 H 10.992249 a 10,10 45 0 1 -10.00000046,-10 V 10.992249 A 10,10 135 0 1 10.992249,0.99224854 Z" />
  <path
     d="m32.5 8a3.5004 3.5004 0 0 0-3.5 3.5v21c0 14.186 8.6983 26.013 20.877 31.5-12.177 5.488-20.877 17.316-20.877 31.5v21a3.5004 3.5004 0 0 0 3.5 3.5h63a3.5004 3.5004 0 0 0 3.5-3.5v-21c0-14.186-8.6973-26.013-20.877-31.5 12.181-5.4863 20.877-17.312 20.877-31.5v-21a3.5004 3.5004 0 0 0-3.5-3.5zm3.5 7h56v17.5c0 13.357-9.3116 24.472-21.766 27.303a3.5004 3.5004 0 0 0-2.7207 3.4453l0.01365 1.5586a3.5004 3.5004 0 0 0 2.7207 3.3906c12.449 2.8348 21.752 13.949 21.752 27.303v17.5h-56v-17.5c0-13.359 9.3097-24.473 21.766-27.303a3.5004 3.5004 0 0 0 2.7207-3.4043l0.013672-1.5723a3.5004 3.5004 0 0 0-2.7344-3.418c-12.457-2.8284-21.766-13.943-21.766-27.303zm17.5 14a3.5 3.5 0 0 0-3.5 3.5c0 7.6905 6.3095 14 14 14s14-6.3095 14-14a3.5 3.5 0 0 0-3.5-3.5 3.5 3.5 0 0 0-3.5 3.5c0 3.9074-3.0926 7-7 7s-7-3.0926-7-7a3.5 3.5 0 0 0-3.5-3.5zm10.5 52.5c-7.6905 0-14 6.3095-14 14a3.5 3.5 0 0 0 3.5 3.5 3.5 3.5 0 0 0 3.5-3.5c0-3.9074 3.0926-7 7-7s7 3.0926 7 7a3.5 3.5 0 0 0 3.5 3.5 3.5 3.5 0 0 0 3.5-3.5c0-7.6905-6.3095-14-14-14z"
     color="#000000"
     fill="#9141ac"
     stroke-linecap="round"
     stroke-linejoin="round"
     stroke-width="7"
     style="-inkscape-stroke:none"
     id="path3257" />
</svg>
