<?xml version="1.0" encoding="UTF-8"?>
<svg width="180" height="80" version="1.1" viewBox="0 0 180 80" xmlns="http://www.w3.org/2000/svg" xmlns:cc="http://creativecommons.org/ns#" xmlns:dc="http://purl.org/dc/elements/1.1/" xmlns:rdf="http://www.w3.org/1999/02/22-rdf-syntax-ns#">
 <metadata>
  <rdf:RDF>
   <cc:Work rdf:about="">
    <dc:format>image/svg+xml</dc:format>
    <dc:type rdf:resource="http://purl.org/dc/dcmitype/StillImage"/>
   </cc:Work>
  </rdf:RDF>
 </metadata>
 <g transform="translate(0 -1042.5)">
  <path d="m130.25 1096.3-3.1074 9.1836h1.1894l0.88282-2.8008h3.3457l0.86914 2.8008h1.2461l-3.1094-9.1836h-1.3164zm0.60352 0.9512h0.05469c0.294 1.064 0.58783 2.0717 0.92382 3.0937l0.43555 1.4004h-2.7578l0.43359-1.4004c0.336-1.022 0.63016-2.0297 0.91016-3.0937zm7.5586 1.2597c-1.554 0-3.0508 1.358-3.0508 3.584s1.4417 3.5567 3.2617 3.5567c0.924 0 1.6522-0.3213 2.2402-0.6992l-0.40626-0.7559c-0.50399 0.322-1.0494 0.5312-1.6934 0.5312-1.302 0-2.1855-0.9232-2.2695-2.3652h4.5938c0.028-0.168 0.04102-0.4202 0.04102-0.6582 0-1.946-0.9808-3.1934-2.7168-3.1934zm7.043 0c-1.666 0-3.1504 1.302-3.1504 3.584 0 2.254 1.4844 3.5567 3.1504 3.5567s3.1504-1.3027 3.1504-3.5567c0-2.282-1.4844-3.584-3.1504-3.584zm8.3164 0c-0.938 0-1.6392 0.5045-2.2832 1.1485h-0.04102l-0.09766-0.9805h-0.95312v6.8047h1.1484v-4.9277c0.68599-0.686 1.1613-1.0508 1.8613-1.0508 0.896 0 1.2891 0.5463 1.2891 1.8203v4.1582h1.1484v-4.3125c0-1.736-0.64426-2.6602-2.0723-2.6602zm-15.33 0.9102c1.064 0 1.6797 0.7432 1.6797 2.1152h-3.6406c0.14-1.344 1.0089-2.1152 1.9609-2.1152zm7.0137 0.043c1.176 0 1.959 1.0628 1.959 2.6308 0 1.554-0.78299 2.6055-1.959 2.6055-1.162 0-1.9609-1.0515-1.9609-2.6055 0-1.568 0.79894-2.6308 1.9609-2.6308z" fill="#ffffff"/>
  <g transform="matrix(.21094 0 0 .20867 -.10704 1063.6)" fill="#fff">
   <path id="Geeko" d="m281.36 27.426c-3.3113-0.11926-6.4507 1.0506-8.85 3.3008-2.3993 2.2502-3.8146 5.2984-3.9146 8.5992-0.22975 6.8208 5.1107 12.559 11.916 12.81 3.3095 0.09997 6.4647-1.0699 8.878-3.3201 2.4098-2.2607 3.7954-5.3107 3.9006-8.5992 0.22976-6.819-5.109-12.549-11.93-12.791zm2.0204 13.512c-3.0307 0-5.479-1.6399-5.479-3.6498 0-2.0292 2.4484-3.6603 5.479-3.6603 3.0307 0 5.4861 1.6311 5.4861 3.6603-2e-3 2.0099-2.4572 3.6498-5.4861 3.6498zm27.153 15.799c0.80502-0.53142 1.3961-0.97164 1.6451-1.0699l0.26834-0.41917c-0.68049-4.2794-7.0593-25.029-11.884-30.019-1.3294-1.3592-2.394-2.6992-4.5495-3.9602-17.454-10.171-58.863-16.309-60.803-16.59l-0.32972 0.091201-0.12453 0.29991s-0.1596 8.5799-0.18415 9.5392c-4.2286-1.4206-34.972-11.351-63.791-12.351-24.44-0.85939-60.033-4.0198-107.2 24.98l-1.3943 0.86816c-22.19 13.841-37.51 30.91-45.518 50.739-2.5115 6.2402-5.8895 20.32-2.5413 33.569 1.4417 5.7912 4.1303 11.611 7.7556 16.819 8.194 11.77 21.944 19.58 36.749 20.899 20.904 1.8696 36.733-7.5188 42.363-25.099 3.8708-12.13 0-29.928-14.839-39.008-12.07-7.3908-25.049-5.7106-32.578-0.7296-6.5314 4.3303-10.23 11.06-10.165 18.451 0.15083 13.11 11.444 20.078 19.564 20.099 2.3589 0 4.7284-0.4104 7.3995-1.2803 0.95059-0.28939 1.8451-0.64893 2.8307-1.2593l0.30868-0.18065 0.19468-0.12978-0.06489 0.0386c1.8503-1.261 2.964-3.3113 2.964-5.5106 0-0.59982-0.08419-1.2084-0.25606-1.8205-0.95936-3.32-4.2391-5.3282-7.638-4.7091l-0.45951 0.10874-0.62087 0.18942-0.90148 0.31043c-1.8696 0.45951-3.2692 0.49985-3.5691 0.51037-0.95059-0.0614-5.6246-1.461-5.6246-6.5805v-0.0702c0-1.8801 0.75416-3.199 1.1698-3.9199 1.4539-2.28 5.4352-4.5179 10.814-4.0497 7.0593 0.61034 12.149 4.2303 15.52 11.06 3.1289 6.349 2.3098 14.159-2.1099 19.88-4.3899 5.6685-12.205 8.0783-22.598 6.9593-10.481-1.1593-19.34-7.1908-24.303-16.579-4.8564-9.1779-5.1213-20.059-0.68576-28.418 10.609-20.029 30.649-19.82 41.637-17.921 16.26 2.8202 34.758 17.819 41.319 35.139 1.0593 2.7606 1.5995 4.9494 2.0713 6.9505l0.70856 2.9903 18.37 8.9692 0.24028 0.18065 0.44548-0.0403 0.0807-0.52966c-0.11401-0.41041-0.38059-0.78924-0.80503-5.9298-0.34901-4.5618-1.0593-17.051 5.2282-23.24 2.4414-2.4186 6.1613-4.5776 9.099-5.2686 12.04-2.9412 26.159-0.91201 39.507 14.539 6.9102 7.98 10.279 11.619 11.97 13.249l0.58929 0.53142 0.69453 0.51914c0.55422 0.30166 22.954 10.621 22.954 10.621l0.46127-0.11049 9e-3 -0.47881c-0.14908-0.17012-14.199-18.328-11.698-33.279 1.9696-11.909 11.447-10.83 24.558-9.3498 4.2794 0.49985 9.1516 1.0593 14.196 1.1716 14.083 0.08945 29.254-2.5115 38.604-6.6015 6.049-2.629 9.9093-4.3794 12.328-6.5787 0.86991-0.72084 1.3207-1.8907 1.7907-3.1499l0.32972-0.83133c0.39112-1.0207 0.96638-3.171 1.2189-4.3496 0.10172-0.51914 0.16135-1.0681-0.20871-1.3592l-1.2944 0.24028c-4.1058 2.4712-14.369 7.1505-23.965 7.3504-11.914 0.24027-35.898-11.981-38.399-13.28l-0.24028-0.27886c-0.5893-1.4399-4.19-9.9496-4.9599-11.749 17.27 11.379 31.594 17.668 42.559 18.638 12.207 1.0874 21.722-5.5738 25.785-8.422zm-47.347-17.439c0.17538-4.7302 2.1555-9.1201 5.6141-12.34 3.4604-3.2306 7.9748-4.9003 12.708-4.7494 9.7602 0.34902 17.43 8.5886 17.095 18.338-0.18416 4.7302-2.1643 9.1201-5.6141 12.33-3.4604 3.2499-7.9643 4.9196-12.719 4.76-9.7497-0.35954-17.411-8.5799-17.084-18.338z"/>
   <path d="m134.49 141.73c-7.7836 0-12.065 6.5805-12.065 11.13v5.8403c0 6.6997 5.4738 10.851 10.549 10.851h17.819c2.2449 0 2.715 1.4697 2.715 2.7097v3.769c0 0.39988-0.0807 4.0198-2.715 4.0198h-24.303c-2.4151 0-4.1602 1.6802-4.1602 3.9795v1.0418c0 2.2905 1.7451 3.9602 4.1602 3.9602h25.624c6.698 0 11.019-4.66 11.019-11.879v-6.3016c0-6.7787-4.8705-9.8093-9.7058-9.8093h-17.533c-2.6396 0-3.8357-1.9801-3.8357-3.3797v-3.4796c0-2.1906 1.4645-3.4604 4.0251-3.4604h19.408c2.38 0 4.1707-1.71 4.1707-3.9707v-1.04c0-2.2695-1.8205-3.9813-4.2514-3.9813z"/>
   <path d="m207.35 141.73c-2.3011 0-4.1549 1.8696-4.1549 4.1707v29.838c0 2.3905-1.9503 4.311-4.311 4.311h-13.545c-2.3695 0-4.3092-1.9205-4.3092-4.311v-29.838c0-2.3011-1.8696-4.1707-4.1689-4.1707h-1.3101c-2.3344 0-4.1707 1.8416-4.1707 4.1707v30.968c0 7.2101 5.6737 12.44 13.489 12.44h14.485c7.8047 0 13.475-5.2282 13.475-12.44v-30.968c0-2.3291-1.8293-4.1707-4.1602-4.1707z"/>
   <path d="m233.28 141.73c-7.7801 0-12.074 6.5805-12.074 11.13v5.8403c0 6.6997 5.4843 10.851 10.563 10.851h17.814c2.2484 0 2.7202 1.4697 2.7202 2.7097v3.769c0 0.39988-0.0807 4.0198-2.7202 4.0198h-24.314c-2.4045 0-4.1602 1.6802-4.1602 3.9795v1.0418c0 2.2905 1.7556 3.9602 4.1602 3.9602h25.633c6.6997 0 11.041-4.66 11.041-11.879v-6.3016c0-6.7787-4.8845-9.8093-9.7199-9.8093h-17.533c-2.6466 0-3.8392-1.9801-3.8392-3.3797v-3.4796c0-2.1906 1.4645-3.4604 4.0251-3.4604h19.419c2.3747 0 4.1584-1.71 4.1584-3.9707v-1.04c0-2.2695-1.8188-3.9813-4.2601-3.9813z"/>
   <path d="m274.25 141.73c-2.3098 0-4.0549 1.7118-4.0549 3.9813v39.358c0 2.259 1.7048 3.9602 3.9637 3.9602h31.364c2.4151 0 4.1602-1.6697 4.1602-3.9602v-1.0418c0-2.2993-1.7451-3.9795-4.1602-3.9795h-25.687v-10.02h18.822c2.4098 0 4.1602-1.6907 4.1602-3.9813v-1.04c0-2.3011-1.7504-3.9707-4.1602-3.9707h-18.822v-10.32h24.382c2.4063 0 4.1602-1.6591 4.1602-3.9707v-1.04c0-2.3011-1.7539-3.9812-4.1602-3.9812h-29.968z"/>
   <g transform="matrix(1.7539 0 0 1.7539 -853.95 -548.75)">
    <path d="m491.25 404.37c-2.241 0-4.065 1.744-4.065 3.894v8.461c0 2.184 1.765 3.963 3.929 3.963h5.473c2.164 0 3.929-1.779 3.929-3.963v-8.461c0-2.149-1.825-3.894-4.065-3.894zm-1.184 12.019v-7.726c0-0.906 0.744-1.647 1.654-1.647h4.264c0.89 0 1.648 0.758 1.648 1.647v7.726c0 0.912-0.738 1.653-1.648 1.653h-4.296c-0.912 0-1.622-0.725-1.622-1.653z"/>
    <path d="m512.91 404.27c-1.578 0-2.768 0.564-3.723 1.026-0.582 0.279-1.086 0.52-1.477 0.52-0.177 0-0.328-0.08-0.408-0.211l-0.364-0.696c-0.091-0.183-0.456-0.541-0.907-0.541h-0.541c-0.52 0-0.936 0.467-0.936 1.037v21.461c0 0.673 0.531 1.203 1.203 1.203h0.468c0.667 0 1.209-0.536 1.209-1.203v-7.121c0-0.211 0.137-0.439 0.276-0.439 0.391 0 0.895 0.229 1.477 0.496 0.955 0.439 2.145 0.98 3.723 0.98h0.505c2.794 0 4.532-1.597 4.532-4.162v-8.192c0-2.526-1.775-4.157-4.532-4.157h-0.505zm-5.475 11.952v-7.39c0-1.021 0.798-1.818 1.818-1.818h3.997c1.021 0 1.818 0.798 1.818 1.818v7.39c0 1.003-0.818 1.818-1.818 1.818h-3.997c-1.001 0-1.818-0.815-1.818-1.818z"/>
    <path d="m526.04 404.37c-2.241 0-4.06 1.744-4.06 3.894v8.398c0 2.178 1.768 4.025 3.854 4.025h5.647c0.698 0 1.203-0.484 1.203-1.141v-0.37c0-0.661-0.505-1.135-1.203-1.135h-4.639c-1.3 0-1.986-0.639-1.986-1.854v-2.457h8.369c1.346 0 2.142-0.821 2.142-2.212v-3.256c0-2.149-1.822-3.894-4.054-3.894h-5.273zm-1.183 4.265c0-0.907 0.713-1.619 1.621-1.619h4.396c0.906 0 1.613 0.712 1.613 1.619v2.622h-7.631c1e-3 -0.342 1e-3 -2.622 1e-3 -2.622z"/>
    <path d="m547 404.27c-1.573 0-2.76 0.564-3.718 1.021-0.596 0.28-1.105 0.525-1.521 0.525-0.183 0-0.257-0.023-0.399-0.269l-0.331-0.604c-0.19-0.382-0.513-0.575-0.949-0.575h-0.465c-0.562 0-0.972 0.438-0.972 1.037v14.077c0 0.667 0.527 1.203 1.206 1.203h0.465c0.667 0 1.211-0.542 1.211-1.203v-10.65c0-0.998 0.815-1.818 1.813-1.818h3.999c1.001 0 1.816 0.82 1.816 1.818v10.65c0 0.667 0.53 1.203 1.203 1.203h0.47c0.667 0 1.209-0.542 1.209-1.203v-11.055c0-2.526-1.776-4.157-4.535-4.157z"/>
   </g>
   <g transform="matrix(1.7539 0 0 1.7539 -853.95 -548.75)">
    <path d="m667.46 415.23c1.218 0 2.188 0.99 2.188 2.229 0 1.257-0.971 2.237-2.198 2.237-1.218 0-2.208-0.98-2.208-2.237 0-1.238 0.99-2.229 2.208-2.229zm-0.01 0.346c-0.98 0-1.782 0.842-1.782 1.882 0 1.06 0.802 1.891 1.792 1.891 0.99 0.011 1.782-0.831 1.782-1.881s-0.792-1.892-1.782-1.892zm-0.416 3.179h-0.396v-2.485c0.208-0.03 0.406-0.06 0.703-0.06 0.377 0 0.624 0.079 0.772 0.188 0.149 0.108 0.229 0.276 0.229 0.515 0 0.326-0.218 0.524-0.485 0.604v0.021c0.218 0.039 0.366 0.237 0.416 0.604 0.06 0.387 0.118 0.535 0.158 0.614h-0.416c-0.06-0.079-0.119-0.307-0.168-0.634-0.06-0.316-0.218-0.436-0.535-0.436h-0.277v1.069zm0-1.377h0.287c0.327 0 0.604-0.118 0.604-0.426 0-0.218-0.158-0.436-0.604-0.436-0.129 0-0.218 0.01-0.287 0.021z" fill="#fff"/>
   </g>
  </g>
  <path d="m90.563 1056.3-2e-6 56.25" fill="none" stroke="#fff" stroke-width="1.125px"/>
  <text x="192.69141" y="1103.5197" fill="#000000" font-family="sans-serif" font-size="40px" style="line-height:1.25" xml:space="preserve"><tspan x="192.69141" y="1103.5197" text-align="center" text-anchor="middle"/></text>
 </g>
 <path d="m133 18a1.0001 1.0001 0 0 0-1 1v6c0 4.053 2.4852 7.4322 5.9648 9-3.4791 1.568-5.9648 4.9473-5.9648 9v6a1.0001 1.0001 0 0 0 1 1h18a1.0001 1.0001 0 0 0 1-1v-6c0-4.0533-2.4849-7.4323-5.9648-9 3.4803-1.5675 5.9648-4.9464 5.9648-9v-6a1.0001 1.0001 0 0 0-1-1zm1 2h16v5c0 3.8164-2.6605 6.992-6.2188 7.8008a1.0001 1.0001 0 0 0-0.77734 0.98438l4e-3 0.44531a1.0001 1.0001 0 0 0 0.77734 0.96875c3.5566 0.80996 6.2148 3.9855 6.2148 7.8008v5h-16v-5c0-3.8168 2.6599-6.9924 6.2188-7.8008a1.0001 1.0001 0 0 0 0.77734-0.97266l4e-3 -0.44922a1.0001 1.0001 0 0 0-0.78125-0.97656c-3.5593-0.8081-6.2188-3.9837-6.2188-7.8008zm5 4a1 1 0 0 0-1 1c0 2.1973 1.8027 4 4 4s4-1.8027 4-4a1 1 0 0 0-1-1 1 1 0 0 0-1 1c0 1.1164-0.88359 2-2 2s-2-0.88359-2-2a1 1 0 0 0-1-1zm3 15c-2.1973 0-4 1.8027-4 4a1 1 0 0 0 1 1 1 1 0 0 0 1-1c0-1.1164 0.88359-2 2-2s2 0.88359 2 2a1 1 0 0 0 1 1 1 1 0 0 0 1-1c0-2.1973-1.8027-4-4-4z" color="#000000" fill="#ffffff" stroke-linecap="round" stroke-linejoin="round" stroke-width="2" style="-inkscape-stroke:none"/>
</svg>
