<?xml version="1.0" encoding="UTF-8"?>
<!-- Created with Inkscape (http://www.inkscape.org/) -->
<svg width="128" height="128" version="1.1" viewBox="0 0 128 128" xmlns="http://www.w3.org/2000/svg">
 <path d="m32.5 8a3.5004 3.5004 0 0 0-3.5 3.5v21c0 14.186 8.6983 26.013 20.877 31.5-12.177 5.488-20.877 17.316-20.877 31.5v21a3.5004 3.5004 0 0 0 3.5 3.5h63a3.5004 3.5004 0 0 0 3.5-3.5v-21c0-14.186-8.6973-26.013-20.877-31.5 12.181-5.4863 20.877-17.312 20.877-31.5v-21a3.5004 3.5004 0 0 0-3.5-3.5zm3.5 7h56v17.5c0 13.357-9.3116 24.472-21.766 27.303a3.5004 3.5004 0 0 0-2.7207 3.4453l0.01365 1.5586a3.5004 3.5004 0 0 0 2.7207 3.3906c12.449 2.8348 21.752 13.949 21.752 27.303v17.5h-56v-17.5c0-13.359 9.3097-24.473 21.766-27.303a3.5004 3.5004 0 0 0 2.7207-3.4043l0.013672-1.5723a3.5004 3.5004 0 0 0-2.7344-3.418c-12.457-2.8284-21.766-13.943-21.766-27.303zm17.5 14a3.5 3.5 0 0 0-3.5 3.5c0 7.6905 6.3095 14 14 14s14-6.3095 14-14a3.5 3.5 0 0 0-3.5-3.5 3.5 3.5 0 0 0-3.5 3.5c0 3.9074-3.0926 7-7 7s-7-3.0926-7-7a3.5 3.5 0 0 0-3.5-3.5zm10.5 52.5c-7.6905 0-14 6.3095-14 14a3.5 3.5 0 0 0 3.5 3.5 3.5 3.5 0 0 0 3.5-3.5c0-3.9074 3.0926-7 7-7s7 3.0926 7 7a3.5 3.5 0 0 0 3.5 3.5 3.5 3.5 0 0 0 3.5-3.5c0-7.6905-6.3095-14-14-14z" color="#000000" fill="#009b77" stroke-linecap="round" stroke-linejoin="round" stroke-width="7" style="-inkscape-stroke:none"/>
</svg>
