<?xml version="1.0" encoding="UTF-8"?>
<svg width="128" height="128" preserveAspectRatio="xMidYMid" version="1.1" viewBox="0 0 128 128" xmlns="http://www.w3.org/2000/svg" xmlns:cc="http://creativecommons.org/ns#" xmlns:dc="http://purl.org/dc/elements/1.1/" xmlns:rdf="http://www.w3.org/1999/02/22-rdf-syntax-ns#">
 <metadata>
  <rdf:RDF>
   <cc:Work rdf:about="">
    <dc:format>image/svg+xml</dc:format>
    <dc:type rdf:resource="http://purl.org/dc/dcmitype/StillImage"/>
   </cc:Work>
  </rdf:RDF>
 </metadata>
 <path x="0.99224854" y="0.99224854" width="126.0155" height="126.0155" d="m10.992 0.99225h106.02a10 10 45 0 1 10 10v106.02a10 10 135 0 1-10 10h-106.02a10 10 45 0 1-10-10v-106.02a10 10 135 0 1 10-10z" fill="#fff" stroke="#25ac95" stroke-width="1.9845" style="mix-blend-mode:normal"/>
 <path d="m29.248 6.5101c-0.25721 0.034859-0.50623 0.16059-0.69451 0.36305l-8.715 9.3335c-0.36641 0.39366-0.41774 0.98888-0.12694 1.4446l10.985 17.215c-1.7742 3.2233-3.1779 6.6881-4.1447 10.324l-19.155 4.6062c-0.5331 0.12768-0.91157 0.61504-0.89614 1.1724l0.35846 12.843c0.014912 0.54316 0.39835 1.0076 0.91855 1.1194l18.834 4.0995c1.1131 4.148 2.7626 8.0596 4.9064 11.64l-10.365 17.033c-0.28914 0.47603-0.20701 1.0848 0.19416 1.4673l9.2153 8.8267c0.38755 0.37007 0.98183 0.42903 1.4338 0.13617l16.676-10.922c3.3868 1.8532 7.0232 3.2888 10.851 4.2205l4.4957 19.166c0.12652 0.5433 0.6108 0.91561 1.1575 0.90008l12.68-0.36304c0.53309-0.0151 0.98519-0.39726 1.0978-0.93034l4.1297-19.446c3.8863-1.1815 7.5451-2.8813 10.903-5.0147l17.027 10.627c0.4682 0.29365 1.0769 0.217 1.4562-0.18912l8.715-9.3335c0.36868-0.39484 0.41847-0.99011 0.12695-1.4447l-6.385-10.014-1.9566 0.68829c-0.28532 0.10033-0.60029-5.75e-4 -0.77666-0.2496 0 0-4.0556-5.6607-9.29-12.972-5.6811 12.085-17.684 20.588-31.806 20.989-9.1184 0.25891-17.542-2.9111-24.076-8.3502l1.8296-1.8531c13.256 10.984 32.917 10.227 45.278-2.2918 12.361-12.519 13.115-32.432 2.2702-45.858l12.068-12.223a3.3796 3.4229 6.732e-4 1 0-4.7794-4.8407l-12.068 12.223c-13.256-10.984-32.917-10.227-45.278 2.2918-12.361 12.519-13.108 32.432-2.2628 45.858l-1.8595 1.8758c-5.078-6.1337-8.2299-13.97-8.4686-22.592-0.41383-14.95 8.0352-28.062 20.514-34.18l-0.26883-9.4923c-2.2776 0.88033-4.4695 1.9288-6.5493 3.154l-0.0076-0.0077-17.43-10.884c-0.23469-0.14596-0.50458-0.2006-0.76172-0.1664zm40.827 23.251c6.8562-0.03446 13.727 2.5732 19.028 7.8132a3.3795 3.4228 6.3209e-4 0 0 0.45553 0.46138c10.357 10.737 10.307 27.833-0.2016 38.476-10.506 10.64-27.38 10.692-37.982 0.2118a3.3795 3.4228 6.3209e-4 0 0-0.45554-0.46138c-10.357-10.737-10.307-27.833 0.20162-38.476 5.2528-5.3202 12.097-7.9907 18.953-8.025zm0.1643 13.72c-3.4663 0-6.9337 1.3272-9.5589 3.986-5.2503 5.3176-5.2503 14.045 0 19.363 5.2503 5.3176 13.867 5.3176 19.118 0 5.2503-5.3176 5.2503-14.045 0-19.363-2.6251-2.6588-6.0926-3.986-9.5589-3.986zm0 6.7997c1.7225 0 3.4456 0.67615 4.7794 2.027 2.6676 2.7018 2.6676 6.9796 0 9.6814-2.6676 2.7018-6.8913 2.7018-9.5589 0-2.6676-2.7018-2.6676-6.9796 0-9.6814 1.3338-1.3509 3.0569-2.027 4.7794-2.027z" fill="#25ac95" stroke-width="3.848"/>
</svg>
