<?xml version="1.0" encoding="UTF-8"?>
<svg width="143.71" height="44" preserveAspectRatio="xMidYMid" version="1.1" viewBox="0 0 143.71 44" xmlns="http://www.w3.org/2000/svg" xmlns:cc="http://creativecommons.org/ns#" xmlns:dc="http://purl.org/dc/elements/1.1/" xmlns:rdf="http://www.w3.org/1999/02/22-rdf-syntax-ns#">
 <metadata>
  <rdf:RDF>
   <cc:Work rdf:about="">
    <dc:format>image/svg+xml</dc:format>
    <dc:type rdf:resource="http://purl.org/dc/dcmitype/StillImage"/>
   </cc:Work>
  </rdf:RDF>
 </metadata>
 <path d="m8.7034 0.0038424c-0.098412 0.013338-0.19369 0.061445-0.26573 0.13891l-3.3344 3.5711c-0.14019 0.15062-0.15983 0.37835-0.048569 0.55273l4.203 6.5865c-0.67883 1.2333-1.2159 2.5589-1.5858 3.9502l-7.3289 1.7624c-0.20397 0.04885-0.34878 0.23532-0.34287 0.44855l0.13715 4.9138c0.005714 0.20782 0.15241 0.38552 0.35145 0.4283l7.206 1.5685c0.4259 1.5871 1.057 3.0837 1.8772 4.4537l-3.9659 6.5171c-0.11063 0.18213-0.079203 0.41504 0.074286 0.56141l3.5259 3.3772c0.14828 0.14159 0.37566 0.16415 0.5486 0.0521l6.3803-4.1788c1.2958 0.70906 2.6871 1.2583 4.1516 1.6148l1.7201 7.3331c0.04841 0.20787 0.2337 0.35032 0.44288 0.34438l4.8516-0.13891c0.20397-0.0058 0.37694-0.152 0.42002-0.35595l1.5801-7.4402c1.4869-0.45207 2.8868-1.1024 4.1716-1.9187l6.5146 4.0659c0.17915 0.11235 0.41204 0.08303 0.55716-0.07235l3.3344-3.5711c0.14106-0.15106 0.1601-0.37882 0.04857-0.55274l-2.443-3.8315-0.74861 0.26335c-0.10916 0.03839-0.22968-2.38e-4 -0.29715-0.0955 0 0-1.5517-2.1658-3.5544-4.963-2.1737 4.624-6.7659 7.8771-12.169 8.0306-3.4888 0.09906-6.7115-1.1138-9.2118-3.1949l0.70003-0.70901c5.0718 4.2027 12.594 3.9131 17.324-0.87685 4.7294-4.79 5.0181-12.409 0.86861-17.546l4.6174-4.6765a1.2931 1.3096 6.9159e-4 1 0-1.8287-1.8521l-4.6173 4.6765c-5.0718-4.2027-12.594-3.9131-17.324 0.87685-4.7294 4.79-5.0152 12.409-0.86575 17.546l-0.71146 0.71768c-1.9429-2.3468-3.1488-5.345-3.2401-8.6441-0.15833-5.7199 3.0743-10.737 7.8489-13.078l-0.10286-3.6318c-0.87145 0.33682-1.7101 0.73797-2.5058 1.2068l-0.0029-0.00296-6.6689-4.1643c-0.089794-0.055846-0.19306-0.07675-0.29144-0.063669zm15.621 8.8959c2.6233-0.013184 5.2522 0.98453 7.2803 2.9894a1.293 1.3096 6.3397e-4 0 0 0.17429 0.17653c3.9626 4.1081 3.9436 10.649-0.07714 14.721-4.0196 4.0711-10.476 4.0908-14.532 0.08104a1.293 1.3096 6.3397e-4 0 0-0.17429-0.17653c-3.9626-4.1081-3.9436-10.649 0.07714-14.721 2.0098-2.0355 4.6285-3.0573 7.2518-3.0704zm0.06286 5.2495c-1.3262 0-2.6529 0.50781-3.6573 1.5251-2.0088 2.0345-2.0088 5.3738 0 7.4084 2.0088 2.0345 5.3058 2.0345 7.3146 0s2.0088-5.3738 0-7.4084c-1.0044-1.0173-2.3311-1.5251-3.6573-1.5251zm0 2.6016c0.65905 0 1.3183 0.2587 1.8287 0.77556 1.0206 1.0337 1.0206 2.6705 0 3.7042s-2.6367 1.0337-3.6573 0-1.0206-2.6705 0-3.7042c0.51032-0.51686 1.1696-0.77556 1.8287-0.77556z" fill="#fff" stroke-width="1.4723"/>
 <path d="m94.744 8.4746v23.686h5.4512v-23.686h-5.4512zm-44.949 0.95898v22.727h5.8613v-8.9512l9.041 8.9512h7.3379l-12.072-11.965 10.945-10.762h-6.8047l-8.4473 8.2949v-8.2949h-5.8613zm31.174 5.2676c-1.1771 0-2.3541 0.074346-3.5312 0.22656-1.1771 0.14207-2.3486 0.35649-3.5156 0.64062v4.1543c0.86256-0.4668 1.7962-0.81543 2.8008-1.0488s2.0908-0.35156 3.2578-0.35156c1.441 0 2.5017 0.20346 3.1816 0.60938 0.6799 0.39576 1.0195 1.0261 1.0195 1.8887v0.42578h-3.2129c-2.9429 0-5.1043 0.46679-6.4844 1.4004-1.37 0.9336-2.0547 2.3993-2.0547 4.3984 0 1.6439 0.54857 2.9845 1.6445 4.0195 1.1061 1.0249 2.5409 1.5371 4.3066 1.5371 1.3091 0 2.4207-0.23437 3.334-0.70117 0.9133-0.47695 1.7362-1.2325 2.4668-2.2676v2.5273h5.4941v-9.7266c0-2.7298-0.68474-4.6987-2.0547-5.9062-1.3598-1.2177-3.5776-1.8262-6.6523-1.8262zm35.559 0c-1.1873 0-2.2371 0.2379-3.1504 0.71484-0.9133 0.4668-1.7452 1.1969-2.4961 2.1914v-2.4961h-5.4512v23.533h5.4512v-8.9512c0.75094 0.99448 1.5828 1.7301 2.4961 2.207 0.9133 0.4668 1.9631 0.70117 3.1504 0.70117 2.1006 1e-6 3.8261-0.83186 5.1758-2.4961 1.3497-1.6744 2.0234-3.8268 2.0234-6.4551 0-2.6283-0.67378-4.7752-2.0234-6.4395-1.3496-1.6744-3.0752-2.5098-5.1758-2.5098zm18.479 0c-1.1771 0-2.3541 0.074346-3.5312 0.22656-1.1771 0.14207-2.3486 0.35649-3.5156 0.64062v4.1543c0.86257-0.4668 1.7962-0.81543 2.8008-1.0488 1.0046-0.2334 2.0908-0.35156 3.2578-0.35156 1.441 0 2.5017 0.20346 3.1816 0.60938 0.6799 0.39576 1.0195 1.0261 1.0195 1.8887v0.42578h-3.2129c-2.9429 0-5.1043 0.46679-6.4844 1.4004-1.37 0.9336-2.0547 2.3993-2.0547 4.3984 0 1.6439 0.54857 2.9845 1.6445 4.0195 1.1061 1.0249 2.5409 1.5371 4.3066 1.5371 1.3091 0 2.4207-0.23437 3.334-0.70117 0.9133-0.47695 1.7362-1.2325 2.4668-2.2676v2.5273h5.4941v-9.7266c0-2.7298-0.68474-4.6987-2.0547-5.9062-1.3598-1.2177-3.5776-1.8262-6.6523-1.8262zm-20.504 3.957c1.167 0 2.0552 0.42688 2.6641 1.2793 0.61901 0.85241 0.92968 2.0892 0.92968 3.7129 0 1.6236-0.31067 2.8624-0.92968 3.7148-0.60887 0.85241-1.4971 1.2773-2.6641 1.2773-1.167 0-2.0642-0.42493-2.6934-1.2773-0.61901-0.86256-0.92773-2.1013-0.92773-3.7148s0.30872-2.8468 0.92773-3.6992c0.62917-0.86256 1.5264-1.293 2.6934-1.293zm-33.152 5.8301h2.832v0.62305c0 1.1061-0.35058 2.0307-1.0508 2.7715-0.7002 0.73064-1.563 1.0957-2.5879 1.0957-0.82197 0-1.4668-0.19251-1.9336-0.57812-0.45665-0.39576-0.68359-0.93886-0.68359-1.6289 0-0.75094 0.28329-1.3195 0.85156-1.7051 0.57842-0.38562 1.4357-0.57812 2.5723-0.57812zm54.037 0h2.832v0.62305c0 1.1061-0.35058 2.0307-1.0508 2.7715-0.7002 0.73064-1.563 1.0957-2.5879 1.0957-0.82197 0-1.4668-0.19251-1.9336-0.57812-0.45665-0.39576-0.68359-0.93886-0.68359-1.6289 0-0.75094 0.28329-1.3195 0.85156-1.7051 0.57843-0.38562 1.4357-0.57812 2.5723-0.57812z" fill="#fff" style="paint-order:markers stroke fill"/>
</svg>
