<?xml version="1.0" encoding="UTF-8"?>
<svg width="16" height="16" preserveAspectRatio="xMidYMid" version="1.1" viewBox="0 0 16 16" xmlns="http://www.w3.org/2000/svg" xmlns:cc="http://creativecommons.org/ns#" xmlns:dc="http://purl.org/dc/elements/1.1/" xmlns:rdf="http://www.w3.org/1999/02/22-rdf-syntax-ns#">
 <metadata>
  <rdf:RDF>
   <cc:Work rdf:about="">
    <dc:format>image/svg+xml</dc:format>
    <dc:type rdf:resource="http://purl.org/dc/dcmitype/StillImage"/>
   </cc:Work>
  </rdf:RDF>
 </metadata>
 <path d="m3.1649 0.001397c-0.035786 0.0048495-0.070432 0.022344-0.096628 0.050512l-1.2125 1.2986c-0.050979 0.054771-0.058121 0.13758-0.017661 0.20099l1.5284 2.3951c-0.24685 0.44846-0.44214 0.93051-0.57665 1.4364l-2.6651 0.64087c-0.074171 0.017764-0.12683 0.085572-0.12468 0.16311l0.049872 1.7869c0.0020747 0.07557 0.055422 0.14019 0.1278 0.15574l2.6204 0.57036c0.15487 0.57712 0.38436 1.1213 0.68263 1.6195l-1.4421 2.3698c-0.040228 0.06623-0.028801 0.15092 0.027014 0.20415l1.2821 1.2281c0.05392 0.05149 0.1366 0.05969 0.19949 0.01895l2.3201-1.5196c0.4712 0.25784 0.97714 0.45758 1.5097 0.5872l0.62548 2.6666c0.017602 0.07559 0.084981 0.12739 0.16105 0.12523l1.7642-0.05051c0.07417-0.0021 0.13707-0.05527 0.15273-0.12944l0.57457-2.7055c0.5407-0.16439 1.0498-0.40088 1.517-0.69769l2.3689 1.4785c0.06514 0.04085 0.14983 0.03019 0.2026-0.02631l1.2125-1.2986c0.05129-0.05493 0.05822-0.13776 0.01766-0.201l-0.88835-1.3933-0.27222 0.09576c-0.0397 0.01396-0.08352-8e-5 -0.10806-0.03473 0 0-0.56425-0.78758-1.2925-1.8047-0.79042 1.6815-2.4603 2.8644-4.4251 2.9202-1.2686 0.03602-2.4406-0.40502-3.3498-1.1618l0.25456-0.25782c1.8443 1.5282 4.5797 1.423 6.2995-0.31886 1.7198-1.7418 1.8248-4.5123 0.31586-6.3803l1.679-1.7006a0.4702 0.47623 6.732e-4 1 0-0.66497-0.67349l-1.679 1.7006c-1.8443-1.5282-4.5797-1.423-6.2995 0.31885-1.7198 1.7418-1.8237 4.5123-0.31482 6.3803l-0.25871 0.26098c-0.70651-0.85339-1.145-1.9436-1.1782-3.1433-0.057576-2.08 1.1179-3.9042 2.8542-4.7555l-0.037403-1.3207c-0.31689 0.12248-0.62185 0.26835-0.91121 0.43882l-0.0010625-0.001075-2.425-1.5143c-0.032652-0.020307-0.070202-0.027909-0.10598-0.023152zm5.6803 3.2349c0.95391-0.0048 1.9099 0.35801 2.6474 1.0871a0.47019 0.47622 6.3209e-4 0 0 0.06338 0.064192c1.4409 1.4939 1.434 3.8723-0.028051 5.3532-1.4617 1.4804-3.8094 1.4875-5.2844 0.029467a0.47019 0.47622 6.3209e-4 0 0-0.063379-0.064192c-1.4409-1.4939-1.434-3.8723 0.028051-5.3532 0.73083-0.7402 1.6831-1.1117 2.637-1.1165zm0.022858 1.9089c-0.48226 0-0.96469 0.18466-1.3299 0.55458-0.73047 0.73983-0.73047 1.9541 0 2.694 0.73047 0.73984 1.9294 0.73983 2.6599 0 0.73047-0.73983 0.73047-1.9541 0-2.694-0.36524-0.36992-0.84767-0.55458-1.3299-0.55458zm0 0.94604c0.23965 0 0.47939 0.094073 0.66496 0.28202 0.37114 0.3759 0.37114 0.97108 0 1.347-0.37114 0.3759-0.95879 0.3759-1.3299 0-0.37114-0.3759-0.37114-0.97108 0-1.347 0.18557-0.18795 0.42531-0.28202 0.66496-0.28202z" fill="#25ac95" stroke-width=".53537"/>
</svg>
