<?xml version="1.0" encoding="UTF-8"?>
<svg width="128" height="128" preserveAspectRatio="xMidYMid" version="1.1" viewBox="0 0 128 128" xmlns="http://www.w3.org/2000/svg" xmlns:cc="http://creativecommons.org/ns#" xmlns:dc="http://purl.org/dc/elements/1.1/" xmlns:rdf="http://www.w3.org/1999/02/22-rdf-syntax-ns#">
 <metadata>
  <rdf:RDF>
   <cc:Work rdf:about="">
    <dc:format>image/svg+xml</dc:format>
    <dc:type rdf:resource="http://purl.org/dc/dcmitype/StillImage"/>
   </cc:Work>
  </rdf:RDF>
 </metadata>
 <path d="m25.319 0.011176c-0.28629 0.038796-0.56345 0.17875-0.77302 0.40409l-9.7002 10.389c-0.40783 0.43817-0.46497 1.1007-0.14129 1.608l12.227 19.161c-1.9748 3.5876-3.5372 7.4441-4.6132 11.491l-21.32 5.1269c-0.59337 0.14211-1.0146 0.68457-0.99745 1.3049l0.39898 14.295c0.016598 0.60456 0.44338 1.1215 1.0224 1.246l20.963 4.5629c1.239 4.6169 3.0749 8.9706 5.461 12.956l-11.537 18.959c-0.32182 0.52983-0.23041 1.2074 0.21611 1.6332l10.257 9.8245c0.43136 0.4119 1.0928 0.47753 1.5959 0.15156l18.561-12.157c3.7696 2.0627 7.8172 3.6606 12.077 4.6976l5.0039 21.333c0.14082 0.60472 0.67985 1.0191 1.2884 1.0018l14.114-0.40409c0.59336-0.0168 1.0966-0.44217 1.2219-1.0355l4.5966-21.644c4.3256-1.3151 8.398-3.207 12.136-5.5816l18.952 11.828c0.52115 0.32684 1.1987 0.24153 1.6208-0.21049l9.7002-10.389c0.41035-0.43946 0.46576-1.102 0.14129-1.608l-7.1068-11.146-2.1778 0.7661c-0.31757 0.11169-0.66815-6.4e-4 -0.86445-0.27781 0 0-4.514-6.3006-10.34-14.438-6.3234 13.452-19.683 22.915-35.401 23.362-10.149 0.28818-19.524-3.2402-26.798-9.2942l2.0365-2.0626c14.754 12.226 36.638 11.384 50.396-2.5508 13.758-13.934 14.598-36.099 2.5269-51.042l13.432-13.604a3.7616 3.8098 6.732e-4 1 0-5.3197-5.3879l-13.432 13.604c-14.754-12.226-36.638-11.384-50.396 2.5508-13.758 13.934-14.59 36.099-2.5186 51.042l-2.0697 2.0878c-5.6521-6.8271-9.1602-15.549-9.4259-25.146-0.46061-16.64 8.9435-31.234 22.833-38.044l-0.29922-10.565c-2.5351 0.97984-4.9748 2.1468-7.2897 3.5106l-0.0085-0.0086-19.4-12.114c-0.26122-0.16246-0.56162-0.22328-0.84783-0.18522zm45.442 25.879c7.6313-0.03836 15.279 2.8641 21.179 8.6964a3.7615 3.8097 6.3209e-4 0 0 0.50703 0.51354c11.528 11.951 11.472 30.979-0.2244 42.826-11.693 11.843-30.475 11.9-42.275 0.23574a3.7615 3.8097 6.3209e-4 0 0-0.50703-0.51354c-11.528-11.951-11.472-30.979 0.22441-42.826 5.8466-5.9216 13.465-8.894 21.096-8.9322zm0.18287 15.271c-3.8581 0-7.7176 1.4773-10.639 4.4366-5.8438 5.9187-5.8438 15.633 0 21.552 5.8438 5.9187 15.435 5.9187 21.279 0s5.8438-15.633 0-21.552c-2.9219-2.9593-6.7813-4.4366-10.639-4.4366zm0 7.5683c1.9172 0 3.8352 0.75258 5.3197 2.2562 2.9692 3.0072 2.9691 7.7686 0 10.776-2.9691 3.0072-7.6703 3.0072-10.639 0-2.9692-3.0072-2.9691-7.7686 0-10.776 1.4846-1.5036 3.4025-2.2562 5.3197-2.2562z" fill="#25ac95" stroke-width="4.283"/>
</svg>
