<?xml version="1.0" encoding="UTF-8" standalone="no"?>
<svg
   xmlns:dc="http://purl.org/dc/elements/1.1/"
   xmlns:cc="http://creativecommons.org/ns#"
   xmlns:rdf="http://www.w3.org/1999/02/22-rdf-syntax-ns#"
   xmlns:svg="http://www.w3.org/2000/svg"
   xmlns="http://www.w3.org/2000/svg"
   xmlns:sodipodi="http://sodipodi.sourceforge.net/DTD/sodipodi-0.dtd"
   xmlns:inkscape="http://www.inkscape.org/namespaces/inkscape"
   width="128"
   height="128"
   preserveAspectRatio="xMidYMid meet"
   viewBox="0 0 128 128"
   version="1.1"
   id="svg2563"
   sodipodi:docname="apple-touch-icon.svg"
   inkscape:version="1.0.1 (3bc2e813f5, 2020-09-07)">
  <metadata
     id="metadata2569">
    <rdf:RDF>
      <cc:Work
         rdf:about="">
        <dc:format>image/svg+xml</dc:format>
        <dc:type
           rdf:resource="http://purl.org/dc/dcmitype/StillImage" />
        <dc:title></dc:title>
      </cc:Work>
    </rdf:RDF>
  </metadata>
  <defs
     id="defs2567">
    <inkscape:path-effect
       effect="fillet_chamfer"
       id="path-effect2481"
       is_visible="true"
       lpeversion="1"
       satellites_param="F,0,0,1,0,10,0,1 @ F,0,0,1,0,10,0,1 @ F,0,0,1,0,10,0,1 @ F,0,0,1,0,10,0,1"
       unit="px"
       method="auto"
       mode="F"
       radius="10"
       chamfer_steps="1"
       flexible="false"
       use_knot_distance="true"
       apply_no_radius="true"
       apply_with_radius="true"
       only_selected="false"
       hide_knots="false" />
  </defs>
  <sodipodi:namedview
     pagecolor="#ffffff"
     bordercolor="#666666"
     borderopacity="1"
     objecttolerance="10"
     gridtolerance="10"
     guidetolerance="10"
     inkscape:pageopacity="0"
     inkscape:pageshadow="2"
     inkscape:window-width="1920"
     inkscape:window-height="1011"
     id="namedview2565"
     showgrid="false"
     inkscape:zoom="3.3242188"
     inkscape:cx="-14.383964"
     inkscape:cy="80.068765"
     inkscape:window-x="0"
     inkscape:window-y="32"
     inkscape:window-maximized="1"
     inkscape:current-layer="svg2563" />
  <path
     style="fill:#ffffff;fill-opacity:1;stroke:#173f4f;stroke-width:1.98451;stroke-linejoin:miter;stroke-miterlimit:4;stroke-dasharray:none;stroke-opacity:1"
     id="rect831"
     width="126.0155"
     height="126.0155"
     x="0.99225497"
     y="0.99225497"
     inkscape:path-effect="#path-effect2481"
     sodipodi:type="rect"
     inkscape:export-xdpi="42.91"
     inkscape:export-ydpi="42.91"
     d="M 10.992255,0.99225497 H 117.00776 a 10,10 45 0 1 10,10.00000003 V 117.00776 a 10,10 135 0 1 -10,10 H 10.992255 a 10,10 45 0 1 -10.00000003,-10 V 10.992255 A 10,10 135 0 1 10.992255,0.99225497 Z" />
  <path
     fill="#173f4f"
     d="m 64.000002,29.062253 c -18.089918,0 -33.027379,13.836204 -34.791306,31.471986 H 11.546679 a 3.4972378,3.497237 0 1 0 0,6.993775 H 29.208696 C 30.972623,85.1638 45.910084,99 64.000002,99 82.089918,99 97.027379,85.1638 98.791308,67.528014 h 17.662012 a 3.4972378,3.497237 0 1 0 0,-6.993775 H 98.791308 C 97.027379,42.898457 82.089918,29.062253 64.000002,29.062253 Z m 0,6.993775 c 15.374925,0 27.76163,12.304218 27.947784,27.633593 a 3.4972378,3.497237 0 0 0 0,0.669304 C 91.768948,79.6948 79.379564,92.00623 64.000002,92.00623 c -15.374926,0 -27.761631,-12.30422 -27.947786,-27.633597 a 3.4972378,3.497237 0 0 0 0,-0.669305 c 0.178841,-15.335879 12.568228,-27.6473 27.947786,-27.6473 z m 0,13.987549 c -7.683693,0 -13.987553,6.303839 -13.987553,13.98755 0,7.68371 6.30386,13.987553 13.987553,13.987553 7.683692,0 13.987556,-6.303843 13.987549,-13.987553 0,-7.683711 -6.303857,-13.98755 -13.987549,-13.98755 z m 0,6.993775 c 3.903975,0 6.993776,3.08978 6.993776,6.993775 0,3.903995 -3.089801,6.993774 -6.993776,6.993774 -3.903976,0 -6.993777,-3.089779 -6.993777,-6.993774 0,-3.903995 3.089801,-6.993775 6.993777,-6.993775 z"
     id="path2561"
     inkscape:export-xdpi="42.91"
     inkscape:export-ydpi="42.91" />
</svg>
