<svg fill="#ffffff" version="1.1" viewBox="0 0 200 44" xmlns="http://www.w3.org/2000/svg">
 <path d="m91.754 8.166c-1.1947 0-2.127 0.78385-2.127 1.9785 0 1.1573 0.93229 1.9785 2.127 1.9785 1.1947 0 2.1289-0.82118 2.1289-1.9785 0-1.1947-0.93424-1.9785-2.1289-1.9785zm66.828 0.89453c-6.16 0-10.453 4.742-10.453 12.582 0 7.8773 4.2931 12.805 10.453 12.805s10.49-4.9274 10.49-12.805c0-7.8027-4.3302-12.582-10.49-12.582zm22.85 0c-4.4427 0-7.6894 2.7628-7.6894 6.4961 0 3.584 2.6502 5.3399 4.9648 6.3105l3.5098 1.5293c2.3147 1.0453 4.0684 1.8307 4.0684 4.332 0 2.3893-1.9026 3.9941-5.1133 3.9941-2.5387 0-5.0032-1.2312-6.7578-3.0605l-1.8672 2.1641c2.128 2.2027 5.1532 3.6211 8.5879 3.6211 5.152 0 8.3242-3.0978 8.3242-6.9805 0-3.6213-2.2017-5.3012-5.0391-6.5332l-3.4726-1.4941c-1.9413-0.82133-4.0703-1.7164-4.0703-4.0684 0-2.2027 1.8294-3.584 4.5547-3.584 2.2773 0 4.0711 0.89579 5.5644 2.3145l1.6797-2.0156c-1.7547-1.792-4.3321-3.0254-7.2441-3.0254zm-118.07 0.44922v24.49h2.8008v-13.477c0-2.1653-0.22371-5.0788-0.37305-7.2441h0.14844l1.9414 5.5625 4.6289 12.693h2.0547l4.6289-12.693 1.9414-5.5625h0.14844c-0.14933 2.1653-0.41016 5.0788-0.41016 7.2441v13.477h2.9121v-24.49h-3.7715l-4.6289 13.066c-0.59733 1.68-1.0824 3.4352-1.6797 5.1152h-0.14844c-0.59733-1.68-1.1585-3.4352-1.7559-5.1152l-4.7031-13.066h-3.7344zm95.223 2.2773c4.368 0 7.2422 3.7701 7.2422 9.8555 0 6.1227-2.8742 10.08-7.2422 10.08s-7.2422-3.9574-7.2422-10.08c0-6.0853 2.8742-9.8555 7.2422-9.8555zm-51.816 3.6211c-4.6667 0-8.7363 3.4713-8.7363 9.5566 0 6.0107 3.6957 9.4824 8.5117 9.4824 2.1653 0 4.2187-0.85845 5.8613-2.3145l-1.3438-2.0527c-1.12 1.008-2.5759 1.8301-4.2559 1.8301-3.3227 0-5.5996-2.8013-5.5996-6.9453 0-4.1813 2.3885-7.0176 5.6738-7.0176 1.456 0 2.5777 0.67214 3.623 1.6055l1.5664-2.0176c-1.2693-1.1573-2.9114-2.127-5.3008-2.127zm17.662 0c-2.0533 0-3.9203 1.4551-5.1523 3.7324h-0.11133l-0.26172-3.2852h-2.5391v18.145h3.0606v-11.648c1.232-3.0613 3.0631-4.1816 4.5938-4.1816 0.74666 0 1.1566 0.11216 1.7539 0.29883l0.59766-2.6875c-0.59733-0.26133-1.1574-0.37305-1.9414-0.37305zm11.605 0c-4.4427 0-8.3984 3.4713-8.3984 9.5566 0 6.0107 3.9558 9.4824 8.3984 9.4824 4.4427 0 8.4004-3.4718 8.4004-9.4824 0-6.0853-3.9577-9.5566-8.4004-9.5566zm-45.848 0.44727v18.145h3.0625v-18.145h-3.0625zm45.848 2.0918c3.136 0 5.2266 2.8362 5.2266 7.0176 0 4.144-2.0906 6.9453-5.2266 6.9453-3.0987 0-5.2266-2.8013-5.2266-6.9453 0-4.1813 2.1279-7.0176 5.2266-7.0176z"/>
 <path d="m30.42 7.9996c-7.7154 0-14 6.2846-14 14s6.2846 14 14 14c7.7154 0 14-6.2846 14-14s-6.2846-14-14-14zm0 2.8c6.2022 0 11.2 4.998 11.2 11.2 0 6.2023-4.9978 11.2-11.2 11.2s-11.2-4.9977-11.2-11.2c0-6.202 4.9978-11.2 11.2-11.2z"/>
 <path d="m9.4199 20.6a1.4001 1.4001 0 1 0 0 2.8h8.4a1.4001 1.4001 0 1 0 0-2.8z"/>
 <path d="m43.02 20.6a1.4001 1.4001 0 1 0 0 2.8h8.4a1.4001 1.4001 0 1 0 0-2.8z"/>
 <path d="m30.42 16.4c-3.0762 0-5.5996 2.5234-5.5996 5.5996s2.5234 5.5996 5.5996 5.5996 5.5996-2.5234 5.5996-5.5996-2.5234-5.5996-5.5996-5.5996zm0 2.7988c1.563 0 2.8008 1.2378 2.8008 2.8008s-1.2378 2.8008-2.8008 2.8008-2.8008-1.2378-2.8008-2.8008 1.2378-2.8008 2.8008-2.8008z"/>
</svg>
