<svg version="1.1" viewBox="0 0 16 16" xmlns="http://www.w3.org/2000/svg">
 <path d="m8.0078 3c-2.5866 0-4.7224 1.9784-4.9746 4.5h-2.5254a0.50005 0.50005 0 1 0 0 1h2.5254c0.25221 2.5216 2.388 4.5 4.9746 4.5 2.5866 0 4.7224-1.9784 4.9746-4.5h2.5254a0.50005 0.50005 0 1 0 0-1h-2.5254c-0.25221-2.5216-2.388-4.5-4.9746-4.5zm0 1c2.1984 0 3.9695 1.7593 3.9961 3.9512a0.50005 0.50005 0 0 0 0 0.095703c-0.025571 2.1928-1.7971 3.9531-3.9961 3.9531-2.1984 0-3.9695-1.7593-3.9961-3.9512a0.50005 0.50005 0 0 0 0-0.095703c0.025572-2.1928 1.7971-3.9531 3.9961-3.9531zm0 2c-1.0986 0-2 0.90135-2 2s0.90135 2 2 2 2-0.90135 2-2c0-1.0986-0.90135-2-2-2zm0 1c0.55821 0 1 0.44179 1 1s-0.44179 1-1 1-1-0.44179-1-1 0.44179-1 1-1z"/>
</svg>
