<svg version="1.1" viewBox="0 0 128 128" xmlns="http://www.w3.org/2000/svg">
 <path d="m64 29.062c-18.09 0-33.027 13.836-34.791 31.472h-17.662a3.4972 3.4972 0 1 0 0 6.9938h17.662c1.7639 17.636 16.701 31.472 34.791 31.472 18.09 0 33.027-13.836 34.791-31.472h17.662a3.4972 3.4972 0 1 0 0-6.9938h-17.662c-1.7639-17.636-16.701-31.472-34.791-31.472zm0 6.9938c15.375 0 27.762 12.304 27.948 27.634a3.4972 3.4972 0 0 0 0 0.6693c-0.17884 15.336-12.568 27.647-27.948 27.647-15.375 0-27.762-12.304-27.948-27.634a3.4972 3.4972 0 0 0 0-0.6693c0.17884-15.336 12.568-27.647 27.948-27.647zm0 13.988c-7.6837 0-13.988 6.3038-13.988 13.988 0 7.6837 6.3039 13.988 13.988 13.988 7.6837 0 13.988-6.3038 13.988-13.988 0-7.6837-6.3039-13.988-13.988-13.988zm0 6.9938c3.904 0 6.9938 3.0898 6.9938 6.9938s-3.0898 6.9938-6.9938 6.9938c-3.904 0-6.9938-3.0898-6.9938-6.9938s3.0898-6.9938 6.9938-6.9938z" fill="#973a84"/>
</svg>
