<?xml version="1.0" encoding="UTF-8" standalone="no"?>
<svg
   xmlns:dc="http://purl.org/dc/elements/1.1/"
   xmlns:cc="http://creativecommons.org/ns#"
   xmlns:rdf="http://www.w3.org/1999/02/22-rdf-syntax-ns#"
   xmlns:svg="http://www.w3.org/2000/svg"
   xmlns="http://www.w3.org/2000/svg"
   xmlns:sodipodi="http://sodipodi.sourceforge.net/DTD/sodipodi-0.dtd"
   xmlns:inkscape="http://www.inkscape.org/namespaces/inkscape"
   width="128"
   height="128"
   version="1.1"
   viewBox="0 0 128 128"
   id="svg4"
   sodipodi:docname="apple-touch-icon.svg"
   inkscape:version="1.0.1 (3bc2e813f5, 2020-09-07)">
  <metadata
     id="metadata10">
    <rdf:RDF>
      <cc:Work
         rdf:about="">
        <dc:format>image/svg+xml</dc:format>
        <dc:type
           rdf:resource="http://purl.org/dc/dcmitype/StillImage" />
        <dc:title></dc:title>
      </cc:Work>
    </rdf:RDF>
  </metadata>
  <defs
     id="defs8" />
  <sodipodi:namedview
     pagecolor="#ffffff"
     bordercolor="#666666"
     borderopacity="1"
     objecttolerance="10"
     gridtolerance="10"
     guidetolerance="10"
     inkscape:pageopacity="0"
     inkscape:pageshadow="2"
     inkscape:window-width="1920"
     inkscape:window-height="1011"
     id="namedview6"
     showgrid="false"
     inkscape:zoom="4.7011552"
     inkscape:cx="14.434426"
     inkscape:cy="67.769295"
     inkscape:window-x="0"
     inkscape:window-y="32"
     inkscape:window-maximized="1"
     inkscape:current-layer="svg4" />
  <path
     d="m64 22a3.5003 3.5003 0 0 0-2.4746 1.0254l-33.974 33.974h-16.051a3.5 3.5 0 0 0-3.5 3.5 3.5 3.5 0 0 0 3.5 3.5h16.051l33.974 33.974a3.5003 3.5003 0 0 0 4.9492 0l33.974-33.974h16.051a3.5 3.5 0 0 0 3.5-3.5 3.5 3.5 0 0 0-3.5-3.5h-16.051l-33.974-33.974a3.5003 3.5003 0 0 0-2.4746-1.0254zm0 8.449 30.051 30.051-30.051 30.051-30.051-30.051zm0 16.051a14 14 0 0 0-14 14 14 14 0 0 0 14 14 14 14 0 0 0 14-14 14 14 0 0 0-14-14zm0 7a7 7 0 0 1 7 7 7 7 0 0 1-7 7 7 7 0 0 1-7-7 7 7 0 0 1 7-7zm-35 21a3.5 3.5 0 0 0-2.4746 1.0254 3.5 3.5 0 0 0 0 4.9492l37.474 37.474 37.474-37.474a3.5 3.5 0 0 0 0-4.9492 3.5 3.5 0 0 0-4.9492 0l-32.525 32.525-32.525-32.525a3.5 3.5 0 0 0-2.4746-1.0254z"
     fill="#df7320"
     id="path2" />
  <circle
     style="fill:none;fill-rule:evenodd;stroke:#df7320;stroke-width:1.5;stroke-miterlimit:4;stroke-dasharray:none;stroke-opacity:1"
     id="path387"
     cx="63.755844"
     cy="63.755844"
     r="63.005844"
     inkscape:export-xdpi="42.91"
     inkscape:export-ydpi="42.91" />
</svg>
