<?xml version="1.0" encoding="UTF-8"?>
<svg width="180" height="80" version="1.1" viewBox="0 0 180 80" xmlns="http://www.w3.org/2000/svg">
 <g transform="matrix(.21094 0 0 .20867 -.10704 21.095)" fill="#fff">
  <path id="Geeko" d="m281.36 27.426c-3.3113-0.11926-6.4507 1.0506-8.85 3.3008-2.3993 2.2502-3.8146 5.2984-3.9146 8.5992-0.22975 6.8208 5.1107 12.559 11.916 12.81 3.3095 0.09997 6.4647-1.0699 8.878-3.3201 2.4098-2.2607 3.7954-5.3107 3.9006-8.5992 0.22976-6.819-5.109-12.549-11.93-12.791zm2.0204 13.512c-3.0307 0-5.479-1.6399-5.479-3.6498 0-2.0292 2.4484-3.6603 5.479-3.6603 3.0307 0 5.4861 1.6311 5.4861 3.6603-2e-3 2.0099-2.4572 3.6498-5.4861 3.6498zm27.153 15.799c0.80502-0.53142 1.3961-0.97164 1.6451-1.0699l0.26834-0.41917c-0.68049-4.2794-7.0593-25.029-11.884-30.019-1.3294-1.3592-2.394-2.6992-4.5495-3.9602-17.454-10.171-58.863-16.309-60.803-16.59l-0.32972 0.091201-0.12453 0.29991s-0.1596 8.5799-0.18415 9.5392c-4.2286-1.4206-34.972-11.351-63.791-12.351-24.44-0.85939-60.033-4.0198-107.2 24.98l-1.3943 0.86816c-22.19 13.841-37.51 30.91-45.518 50.739-2.5115 6.2402-5.8895 20.32-2.5413 33.569 1.4417 5.7912 4.1303 11.611 7.7556 16.819 8.194 11.77 21.944 19.58 36.749 20.899 20.904 1.8696 36.733-7.5188 42.363-25.099 3.8708-12.13 0-29.928-14.839-39.008-12.07-7.3908-25.049-5.7106-32.578-0.7296-6.5314 4.3303-10.23 11.06-10.165 18.451 0.15083 13.11 11.444 20.078 19.564 20.099 2.3589 0 4.7284-0.4104 7.3995-1.2803 0.95059-0.28939 1.8451-0.64893 2.8307-1.2593l0.30868-0.18065 0.19468-0.12978-0.06489 0.0386c1.8503-1.261 2.964-3.3113 2.964-5.5106 0-0.59982-0.08419-1.2084-0.25606-1.8205-0.95936-3.32-4.2391-5.3282-7.638-4.7091l-0.45951 0.10874-0.62087 0.18942-0.90148 0.31043c-1.8696 0.45951-3.2692 0.49985-3.5691 0.51037-0.95059-0.0614-5.6246-1.461-5.6246-6.5805v-0.0702c0-1.8801 0.75416-3.199 1.1698-3.9199 1.4539-2.28 5.4352-4.5179 10.814-4.0497 7.0593 0.61034 12.149 4.2303 15.52 11.06 3.1289 6.349 2.3098 14.159-2.1099 19.88-4.3899 5.6685-12.205 8.0783-22.598 6.9593-10.481-1.1593-19.34-7.1908-24.303-16.579-4.8564-9.1779-5.1213-20.059-0.68576-28.418 10.609-20.029 30.649-19.82 41.637-17.921 16.26 2.8202 34.758 17.819 41.319 35.139 1.0593 2.7606 1.5995 4.9494 2.0713 6.9505l0.70856 2.9903 18.37 8.9692 0.24028 0.18065 0.44548-0.0403 0.0807-0.52966c-0.11401-0.41041-0.38059-0.78924-0.80503-5.9298-0.34901-4.5618-1.0593-17.051 5.2282-23.24 2.4414-2.4186 6.1613-4.5776 9.099-5.2686 12.04-2.9412 26.159-0.91201 39.507 14.539 6.9102 7.98 10.279 11.619 11.97 13.249l0.58929 0.53142 0.69453 0.51914c0.55422 0.30166 22.954 10.621 22.954 10.621l0.46127-0.11049 9e-3 -0.47881c-0.14908-0.17012-14.199-18.328-11.698-33.279 1.9696-11.909 11.447-10.83 24.558-9.3498 4.2794 0.49985 9.1516 1.0593 14.196 1.1716 14.083 0.08945 29.254-2.5115 38.604-6.6015 6.049-2.629 9.9093-4.3794 12.328-6.5787 0.86991-0.72084 1.3207-1.8907 1.7907-3.1499l0.32972-0.83133c0.39112-1.0207 0.96638-3.171 1.2189-4.3496 0.10172-0.51914 0.16135-1.0681-0.20871-1.3592l-1.2944 0.24028c-4.1058 2.4712-14.369 7.1505-23.965 7.3504-11.914 0.24027-35.898-11.981-38.399-13.28l-0.24028-0.27886c-0.5893-1.4399-4.19-9.9496-4.9599-11.749 17.27 11.379 31.594 17.668 42.559 18.638 12.207 1.0874 21.722-5.5738 25.785-8.422zm-47.347-17.439c0.17538-4.7302 2.1555-9.1201 5.6141-12.34 3.4604-3.2306 7.9748-4.9003 12.708-4.7494 9.7602 0.34902 17.43 8.5886 17.095 18.338-0.18416 4.7302-2.1643 9.1201-5.6141 12.33-3.4604 3.2499-7.9643 4.9196-12.719 4.76-9.7497-0.35954-17.411-8.5799-17.084-18.338z"/>
  <path d="m134.49 141.73c-7.7836 0-12.065 6.5805-12.065 11.13v5.8403c0 6.6997 5.4738 10.851 10.549 10.851h17.819c2.2449 0 2.715 1.4697 2.715 2.7097v3.769c0 0.39988-0.0807 4.0198-2.715 4.0198h-24.303c-2.4151 0-4.1602 1.6802-4.1602 3.9795v1.0418c0 2.2905 1.7451 3.9602 4.1602 3.9602h25.624c6.698 0 11.019-4.66 11.019-11.879v-6.3016c0-6.7787-4.8705-9.8093-9.7058-9.8093h-17.533c-2.6396 0-3.8357-1.9801-3.8357-3.3797v-3.4796c0-2.1906 1.4645-3.4604 4.0251-3.4604h19.408c2.38 0 4.1707-1.71 4.1707-3.9707v-1.04c0-2.2695-1.8205-3.9813-4.2514-3.9813z"/>
  <path d="m207.35 141.73c-2.3011 0-4.1549 1.8696-4.1549 4.1707v29.838c0 2.3905-1.9503 4.311-4.311 4.311h-13.545c-2.3695 0-4.3092-1.9205-4.3092-4.311v-29.838c0-2.3011-1.8696-4.1707-4.1689-4.1707h-1.3101c-2.3344 0-4.1707 1.8416-4.1707 4.1707v30.968c0 7.2101 5.6737 12.44 13.489 12.44h14.485c7.8047 0 13.475-5.2282 13.475-12.44v-30.968c0-2.3291-1.8293-4.1707-4.1602-4.1707z"/>
  <path d="m233.28 141.73c-7.7801 0-12.074 6.5805-12.074 11.13v5.8403c0 6.6997 5.4843 10.851 10.563 10.851h17.814c2.2484 0 2.7202 1.4697 2.7202 2.7097v3.769c0 0.39988-0.0807 4.0198-2.7202 4.0198h-24.314c-2.4045 0-4.1602 1.6802-4.1602 3.9795v1.0418c0 2.2905 1.7556 3.9602 4.1602 3.9602h25.633c6.6997 0 11.041-4.66 11.041-11.879v-6.3016c0-6.7787-4.8845-9.8093-9.7199-9.8093h-17.533c-2.6466 0-3.8392-1.9801-3.8392-3.3797v-3.4796c0-2.1906 1.4645-3.4604 4.0251-3.4604h19.419c2.3747 0 4.1584-1.71 4.1584-3.9707v-1.04c0-2.2695-1.8188-3.9813-4.2601-3.9813z"/>
  <path d="m274.25 141.73c-2.3098 0-4.0549 1.7118-4.0549 3.9813v39.358c0 2.259 1.7048 3.9602 3.9637 3.9602h31.364c2.4151 0 4.1602-1.6697 4.1602-3.9602v-1.0418c0-2.2993-1.7451-3.9795-4.1602-3.9795h-25.687v-10.02h18.822c2.4098 0 4.1602-1.6907 4.1602-3.9813v-1.04c0-2.3011-1.7504-3.9707-4.1602-3.9707h-18.822v-10.32h24.382c2.4063 0 4.1602-1.6591 4.1602-3.9707v-1.04c0-2.3011-1.7539-3.9812-4.1602-3.9812h-29.968z"/>
  <g transform="matrix(1.7539 0 0 1.7539 -853.95 -548.75)">
   <path d="m491.25 404.37c-2.241 0-4.065 1.744-4.065 3.894v8.461c0 2.184 1.765 3.963 3.929 3.963h5.473c2.164 0 3.929-1.779 3.929-3.963v-8.461c0-2.149-1.825-3.894-4.065-3.894zm-1.184 12.019v-7.726c0-0.906 0.744-1.647 1.654-1.647h4.264c0.89 0 1.648 0.758 1.648 1.647v7.726c0 0.912-0.738 1.653-1.648 1.653h-4.296c-0.912 0-1.622-0.725-1.622-1.653z"/>
   <path d="m512.91 404.27c-1.578 0-2.768 0.564-3.723 1.026-0.582 0.279-1.086 0.52-1.477 0.52-0.177 0-0.328-0.08-0.408-0.211l-0.364-0.696c-0.091-0.183-0.456-0.541-0.907-0.541h-0.541c-0.52 0-0.936 0.467-0.936 1.037v21.461c0 0.673 0.531 1.203 1.203 1.203h0.468c0.667 0 1.209-0.536 1.209-1.203v-7.121c0-0.211 0.137-0.439 0.276-0.439 0.391 0 0.895 0.229 1.477 0.496 0.955 0.439 2.145 0.98 3.723 0.98h0.505c2.794 0 4.532-1.597 4.532-4.162v-8.192c0-2.526-1.775-4.157-4.532-4.157h-0.505zm-5.475 11.952v-7.39c0-1.021 0.798-1.818 1.818-1.818h3.997c1.021 0 1.818 0.798 1.818 1.818v7.39c0 1.003-0.818 1.818-1.818 1.818h-3.997c-1.001 0-1.818-0.815-1.818-1.818z"/>
   <path d="m526.04 404.37c-2.241 0-4.06 1.744-4.06 3.894v8.398c0 2.178 1.768 4.025 3.854 4.025h5.647c0.698 0 1.203-0.484 1.203-1.141v-0.37c0-0.661-0.505-1.135-1.203-1.135h-4.639c-1.3 0-1.986-0.639-1.986-1.854v-2.457h8.369c1.346 0 2.142-0.821 2.142-2.212v-3.256c0-2.149-1.822-3.894-4.054-3.894h-5.273zm-1.183 4.265c0-0.907 0.713-1.619 1.621-1.619h4.396c0.906 0 1.613 0.712 1.613 1.619v2.622h-7.631c1e-3 -0.342 1e-3 -2.622 1e-3 -2.622z"/>
   <path d="m547 404.27c-1.573 0-2.76 0.564-3.718 1.021-0.596 0.28-1.105 0.525-1.521 0.525-0.183 0-0.257-0.023-0.399-0.269l-0.331-0.604c-0.19-0.382-0.513-0.575-0.949-0.575h-0.465c-0.562 0-0.972 0.438-0.972 1.037v14.077c0 0.667 0.527 1.203 1.206 1.203h0.465c0.667 0 1.211-0.542 1.211-1.203v-10.65c0-0.998 0.815-1.818 1.813-1.818h3.999c1.001 0 1.816 0.82 1.816 1.818v10.65c0 0.667 0.53 1.203 1.203 1.203h0.47c0.667 0 1.209-0.542 1.209-1.203v-11.055c0-2.526-1.776-4.157-4.535-4.157z"/>
   <path d="m667.46 415.23c1.218 0 2.188 0.99 2.188 2.229 0 1.257-0.971 2.237-2.198 2.237-1.218 0-2.208-0.98-2.208-2.237 0-1.238 0.99-2.229 2.208-2.229zm-0.01 0.346c-0.98 0-1.782 0.842-1.782 1.882 0 1.06 0.802 1.891 1.792 1.891 0.99 0.011 1.782-0.831 1.782-1.881s-0.792-1.892-1.782-1.892zm-0.416 3.179h-0.396v-2.485c0.208-0.03 0.406-0.06 0.703-0.06 0.377 0 0.624 0.079 0.772 0.188 0.149 0.108 0.229 0.276 0.229 0.515 0 0.326-0.218 0.524-0.485 0.604v0.021c0.218 0.039 0.366 0.237 0.416 0.604 0.06 0.387 0.118 0.535 0.158 0.614h-0.416c-0.06-0.079-0.119-0.307-0.168-0.634-0.06-0.316-0.218-0.436-0.535-0.436h-0.277v1.069zm0-1.377h0.287c0.327 0 0.604-0.118 0.604-0.426 0-0.218-0.158-0.436-0.604-0.436-0.129 0-0.218 0.01-0.287 0.021z"/>
  </g>
 </g>
 <path d="m90.563 13.75-2e-6 56.25" stroke="#fff" stroke-width="1.125px"/>
 <path d="m144 20a1.0001 1.0001 0 0 0-0.70704 0.29296l-9.707 9.707h-4.586a1 1 0 0 0-1 1 1 1 0 0 0 1 1h4.586l9.707 9.707a1.0001 1.0001 0 0 0 1.4141 0l9.707-9.707h4.586a1 1 0 0 0 1-1 1 1 0 0 0-1-1h-4.586l-9.707-9.707a1.0001 1.0001 0 0 0-0.70704-0.29296zm0 2.414 8.586 8.586-8.586 8.586-8.586-8.586zm0 4.586a4 4 0 0 0-4 4 4 4 0 0 0 4 4 4 4 0 0 0 4-4 4 4 0 0 0-4-4zm0 2a2 2 0 0 1 2 2 2 2 0 0 1-2 2 2 2 0 0 1-2-2 2 2 0 0 1 2-2zm-10 6a1 1 0 0 0-0.70704 0.29296 1 1 0 0 0 0 1.4141l10.707 10.707 10.707-10.707a1 1 0 0 0 0-1.4141 1 1 0 0 0-1.4141 0l-9.293 9.293-9.293-9.293a1 1 0 0 0-0.70704-0.29296z" fill="#df7320"/>
 <path d="m155.34 52.355c-0.46933 0-0.80664 0.32363-0.80664 0.79297 0 0.484 0.33731 0.79102 0.80664 0.79102s0.80664-0.30701 0.80664-0.79102c0-0.46934-0.33731-0.79297-0.80664-0.79297zm-43.648 0.55859v9.6211h5.4258v-1.043h-4.209v-8.5781h-1.2168zm32.486 0v9.6211h1.0996v-5.2949c0-0.85067-0.08782-1.995-0.14648-2.8457h0.05859l0.76367 2.1855 1.8184 4.9863h0.80664l1.8184-4.9863 0.76367-2.1855h0.0586c-0.05867 0.85067-0.16211 1.995-0.16211 2.8457v5.2949h1.1445v-9.6211h-1.4824l-1.8184 5.1328c-0.23467 0.66-0.42549 1.3498-0.66016 2.0098h-0.05859c-0.23467-0.66-0.45479-1.3498-0.68946-2.0098l-1.8476-5.1328h-1.4668zm-22.982 2.3164c-1.628 0-3.1973 1.4219-3.1973 3.7539s1.5113 3.7266 3.418 3.7266c0.968 0 1.7297-0.33838 2.3457-0.73438l-0.42578-0.79102c-0.528 0.33733-1.0988 0.55664-1.7734 0.55664-1.364 0-2.289-0.96785-2.377-2.4785h4.8106c0.02933-0.176 0.04492-0.44012 0.04492-0.68945 0-2.0387-1.027-3.3438-2.8457-3.3438zm7.0703 0c-1.144 0-2.1427 0.49849-2.8027 0.92383l0.4707 0.83594c0.55733-0.38133 1.3037-0.76172 2.125-0.76172 1.1733 0 1.4668 0.87973 1.4668 1.7891-3.036 0.33733-4.3691 1.1133-4.3691 2.668 0 1.276 0.89402 2.0254 2.082 2.0254 0.89467 0 1.6867-0.47001 2.3613-1.0273h0.04296l0.10352 0.85156h0.99805v-4.3711c0-1.7747-0.73318-2.9336-2.4785-2.9336zm8.1387 0c-0.836 0-1.6281 0.45538-2.2734 0.99805h-0.04297l-0.10352-0.82227h-0.99609v10.135h1.2012v-2.4043l-0.0293-1.248c0.66 0.51333 1.3205 0.82227 1.9805 0.82227 1.628 0 3.0801-1.4237 3.0801-3.8438 0-2.2147-0.98307-3.6367-2.8164-3.6367zm24.832 0c-1.8333 0-3.4336 1.3632-3.4336 3.7539 0 2.3613 1.4518 3.7266 3.3438 3.7266 0.85067 0 1.6574-0.33816 2.3027-0.91016l-0.52734-0.80664c-0.44 0.396-1.0119 0.71875-1.6719 0.71875-1.3053 0-2.1992-1.1005-2.1992-2.7285 0-1.6427 0.93784-2.7559 2.2285-2.7559 0.572 0 1.0112 0.26419 1.4219 0.63086l0.61719-0.79297c-0.49867-0.45467-1.1434-0.83594-2.082-0.83594zm6.9512 0c-0.80667 0-1.5394 0.57213-2.0234 1.4668h-0.04492l-0.10157-1.291h-0.99804v7.1289h1.2031v-4.5762c0.484-1.2027 1.2014-1.6426 1.8027-1.6426 0.29333 0 0.45478 0.043854 0.68945 0.11719l0.23437-1.0566c-0.23466-0.10267-0.45371-0.14648-0.76171-0.14648zm4.5469 0c-1.7453 0-3.3008 1.3632-3.3008 3.7539 0 2.3613 1.5554 3.7266 3.3008 3.7266s3.2988-1.3652 3.2988-3.7266c0-2.3907-1.5535-3.7539-3.2988-3.7539zm-18.012 0.17578v7.1289h1.2031v-7.1289h-1.2031zm-33.498 0.77734c1.1147 0 1.7598 0.77751 1.7598 2.2148h-3.8125c0.14667-1.408 1.0554-2.2148 2.0527-2.2148zm51.51 0.044922c1.232 0 2.0527 1.1132 2.0527 2.7559 0 1.628-0.82074 2.7285-2.0527 2.7285-1.2173 0-2.0527-1.1005-2.0527-2.7285 0-1.6427 0.8354-2.7559 2.0527-2.7559zm-36.637 0.013672c1.3493 0 1.877 1.0557 1.877 2.625 0 1.76-0.86573 2.832-2.0391 2.832-0.46933 0-1.1008-0.20538-1.7461-0.74805v-3.7402c0.704-0.63067 1.3069-0.96875 1.9082-0.96875zm-6.5723 2.5664v1.9805c-0.68934 0.616-1.2462 0.95312-1.9356 0.95313-0.704 0-1.2617-0.33786-1.2617-1.1445 0-0.90934 0.82126-1.4957 3.1973-1.7891z" fill="#df7320"/>
</svg>
