<?xml version="1.0" encoding="UTF-8"?>
<svg width="236" height="44" fill="#ffffff" version="1.1" viewBox="0 0 236 44" xmlns="http://www.w3.org/2000/svg">
 <path d="m30.002 6a1.2501 1.2501 0 0 0-0.8838 0.3662l-12.134 12.134h-5.7325a1.25 1.25 0 0 0-1.25 1.25 1.25 1.25 0 0 0 1.25 1.25h5.7325l12.134 12.134a1.2501 1.2501 0 0 0 1.7676 0l12.134-12.134h5.7325a1.25 1.25 0 0 0 1.25-1.25 1.25 1.25 0 0 0-1.25-1.25h-5.7325l-12.134-12.134a1.2501 1.2501 0 0 0-0.8838-0.3662zm0 3.0175 10.732 10.732-10.732 10.732-10.732-10.732zm0 5.7325a5 5 0 0 0-5 5 5 5 0 0 0 5 5 5 5 0 0 0 5-5 5 5 0 0 0-5-5zm0 2.5a2.5 2.5 0 0 1 2.5 2.5 2.5 2.5 0 0 1-2.5 2.5 2.5 2.5 0 0 1-2.5-2.5 2.5 2.5 0 0 1 2.5-2.5zm-12.5 7.5a1.25 1.25 0 0 0-0.8838 0.3662 1.25 1.25 0 0 0 0 1.7676l13.384 13.384 13.384-13.384a1.25 1.25 0 0 0 0-1.7676 1.25 1.25 0 0 0-1.7676 0l-11.616 11.616-11.616-11.616a1.25 1.25 0 0 0-0.8838-0.3662z" color="#000000" stroke-linecap="round" stroke-width="2.5" style="-inkscape-stroke:none"/>
 <text x="59.922749" y="34.039444" fill="#ffffff" font-family="'Source Sans Pro'" font-size="37.333px" style="line-height:1.25" xml:space="preserve"><tspan x="59.922749" y="34.039444">Leap Micro</tspan></text>
</svg>
