<?xml version="1.0" encoding="UTF-8"?>
<svg width="16" height="16" version="1.1" viewBox="0 0 16 16" xmlns="http://www.w3.org/2000/svg">
 <path d="m8 2a0.50005 0.50005 0 0 0-0.35352 0.14648l-4.8535 4.8535h-2.293a0.5 0.5 0 0 0-0.5 0.5 0.5 0.5 0 0 0 0.5 0.5h2.293l4.8535 4.8535a0.50005 0.50005 0 0 0 0.70703 0l4.8535-4.8535h2.293a0.5 0.5 0 0 0 0.5-0.5 0.5 0.5 0 0 0-0.5-0.5h-2.293l-4.8535-4.8535a0.50005 0.50005 0 0 0-0.35352-0.14648zm0 1.207 4.293 4.293-4.293 4.293-4.293-4.293 4.293-4.293zm0 2.293a2 2 0 0 0-2 2 2 2 0 0 0 2 2 2 2 0 0 0 2-2 2 2 0 0 0-2-2zm0 1a1 1 0 0 1 1 1 1 1 0 0 1-1 1 1 1 0 0 1-1-1 1 1 0 0 1 1-1zm-5 3a0.5 0.5 0 0 0-0.35352 0.14648 0.5 0.5 0 0 0 0 0.70703l5.3535 5.3535 5.3535-5.3535a0.5 0.5 0 0 0 0-0.70703 0.5 0.5 0 0 0-0.70703 0l-4.6465 4.6465-4.6465-4.6465a0.5 0.5 0 0 0-0.35352-0.14648z" color="#000000" stroke-linecap="round" style="-inkscape-stroke:none"/>
</svg>
