<?xml version="1.0" encoding="UTF-8" standalone="no"?>
<svg
   width="128"
   height="128"
   version="1.1"
   viewBox="0 0 128 128"
   id="svg4"
   xmlns="http://www.w3.org/2000/svg"
   xmlns:svg="http://www.w3.org/2000/svg"
   xmlns:rdf="http://www.w3.org/1999/02/22-rdf-syntax-ns#"
   xmlns:cc="http://creativecommons.org/ns#"
   xmlns:dc="http://purl.org/dc/elements/1.1/">
  <metadata
     id="metadata10">
    <rdf:RDF>
      <cc:Work
         rdf:about="">
        <dc:format>image/svg+xml</dc:format>
        <dc:type
           rdf:resource="http://purl.org/dc/dcmitype/StillImage" />
        <dc:title />
      </cc:Work>
    </rdf:RDF>
  </metadata>
  <defs
     id="defs8" />
  <path
     style="fill:#ffffff;fill-opacity:1;stroke:#35b9ab;stroke-width:1.98451;stroke-linejoin:miter;stroke-miterlimit:4;stroke-dasharray:none;stroke-opacity:1"
     id="rect831-7"
     width="126.0155"
     height="126.0155"
     x="0.99225497"
     y="0.99225497"
     d="M 10.992255,0.99225497 H 117.00776 a 10,10 45 0 1 10,10.00000003 V 117.00776 a 10,10 135 0 1 -10,10 H 10.992255 a 10,10 45 0 1 -10.00000003,-10 V 10.992255 A 10,10 135 0 1 10.992255,0.99225497 Z" />
  <path
     id="path12"
     style="color:#000000;fill:#35b9ab;fill-rule:evenodd;stroke-width:0.874648;stroke-linecap:square;-inkscape-stroke:none"
     d="M 37.672859,8.0126865 C 21.304037,7.9734385 7.9734491,21.304015 8.0127033,37.672843 8.05194,54.041669 21.413464,67.401145 37.782235,67.440421 l 7.359374,0.01758 -0.01562,-0.0019 c 0.0052,1.2e-5 0.0066,-1.2e-5 0.01172,0 h 0.0019 c 6.688301,0.01521 12.52504,0.02866 15.369142,0.03515 0.0085,3.902924 0.03572,16.44918 0.05078,22.726562 0.03927,16.368787 13.398747,29.730317 29.767601,29.769497 16.368818,0.0392 29.699428,-13.29132 29.660168,-29.660149 -0.0392,-16.368831 -13.40072,-29.728349 -29.769544,-29.767578 -1.918605,-0.0046 -3.950398,-0.0088 -6.945312,-0.01562 -6.803227,-0.01549 -12.895755,-0.02881 -15.779297,-0.03516 -0.0085,-3.902927 -0.03573,-16.449194 -0.05078,-22.726563 C 67.403117,21.41341 54.041663,8.0519705 37.672835,8.0127085 Z m -0.01758,7.0019535 c 0.964718,0.0023 1.91286,0.0715 2.845703,0.189453 V 40.416984 H 15.192391 C 15.081249,39.511202 15.016901,38.590933 15.014654,37.655265 14.984478,25.069454 25.069466,14.984462 37.655281,15.01464 Z m 9.847658,2.248046 c 7.643552,3.676218 12.915785,11.479164 12.937501,20.535158 0.01503,6.266714 0.04203,18.76489 0.05078,22.693359 -3.928655,-0.0087 -16.424768,-0.03573 -22.691406,-0.05078 -9.088635,-0.0218 -16.914084,-5.333275 -20.574215,-13.021486 h 30.27734 z m 20.00586,50.246094 c 3.929849,0.0087 16.427126,0.03573 22.693359,0.05078 9.209161,0.02209 17.117314,5.476483 20.712894,13.330079 H 80.762703 V 110.85839 C 72.976978,107.23555 67.581544,99.359937 67.559578,90.200188 c -0.01503,-6.266647 -0.04203,-18.76275 -0.05078,-22.691407 z m 20.253906,20.378907 h 25.083987 c 0.088,0.807173 0.13668,1.626598 0.13867,2.457032 0.0302,12.585801 -10.05483,22.670811 -22.640625,22.640621 -0.873674,-0.002 -1.734232,-0.059 -2.582032,-0.15625 z" />
</svg>
