<?xml version="1.0" encoding="UTF-8"?>
<svg width="238" height="44" fill="#ffffff" preserveAspectRatio="xMidYMid" version="1.1" viewBox="0 0 238 44" xmlns="http://www.w3.org/2000/svg">
 <path d="m110.32 6.968v26.583h2.4649l0.26173-1.8672h0.11328c1.6054 1.456 3.5076 2.3165 5.1876 2.3165 4.1441 0 7.84-3.6231 7.84-9.8206 0-5.6001-2.4992-9.219-7.2033-9.219-2.016 0-4.0332 1.0831-5.6759 2.5391l0.0742-3.2852v-7.2463zm20.637 0v22.926c0 2.6507 0.93536 4.1056 3.2501 4.1056 0.82135 0 1.3433-0.1102 1.754-0.29688l-0.41016-2.3165c-0.33601 0.07466-0.48523 0.07422-0.6719 0.07422-0.44801 0-0.8594-0.37309-0.8594-1.3438v-23.149zm103.52 0v6.9846l0.14841 3.0977c-1.6054-1.3067-2.9836-2.0899-5.0744-2.0899-4.1441 0-7.8791 3.6561-7.8791 9.5549 0 6.0482 2.9493 9.4846 7.5041 9.4846 2.128 0 4.0697-1.1929 5.4884-2.5743h0.1132l0.25783 2.1251h2.5391v-26.583zm-195.67 2.0938v2.6133h7.3908v21.876h3.1368v-21.876h7.3947v-2.6133zm49.138 5.8986c-2.1654 0-4.0688 1.3413-5.6369 3.0587h-0.10938l-0.26172-2.6133h-2.5391v18.145h3.0587v-13.141c1.68-1.8667 3.2108-2.8009 4.5548-2.8009 2.3147 0 3.3985 1.4582 3.3985 4.8556v11.086h3.0626v-13.141c1.68-1.8667 3.1361-2.8009 4.5548-2.8009 2.2774 0 3.3595 1.4582 3.3595 4.8556v11.086h3.0626v-11.496c0-4.6295-1.7941-7.0939-5.5275-7.0939-2.2027 0-4.0688 1.4194-5.9728 3.4727-0.74668-2.1654-2.2413-3.4727-5.004-3.4727zm59.353 0c-4.1441 0-8.1408 3.6188-8.1408 9.5549 0 5.9362 3.846 9.4846 8.6994 9.4846 2.4641 0 4.4048-0.85921 5.9728-1.8672l-1.0821-2.0157c-1.344 0.85869-2.7984 1.418-4.5157 1.418-3.4721 0-5.823-2.4633-6.047-6.3088h12.242c0.0746-0.44801 0.1132-1.1193 0.1132-1.754 0-5.1895-2.6129-8.5119-7.2424-8.5119zm45.427 0c-4.1441 0-8.1369 3.6188-8.1369 9.5549 0 5.9362 3.846 9.4846 8.6994 9.4846 2.4641 0 4.4048-0.85921 5.9728-1.8672l-1.0821-2.0157c-1.344 0.85869-2.8023 1.418-4.5196 1.418-3.4721 0-5.823-2.4633-6.047-6.3088h12.246c0.0746-0.44801 0.1094-1.1193 0.1094-1.754 0-5.1895-2.6129-8.5119-7.2424-8.5119zm18.524 0c-4.1441 0-8.1408 3.6188-8.1408 9.5549 0 5.9362 3.846 9.4846 8.6994 9.4846 2.4641 0 4.4048-0.85921 5.9728-1.8672l-1.0821-2.0157c-1.344 0.85869-2.8023 1.418-4.5197 1.418-3.4721 0-5.823-2.4633-6.047-6.3088h12.246c0.0746-0.44801 0.1132-1.1193 0.1132-1.754 0-5.1895-2.6129-8.5119-7.2424-8.5119zm-152.46 0.44532v11.5c0 4.6295 1.7172 7.0939 5.5626 7.0939 2.5014 0 4.2928-1.3065 5.9728-3.2852h0.11328l0.26173 2.836h2.5391v-18.145h-3.0626v12.883c-1.7174 2.1281-3.024 3.0587-4.8908 3.0587-2.3894 0-3.3985-1.4543-3.3985-4.8517v-11.09zm98.284 0 5.0431 18.145h3.5821l2.5391-9.7073c0.48536-1.7174 0.85891-3.4325 1.2696-5.2619h0.1484c0.44801 1.8294 0.7864 3.5093 1.2344 5.2267l2.6134 9.7424h3.7306l4.8556-18.145h-2.9141l-2.6485 10.492c-0.37335 1.7174-0.71046 3.3591-1.1211 5.0392h-0.1484c-0.41068-1.68-0.82157-3.3218-1.2696-5.0392l-2.836-10.492h-2.9884l-2.8008 10.492c-0.44801 1.68-0.81982 3.3591-1.2305 5.0392h-0.14841c-0.336-1.68-0.67527-3.3218-1.086-5.0392l-2.6876-10.492zm-9.7034 1.9805c2.8374 0 4.4806 1.9781 4.4806 5.6369h-9.7073c0.37334-3.5841 2.688-5.6369 5.2267-5.6369zm45.427 0c2.8374 0 4.4806 1.9781 4.4806 5.6369h-9.7073c0.37335-3.5841 2.688-5.6369 5.2267-5.6369zm18.524 0c2.8374 0 4.4806 1.9781 4.4806 5.6369h-9.7073c0.37333-3.5841 2.688-5.6369 5.2267-5.6369zm-93.092 0.14844c3.4348 0 4.7775 2.689 4.7775 6.6838 0 4.4801-2.2048 7.2072-5.1915 7.2072-1.1947 0-2.8361-0.52493-4.4415-1.9063v-9.5198c1.7174-1.6054 3.3249-2.4649 4.8556-2.4649zm111.83 0c1.4934 0 2.8757 0.52493 4.4064 1.9063v9.4807c-1.4934 1.68-2.949 2.504-4.629 2.504-3.1734 0-5.004-2.6147-5.004-6.9455 0-4.1441 2.3146-6.9455 5.2267-6.9455z"/>
 <path d="m7.7608 7.3304c-4.0476-0.00969-7.3439 3.2866-7.3342 7.3342 0.0096 4.0476 3.3136 7.351 7.3612 7.3607l1.8198 0.0043-0.0039-5.07e-4c0.0013 4e-6 0.0016-5e-6 0.0029 0h4.59e-4c1.6538 0.0037 3.0971 0.0072 3.8004 0.0087 0.0021 0.96509 0.0088 4.0674 0.01255 5.6197 0.0096 4.0476 3.3132 7.3515 7.3607 7.3612 4.0476 0.0096 7.3439-3.2866 7.3342-7.3342-0.0097-4.0476-3.3136-7.351-7.3612-7.3607-0.47442-0.0012-0.97683-0.0022-1.7174-0.0039-1.6823-0.0038-3.1888-0.0072-3.9018-0.0087-2e-3 -0.96509-0.0088-4.0674-0.01256-5.6197-0.0096-4.0476-3.3136-7.3515-7.3612-7.3612zm-0.0043 1.7314c0.23855 5.089e-4 0.473 0.017674 0.70367 0.046858v6.2345h-6.2581c-0.02747-0.22398-0.04339-0.45153-0.04395-0.6829-0.0075-3.1121 2.4863-5.6059 5.5984-5.5984zm2.4351 0.55588c1.89 0.90903 3.1937 2.8385 3.1991 5.0778 0.0037 1.5496 0.0104 4.6401 0.01255 5.6115-0.97145-0.0022-4.0614-0.0088-5.611-0.01256-2.2474-0.0054-4.1824-1.3188-5.0875-3.2199h7.4868zm4.9469 12.425c0.97174 0.0022 4.062 0.0088 5.6115 0.01256 2.2772 0.0055 4.2327 1.3542 5.1217 3.2962h-7.4559v7.4105c-1.9252-0.89583-3.2593-2.8433-3.2648-5.1082-0.0037-1.5496-0.0104-4.6395-0.01256-5.611zm5.0082 5.0392h6.2026c0.02176 0.19959 0.0338 0.40221 0.03429 0.60756 0.0075 3.1121-2.4863 5.6059-5.5984 5.5984-0.21604-4.2e-4 -0.42883-0.0146-0.63847-0.03865z" color="#000000" fill="#fff" fill-rule="evenodd" stroke-linecap="square" stroke-width=".87465" style="-inkscape-stroke:none"/>
</svg>
