<?xml version="1.0" encoding="UTF-8" standalone="no"?>
<svg
   id="svg8"
   version="1.1"
   viewBox="0 0 180 80"
   preserveAspectRatio="xMidYMid"
   height="80"
   width="180"
   xmlns="http://www.w3.org/2000/svg"
   xmlns:svg="http://www.w3.org/2000/svg"
   xmlns:rdf="http://www.w3.org/1999/02/22-rdf-syntax-ns#"
   xmlns:cc="http://creativecommons.org/ns#"
   xmlns:dc="http://purl.org/dc/elements/1.1/">
  <defs
     id="defs2" />
  <metadata
     id="metadata5">
    <rdf:RDF>
      <cc:Work
         rdf:about="">
        <dc:format>image/svg+xml</dc:format>
        <dc:type
           rdf:resource="http://purl.org/dc/dcmitype/StillImage" />
      </cc:Work>
    </rdf:RDF>
  </metadata>
  <g
     transform="translate(0,-1042.5197)"
     id="layer1">
    <g
       transform="matrix(0.21093748,0,0,0.20866795,-0.10703504,1063.6144)"
       id="g887">
      <path
         id="Geeko"
         style="fill:#ffffff"
         d="m 281.36486,27.426451 c -3.31129,-0.119262 -6.45069,1.050561 -8.84997,3.300759 -2.39927,2.250199 -3.81464,5.298403 -3.91461,8.599162 -0.22975,6.820751 5.11074,12.559372 11.91571,12.810173 3.30953,0.09997 6.46472,-1.069853 8.87802,-3.320051 2.4098,-2.260722 3.79535,-5.31068 3.90058,-8.599162 0.22976,-6.818997 -5.10898,-12.548849 -11.92973,-12.790881 z m 2.02044,13.511716 c -3.03067,0 -5.47905,-1.639856 -5.47905,-3.649777 0,-2.029213 2.44838,-3.6603 5.47905,-3.6603 3.03066,0 5.48606,1.631087 5.48606,3.6603 -0.002,2.009921 -2.45715,3.649777 -5.48606,3.649777 z m 27.15322,15.798746 c 0.80502,-0.531419 1.39607,-0.971637 1.64511,-1.069853 l 0.26834,-0.419172 c -0.68049,-4.279412 -7.05927,-25.029296 -11.88413,-30.01902 -1.32943,-1.359239 -2.39402,-2.699186 -4.54951,-3.960209 C 278.56395,11.098041 237.15538,4.9595405 235.21561,4.6789233 l -0.32972,0.091201 -0.12453,0.2999096 c 0,0 -0.1596,8.5798691 -0.18415,9.5392291 -4.22855,-1.420625 -34.97192,-11.3509636 -63.7913,-12.3506622 -24.44,-0.85939 -60.03277,-4.0198407 -107.195749,24.9801872 l -1.394316,0.86816 C 40.006043,41.948389 24.686101,59.016927 16.677989,78.846037 c -2.511524,6.240224 -5.889453,20.320189 -2.541339,33.568823 1.44167,5.79124 4.130333,11.61054 7.755556,16.81949 8.194021,11.77014 21.944262,19.58007 36.74857,20.89897 20.904224,1.86961 36.732785,-7.51879 42.362664,-25.09945 3.87077,-12.12968 0,-29.927823 -14.839383,-39.007542 C 74.094012,78.635574 61.115469,80.315769 53.58616,85.296723 47.054795,89.626997 43.355911,96.356547 43.420803,103.7473 c 0.150832,13.11008 11.443919,20.07816 19.564277,20.0992 2.358938,0 4.728399,-0.4104 7.399524,-1.28031 0.950591,-0.28939 1.845058,-0.64893 2.830725,-1.25927 l 0.308679,-0.18065 0.194679,-0.12978 -0.06489,0.0386 c 1.850319,-1.26102 2.964018,-3.31128 2.964018,-5.51062 0,-0.59982 -0.08419,-1.20841 -0.256063,-1.8205 -0.95936,-3.32005 -4.239073,-5.32822 -7.638048,-4.70911 l -0.45951,0.10874 -0.620866,0.18942 -0.901482,0.31043 c -1.869612,0.45951 -3.26919,0.49985 -3.5691,0.51037 -0.95059,-0.0614 -5.62462,-1.46096 -5.62462,-6.58047 v -0.0702 c 0,-1.88014 0.754159,-3.19904 1.169823,-3.919875 1.453947,-2.280014 5.435203,-4.517936 10.814283,-4.049656 7.059276,0.610342 12.148969,4.230304 15.519883,11.059821 3.128881,6.34897 2.30983,14.15889 -2.10989,19.87997 -4.389905,5.66847 -12.205093,8.07827 -22.59845,6.95931 -10.481051,-1.1593 -19.339784,-7.19082 -24.3032,-16.57921 -4.85643,-9.17794 -5.121263,-20.058868 -0.685758,-28.417751 10.609082,-20.029049 30.648655,-19.82034 41.63657,-17.920913 16.26001,2.820203 34.757943,17.819189 41.319123,35.138534 1.05933,2.76057 1.59951,4.94938 2.0713,6.95053 l 0.70856,2.99033 18.3699,8.96922 0.24028,0.18065 0.44548,-0.0403 0.0807,-0.52966 c -0.11401,-0.41041 -0.38059,-0.78924 -0.80503,-5.92979 -0.34901,-4.56179 -1.05932,-17.051 5.22825,-23.240366 2.44137,-2.418569 6.1613,-4.577567 9.09901,-5.268587 12.04023,-2.941218 26.15878,-0.912006 39.50739,14.539473 6.9102,7.98005 10.27936,11.61931 11.97008,13.24864 l 0.58929,0.53142 0.69453,0.51914 c 0.55422,0.30166 22.95448,10.62136 22.95448,10.62136 l 0.46127,-0.11049 0.009,-0.47881 c -0.14908,-0.17012 -14.19923,-18.3278 -11.69823,-33.279436 1.96958,-11.90869 11.44743,-10.830068 24.55751,-9.349813 4.27941,0.49985 9.15163,1.05933 14.19572,1.171577 14.08347,0.08945 29.25434,-2.511524 38.60415,-6.601519 6.04905,-2.629032 9.90929,-4.379381 12.32786,-6.578718 0.86991,-0.720835 1.32066,-1.890658 1.79069,-3.149928 l 0.32972,-0.831328 c 0.39112,-1.020745 0.96638,-3.170974 1.21894,-4.349566 0.10172,-0.519141 0.16135,-1.068099 -0.20871,-1.359239 l -1.29435,0.240278 c -4.10578,2.471185 -14.36935,7.150476 -23.9647,7.350416 -11.91421,0.240268 -35.8982,-11.980609 -38.3992,-13.280217 l -0.24028,-0.278863 c -0.5893,-1.439917 -4.18997,-9.949632 -4.95991,-11.749089 17.27023,11.379025 31.59398,17.668357 42.5591,18.63824 12.20684,1.087391 21.72152,-5.573758 25.78521,-8.422022 z M 263.19139,39.298311 c 0.17538,-4.730153 2.15549,-9.120058 5.61409,-12.34014 3.46036,-3.230605 7.97479,-4.900277 12.70845,-4.749445 9.76022,0.349018 17.42984,8.588639 17.09485,18.338331 -0.18416,4.730153 -2.16426,9.120057 -5.6141,12.329616 -3.46036,3.249897 -7.96426,4.919569 -12.71897,4.759968 -9.74969,-0.35954 -17.41054,-8.579869 -17.08432,-18.33833 z" />
      <path
         style="fill:#ffffff"
         d="m 134.48633,141.73234 c -7.78362,0 -12.06478,6.58047 -12.06478,11.12998 v 5.84034 c 0,6.69974 5.47379,10.85112 10.54945,10.85112 h 17.81919 c 2.24493,0 2.71497,1.46973 2.71497,2.70971 v 3.76904 c 0,0.39988 -0.0807,4.01984 -2.71497,4.01984 h -24.3032 c -2.41506,0 -4.16015,1.68019 -4.16015,3.9795 v 1.04179 c 0,2.29054 1.74509,3.96021 4.16015,3.96021 h 25.62385 c 6.69798,0 11.01949,-4.66 11.01949,-11.87888 v -6.3016 c 0,-6.77866 -4.87046,-9.80933 -9.70585,-9.80933 h -17.53331 c -2.63955,0 -3.83569,-1.9801 -3.83569,-3.37968 v -3.47965 c 0,-2.19057 1.46448,-3.46036 4.02511,-3.46036 h 19.40818 c 2.37998,0 4.17067,-1.71001 4.17067,-3.97074 v -1.04003 c 0,-2.2695 -1.8205,-3.98126 -4.25135,-3.98126 z"
         id="path865" />
      <path
         style="fill:#ffffff"
         d="m 207.34857,141.73234 c -2.30106,0 -4.15488,1.86961 -4.15488,4.17067 v 29.83838 c 0,2.3905 -1.95029,4.31098 -4.31098,4.31098 h -13.54504 c -2.36946,0 -4.30923,-1.92048 -4.30923,-4.31098 v -29.83838 c 0,-2.30106 -1.86961,-4.17067 -4.16892,-4.17067 h -1.31013 c -2.33438,0 -4.17067,1.84155 -4.17067,4.17067 v 30.96786 c 0,7.21011 5.67373,12.44011 13.48891,12.44011 h 14.48511 c 7.80466,0 13.47488,-5.22825 13.47488,-12.44011 v -30.96786 c 0,-2.32912 -1.82927,-4.17067 -4.16015,-4.17067 z"
         id="path867" />
      <path
         style="fill:#ffffff"
         d="m 233.28111,141.73234 c -7.78011,0 -12.07356,6.58047 -12.07356,11.12998 v 5.84034 c 0,6.69974 5.48432,10.85112 10.56349,10.85112 h 17.81392 c 2.24845,0 2.72024,1.46973 2.72024,2.70971 v 3.76904 c 0,0.39988 -0.0807,4.01984 -2.72024,4.01984 h -24.31372 c -2.40454,0 -4.16015,1.68019 -4.16015,3.9795 v 1.04179 c 0,2.29054 1.75561,3.96021 4.16015,3.96021 h 25.63262 c 6.69974,0 11.04054,-4.66 11.04054,-11.87888 v -6.3016 c 0,-6.77866 -4.8845,-9.80933 -9.71988,-9.80933 h -17.53331 c -2.64657,0 -3.8392,-1.9801 -3.8392,-3.37968 v -3.47965 c 0,-2.19057 1.46448,-3.46036 4.02511,-3.46036 h 19.4187 c 2.37473,0 4.1584,-1.71001 4.1584,-3.97074 v -1.04003 c 0,-2.2695 -1.81875,-3.98126 -4.26012,-3.98126 z"
         id="path869" />
      <path
         style="fill:#ffffff"
         d="m 274.24595,141.73234 c -2.30983,0 -4.05492,1.71176 -4.05492,3.98126 v 39.35831 c 0,2.25896 1.70475,3.96021 3.96372,3.96021 h 31.36423 c 2.41506,0 4.16015,-1.66968 4.16015,-3.96021 v -1.0418 c 0,-2.2993 -1.74509,-3.9795 -4.16015,-3.9795 0,0 -24.53296,0 -25.687,0 0,-1.02074 0,-9.01132 0,-10.01978 1.14352,0 18.8224,0 18.8224,0 2.4098,0 4.16015,-1.69072 4.16015,-3.98126 v -1.04004 c 0,-2.30106 -1.75035,-3.97073 -4.16015,-3.97073 0,0 -17.67888,0 -18.8224,0 0,-1.02951 0,-9.29018 0,-10.3197 1.14352,0 24.38213,0 24.38213,0 2.40629,0 4.16015,-1.65914 4.16015,-3.97073 v -1.04004 c 0,-2.30106 -1.75386,-3.98125 -4.16015,-3.98125 h -29.96816 z"
         id="path871" />
      <g
         style="fill:#ffffff"
         transform="matrix(1.7538572,0,0,1.7538572,-853.95251,-548.75247)"
         id="g881">
        <path
           style="fill:#ffffff"
           d="m 491.254,404.369 c -2.241,0 -4.065,1.744 -4.065,3.894 v 8.461 c 0,2.184 1.765,3.963 3.929,3.963 h 5.473 c 2.164,0 3.929,-1.779 3.929,-3.963 v -8.461 c 0,-2.149 -1.825,-3.894 -4.065,-3.894 z m -1.184,12.019 v -7.726 c 0,-0.906 0.744,-1.647 1.654,-1.647 h 4.264 c 0.89,0 1.648,0.758 1.648,1.647 v 7.726 c 0,0.912 -0.738,1.653 -1.648,1.653 h -4.296 c -0.912,0 -1.622,-0.725 -1.622,-1.653 z"
           id="path873" />
        <path
           style="fill:#ffffff"
           d="m 512.91,404.271 c -1.578,0 -2.768,0.564 -3.723,1.026 -0.582,0.279 -1.086,0.52 -1.477,0.52 -0.177,0 -0.328,-0.08 -0.408,-0.211 l -0.364,-0.696 c -0.091,-0.183 -0.456,-0.541 -0.907,-0.541 h -0.541 c -0.52,0 -0.936,0.467 -0.936,1.037 v 21.461 c 0,0.673 0.531,1.203 1.203,1.203 h 0.468 c 0.667,0 1.209,-0.536 1.209,-1.203 v -7.121 c 0,-0.211 0.137,-0.439 0.276,-0.439 0.391,0 0.895,0.229 1.477,0.496 0.955,0.439 2.145,0.98 3.723,0.98 h 0.505 c 2.794,0 4.532,-1.597 4.532,-4.162 v -8.192 c 0,-2.526 -1.775,-4.157 -4.532,-4.157 h -0.505 z m -5.475,11.952 v -7.39 c 0,-1.021 0.798,-1.818 1.818,-1.818 h 3.997 c 1.021,0 1.818,0.798 1.818,1.818 v 7.39 c 0,1.003 -0.818,1.818 -1.818,1.818 h -3.997 c -1.001,0 -1.818,-0.815 -1.818,-1.818 z"
           id="path875" />
        <path
           style="fill:#ffffff"
           d="m 526.044,404.369 c -2.241,0 -4.06,1.744 -4.06,3.894 v 8.398 c 0,2.178 1.768,4.025 3.854,4.025 h 5.647 c 0.698,0 1.203,-0.484 1.203,-1.141 v -0.37 c 0,-0.661 -0.505,-1.135 -1.203,-1.135 h -4.639 c -1.3,0 -1.986,-0.639 -1.986,-1.854 0,0 0,-2.115 0,-2.457 0.379,0 8.369,0 8.369,0 1.346,0 2.142,-0.821 2.142,-2.212 v -3.256 c 0,-2.149 -1.822,-3.894 -4.054,-3.894 h -5.273 z m -1.183,4.265 c 0,-0.907 0.713,-1.619 1.621,-1.619 h 4.396 c 0.906,0 1.613,0.712 1.613,1.619 0,0 0,2.28 0,2.622 -0.364,0 -7.258,0 -7.631,0 10e-4,-0.342 10e-4,-2.622 10e-4,-2.622 z"
           id="path877" />
        <path
           style="fill:#ffffff"
           d="m 546.997,404.271 c -1.573,0 -2.76,0.564 -3.718,1.021 -0.596,0.28 -1.105,0.525 -1.521,0.525 -0.183,0 -0.257,-0.023 -0.399,-0.269 l -0.331,-0.604 c -0.19,-0.382 -0.513,-0.575 -0.949,-0.575 h -0.465 c -0.562,0 -0.972,0.438 -0.972,1.037 v 14.077 c 0,0.667 0.527,1.203 1.206,1.203 h 0.465 c 0.667,0 1.211,-0.542 1.211,-1.203 v -10.65 c 0,-0.998 0.815,-1.818 1.813,-1.818 h 3.999 c 1.001,0 1.816,0.82 1.816,1.818 v 10.65 c 0,0.667 0.53,1.203 1.203,1.203 h 0.47 c 0.667,0 1.209,-0.542 1.209,-1.203 v -11.055 c 0,-2.526 -1.776,-4.157 -4.535,-4.157 z"
           id="path879" />
      </g>
      <g
         style="fill:#ffffff"
         transform="matrix(1.7538572,0,0,1.7538572,-853.95251,-548.75247)"
         id="g885">
        <path
           style="fill:#ffffff"
           d="m 667.456,415.229 c 1.218,0 2.188,0.99 2.188,2.229 0,1.257 -0.971,2.237 -2.198,2.237 -1.218,0 -2.208,-0.98 -2.208,-2.237 0,-1.238 0.99,-2.229 2.208,-2.229 z m -0.01,0.346 c -0.98,0 -1.782,0.842 -1.782,1.882 0,1.06 0.802,1.891 1.792,1.891 0.99,0.011 1.782,-0.831 1.782,-1.881 0,-1.05 -0.792,-1.892 -1.782,-1.892 z m -0.416,3.179 h -0.396 v -2.485 c 0.208,-0.03 0.406,-0.06 0.703,-0.06 0.377,0 0.624,0.079 0.772,0.188 0.149,0.108 0.229,0.276 0.229,0.515 0,0.326 -0.218,0.524 -0.485,0.604 v 0.021 c 0.218,0.039 0.366,0.237 0.416,0.604 0.06,0.387 0.118,0.535 0.158,0.614 h -0.416 c -0.06,-0.079 -0.119,-0.307 -0.168,-0.634 -0.06,-0.316 -0.218,-0.436 -0.535,-0.436 h -0.277 v 1.069 z m 0,-1.377 h 0.287 c 0.327,0 0.604,-0.118 0.604,-0.426 0,-0.218 -0.158,-0.436 -0.604,-0.436 -0.129,0 -0.218,0.01 -0.287,0.021 z"
           id="path883" />
      </g>
    </g>
  </g>
  <path
     id="path910"
     d="m 84.9375,13.75 -2e-6,56.25"
     style="fill:none;stroke:#ffffff;stroke-width:1.12501px;stroke-linecap:butt;stroke-linejoin:miter;stroke-opacity:1" />
  <g
     id="layer2">
    <path
       id="path12"
       style="color:#000000;fill:#35b9ab;fill-rule:evenodd;stroke-width:0.87465;stroke-linecap:square;-inkscape-stroke:none"
       d="m 135.83421,16.365255 c -4.80578,-0.01151 -8.71954,3.902246 -8.70802,8.708027 0.012,4.805779 3.93437,8.728033 8.74014,8.739565 l 2.16066,0.0052 -0.005,-5.58e-4 c 9.9e-4,3e-6 0.002,-3e-6 0.002,0 h 5.5e-4 c 1.96365,0.0046 3.67728,0.0084 4.51229,0.01031 0.002,1.145871 0.0108,4.82937 0.015,6.672368 0.012,4.80577 3.93379,8.728626 8.73959,8.74013 4.80577,0.01151 8.71954,-3.902245 8.70802,-8.708026 -0.012,-4.805782 -3.93436,-8.728048 -8.74014,-8.739565 -0.56329,-0.0013 -1.15981,-0.0026 -2.0391,-0.0046 -1.99738,-0.0046 -3.7861,-0.0084 -4.6327,-0.01031 -0.002,-1.145874 -0.0108,-4.829374 -0.015,-6.67237 -0.012,-4.805781 -3.93435,-8.72861 -8.74013,-8.740137 z m -0.005,2.055727 c 0.28324,6.7e-4 0.56161,0.021 0.83548,0.05562 v 7.40234 h -7.43025 c -0.0326,-0.26593 -0.0516,-0.536116 -0.0522,-0.810822 -0.008,-3.695111 2.95203,-6.655998 6.64714,-6.647138 z m 2.89121,0.660012 c 2.2441,1.079313 3.79199,3.370207 3.79836,6.028988 0.005,1.839865 0.0122,5.509248 0.015,6.662621 -1.15343,-0.0025 -4.8222,-0.01055 -6.66204,-0.01491 -2.66838,-0.0064 -4.96587,-1.565813 -6.04048,-3.823022 h 8.88925 z m 5.87359,14.751923 c 1.15378,0.0025 4.82289,0.01043 6.66261,0.01491 2.70375,0.0065 5.02554,1.607858 6.08117,3.913623 h -8.85252 v 8.798627 c -2.28584,-1.063643 -3.8699,-3.37587 -3.87635,-6.065113 -0.005,-1.839845 -0.0122,-5.508619 -0.015,-6.662047 z m 5.94641,5.983112 h 7.3645 c 0.0259,0.236982 0.04,0.47756 0.0406,0.72137 0.008,3.695108 -2.95203,6.656 -6.64714,6.647138 -0.2565,-5.29e-4 -0.50916,-0.01734 -0.75806,-0.04587 z" />
    <path
       id="text927"
       d="m 129.58203,52.869145 v 10.587891 h 0.97461 l 0.10352,-0.744141 h 0.0449 c 0.63604,0.579941 1.39101,0.921875 2.05664,0.921875 1.64189,0 3.10547,-1.441688 3.10547,-3.910156 0,-2.230544 -0.98976,-3.673828 -2.85352,-3.673828 -0.79875,0 -1.59916,0.431777 -2.25,1.011718 l 0.0312,-1.308593 v -2.884766 z m 8.17578,0 v 9.130859 c 0,1.055791 0.36807,1.634766 1.28516,1.634766 0.32542,0 0.5326,-0.04479 0.69531,-0.119141 l -0.16211,-0.921875 c -0.13312,0.02974 -0.19166,0.0293 -0.26562,0.0293 -0.1775,0 -0.33985,-0.148529 -0.33985,-0.535156 v -9.21875 z m 41.01367,0 v 2.78125 l 0.0606,1.232422 c -0.63604,-0.52046 -1.18338,-0.832031 -2.01172,-0.832031 -1.64188,0 -3.12109,1.457135 -3.12109,3.80664 0,2.408987 1.16806,3.777344 2.97266,3.777344 0.84313,0 1.61174,-0.47519 2.17382,-1.025391 h 0.0449 l 0.10352,0.847657 H 180 V 52.869145 Z M 101.25,53.701176 v 1.041016 h 2.92969 v 8.714844 h 1.24219 v -8.714844 h 2.92773 v -1.041016 z m 19.46875,2.34961 c -0.85792,0 -1.61117,0.534716 -2.23242,1.21875 h -0.0449 l -0.10352,-1.041016 h -1.00586 v 7.228516 h 1.21289 v -5.234375 c 0.66563,-0.743515 1.27219,-1.115235 1.80469,-1.115235 0.91709,0 1.3457,0.578445 1.3457,1.931641 v 4.417969 h 1.21289 v -5.234375 c 0.66563,-0.743515 1.2426,-1.115235 1.80469,-1.115235 0.9023,0 1.33203,0.578445 1.33203,1.931641 v 4.417969 h 1.21289 v -4.580078 c 0,-1.843916 -0.71027,-2.826172 -2.18945,-2.826172 -0.87272,0 -1.61281,0.564946 -2.36719,1.382812 -0.29583,-0.862477 -0.88783,-1.382812 -1.98242,-1.382812 z m 23.51563,0 c -1.64189,0 -3.22461,1.442264 -3.22461,3.80664 0,2.364376 1.52238,3.777344 3.44531,3.777344 0.97625,0 1.74593,-0.342643 2.36719,-0.744141 l -0.42969,-0.802734 c -0.53251,0.342017 -1.10864,0.566406 -1.78906,0.566406 -1.37564,0 -2.30774,-0.982032 -2.39649,-2.513672 h 4.85156 c 0.0296,-0.178443 0.0449,-0.446423 0.0449,-0.699218 0,-2.06697 -1.03497,-3.390625 -2.86914,-3.390625 z m 17.99804,0 c -1.64188,0 -3.22461,1.442264 -3.22461,3.80664 0,2.364376 1.52434,3.777344 3.44727,3.777344 0.97625,0 1.74398,-0.342643 2.36523,-0.744141 l -0.42773,-0.802734 c -0.53251,0.342017 -1.1106,0.566406 -1.79102,0.566406 -1.37563,0 -2.30773,-0.982032 -2.39648,-2.513672 h 4.85156 c 0.0296,-0.178443 0.0449,-0.446423 0.0449,-0.699218 0,-2.06697 -1.03496,-3.390625 -2.86914,-3.390625 z m 7.33789,0 c -1.64188,0 -3.22461,1.442264 -3.22461,3.80664 0,2.364376 1.52434,3.777344 3.44727,3.777344 0.97626,0 1.74398,-0.342643 2.36523,-0.744141 l -0.42773,-0.802734 c -0.5325,0.342017 -1.1106,0.566406 -1.79102,0.566406 -1.37563,0 -2.30773,-0.982032 -2.39648,-2.513672 h 4.85351 c 0.0296,-0.178443 0.043,-0.446423 0.043,-0.699218 0,-2.06697 -1.03496,-3.390625 -2.86914,-3.390625 z m -60.40234,0.177734 v 4.580078 c 0,1.843916 0.67957,2.826172 2.20312,2.826172 0.99105,0 1.70156,-0.520468 2.36719,-1.308594 h 0.0449 l 0.10352,1.13086 h 1.00586 V 56.22852 h -1.21289 v 5.130859 c -0.68042,0.847607 -1.19791,1.21875 -1.9375,1.21875 -0.94668,0 -1.34766,-0.578444 -1.34766,-1.93164 V 56.22852 Z m 38.94141,0 1.99609,7.228516 h 1.41992 l 1.00586,-3.867188 c 0.19229,-0.684033 0.33924,-1.367059 0.50195,-2.095703 h 0.0606 c 0.1775,0.728644 0.31078,1.397998 0.48828,2.082031 l 1.03516,3.88086 h 1.47851 l 1.92383,-7.228516 h -1.1543 l -1.05078,4.179688 c -0.14791,0.684033 -0.28065,1.338649 -0.44336,2.007812 h -0.0586 c -0.16271,-0.669163 -0.32641,-1.323779 -0.50391,-2.007812 l -1.12304,-4.179688 h -1.1836 l -1.10937,4.179688 c -0.1775,0.669162 -0.32557,1.338649 -0.48828,2.007812 h -0.0586 c -0.13312,-0.669163 -0.26697,-1.323779 -0.42968,-2.007812 L 149.3516,56.22852 Z m -3.84571,0.789062 c 1.12418,0 1.77539,0.788806 1.77539,2.246094 h -3.8457 c 0.14792,-1.427547 1.06447,-2.246094 2.07031,-2.246094 z m 17.99805,0 c 1.12417,0 1.77539,0.788806 1.77539,2.246094 h -3.8457 c 0.14791,-1.427547 1.06447,-2.246094 2.07031,-2.246094 z m 7.33789,0 c 1.12417,0 1.77539,0.788806 1.77539,2.246094 h -3.8457 c 0.14791,-1.427547 1.06447,-2.246094 2.07031,-2.246094 z m -36.88281,0.05859 c 1.36084,0 1.89258,1.070989 1.89258,2.66211 0,1.784434 -0.87135,2.871093 -2.05469,2.871093 -0.47334,0 -1.12372,-0.209565 -1.75977,-0.759765 v -3.791016 c 0.68042,-0.639422 1.31541,-0.982422 1.92188,-0.982422 z m 44.31054,0 c 0.59167,0 1.13768,0.209565 1.74414,0.759766 v 3.777344 c -0.59167,0.669163 -1.16835,0.996093 -1.83398,0.996093 -1.2573,0 -1.98242,-1.040671 -1.98242,-2.765625 0,-1.650602 0.91851,-2.767578 2.07226,-2.767578 z"
       style="font-style:normal;font-weight:normal;font-size:44.4929px;line-height:1.25;font-family:sans-serif;letter-spacing:0px;word-spacing:0px;fill:#35b9ab;fill-opacity:1;stroke:none;stroke-width:1.11232" />
  </g>
</svg>
