<?xml version="1.0" encoding="UTF-8" standalone="no"?>
<svg
   style="fill:#ffffff"
   width="238"
   height="44"
   preserveAspectRatio="xMidYMid"
   viewBox="0 0 238 44"
   version="1.1"
   id="svg2"
   xmlns="http://www.w3.org/2000/svg"
   xmlns:svg="http://www.w3.org/2000/svg">
  <defs
     id="defs2" />
  <path
     d="m 110.31631,6.968 v 26.582719 h 2.46491 l 0.26173,-1.867237 h 0.11328 c 1.60538,1.456038 3.50759,2.316466 5.18763,2.316466 4.14411,0 7.84005,-3.623073 7.84005,-9.820565 0,-5.600145 -2.49919,-9.218989 -7.20331,-9.218989 -2.01605,0 -4.03322,1.08309 -5.67593,2.539128 l 0.0742,-3.285241 V 6.968 Z m 20.63725,0 v 22.926374 c 0,2.650735 0.93536,4.105574 3.25009,4.105574 0.82135,0 1.34327,-0.110203 1.75395,-0.296883 l -0.41016,-2.316466 c -0.33601,0.07466 -0.48523,0.07422 -0.6719,0.07422 -0.44801,0 -0.8594,-0.373094 -0.8594,-1.343785 V 6.968 Z m 103.52221,0 v 6.984555 l 0.14841,3.097737 c -1.60538,-1.306701 -2.98364,-2.089898 -5.07435,-2.089898 -4.14411,0 -7.87913,3.656115 -7.87913,9.554933 0,6.048157 2.94932,9.484621 7.50412,9.484621 2.12805,0 4.0697,-1.192916 5.48842,-2.574284 h 0.1132 l 0.25783,2.125055 h 2.53912 V 6.968 Z M 38.810562,9.061804 v 2.613349 h 7.390815 v 21.875566 h 3.136801 V 11.675153 h 7.394723 V 9.061804 Z m 49.137988,5.89859 c -2.16539,0 -4.06883,1.341295 -5.63687,3.058673 H 82.2023 l -0.26172,-2.613349 h -2.53913 v 18.145001 h 3.05868 V 20.409753 c 1.68004,-1.866714 3.21077,-2.800853 4.5548,-2.800853 2.31473,0 3.39853,1.458173 3.39853,4.855594 v 11.086225 h 3.06257 V 20.409753 c 1.68005,-1.866714 3.13611,-2.800853 4.55481,-2.800853 2.27739,0 3.35946,1.458173 3.35946,4.855594 v 11.086225 h 3.06258 V 22.054328 c 0,-4.629453 -1.79406,-7.093934 -5.52748,-7.093934 -2.20273,0 -4.06877,1.419359 -5.97282,3.472746 -0.74668,-2.165389 -2.24129,-3.472746 -5.00403,-3.472746 z m 59.35309,0 c -4.1441,0 -8.14083,3.618781 -8.14083,9.554933 0,5.936154 3.84598,9.484621 8.69944,9.484621 2.46406,0 4.40478,-0.85921 5.97282,-1.867236 L 152.751,30.117036 c -1.34403,0.858688 -2.79836,1.418005 -4.51574,1.418005 -3.47209,0 -5.82302,-2.463324 -6.04703,-6.308757 h 12.2425 c 0.0746,-0.448012 0.1132,-1.119269 0.1132,-1.753952 0,-5.189467 -2.61291,-8.511938 -7.24237,-8.511938 z m 45.42696,0 c -4.14411,0 -8.13693,3.618781 -8.13693,9.554933 0,5.936154 3.84598,9.484621 8.69944,9.484621 2.46406,0 4.40477,-0.85921 5.97282,-1.867236 l -1.08207,-2.015676 c -1.34404,0.858688 -2.80228,1.418005 -4.51964,1.418005 -3.47209,0 -5.82303,-2.463324 -6.04704,-6.308757 h 12.24642 c 0.0746,-0.448012 0.1094,-1.119269 0.1094,-1.753952 0,-5.189467 -2.6129,-8.511938 -7.24236,-8.511938 z m 18.52391,0 c -4.1441,0 -8.14083,3.618781 -8.14083,9.554933 0,5.936154 3.84598,9.484621 8.69945,9.484621 2.46406,0 4.40477,-0.85921 5.97281,-1.867236 l -1.08206,-2.015676 c -1.34404,0.858688 -2.80228,1.418005 -4.51966,1.418005 -3.47209,0 -5.82301,-2.463324 -6.04702,-6.308757 h 12.2464 c 0.0746,-0.448012 0.1132,-1.119269 0.1132,-1.753952 0,-5.189467 -2.61291,-8.511938 -7.24237,-8.511938 z M 58.795454,15.405718 v 11.500297 c 0,4.629454 1.717208,7.093933 5.562648,7.093933 2.50139,0 4.29276,-1.306523 5.97281,-3.285241 h 0.11328 l 0.26173,2.836012 h 2.53912 V 15.405718 h -3.06258 v 12.883145 c -1.71737,2.128055 -3.02403,3.058673 -4.89075,3.058673 -2.38939,0 -3.39852,-1.454268 -3.39852,-4.851688 v -11.09013 z m 98.283786,0 5.04311,18.145001 h 3.58211 l 2.53912,-9.707283 c 0.48536,-1.717378 0.85891,-3.432475 1.26958,-5.261855 h 0.1484 c 0.44801,1.82938 0.7864,3.50932 1.23441,5.226698 l 2.61335,9.74244 h 3.73056 l 4.85558,-18.145001 h -2.91413 l -2.64849,10.492459 c -0.37335,1.717376 -0.71046,3.359149 -1.12113,5.039192 h -0.1484 c -0.41068,-1.680043 -0.82157,-3.321816 -1.26958,-5.039192 l -2.83599,-10.492459 h -2.98838 l -2.80085,10.492459 c -0.44801,1.680043 -0.81982,3.359149 -1.23049,5.039192 h -0.14841 c -0.336,-1.680043 -0.67527,-3.321816 -1.08596,-5.039192 l -2.68761,-10.492459 z m -9.70338,1.98052 c 2.83741,0 4.48058,1.978103 4.48058,5.636865 h -9.70727 c 0.37334,-3.584093 2.68796,-5.636865 5.22669,-5.636865 z m 45.42696,0 c 2.83741,0 4.48059,1.978103 4.48059,5.636865 h -9.70729 c 0.37335,-3.584093 2.68797,-5.636865 5.2267,-5.636865 z m 18.52392,0 c 2.83741,0 4.48057,1.978103 4.48057,5.636865 h -9.70727 c 0.37333,-3.584093 2.68797,-5.636865 5.2267,-5.636865 z m -93.09225,0.148442 c 3.43475,0 4.77746,2.688996 4.77746,6.683766 0,4.480115 -2.20479,7.207218 -5.19154,7.207218 -1.19469,0 -2.83614,-0.524932 -4.44152,-1.906299 v -9.519778 c 1.71738,-1.605375 3.32489,-2.464908 4.8556,-2.464907 z m 111.83491,0 c 1.49338,0 2.87566,0.52493 4.40637,1.906299 v 9.480714 c -1.49337,1.680041 -2.94899,2.503971 -4.62903,2.503971 -3.17341,0 -5.00403,-2.614714 -5.00403,-6.945494 0,-4.144107 2.31462,-6.94549 5.22669,-6.94549 z"
     id="path2" />
  <path
     id="path12"
     style="color:#000000;display:inline;fill:#ffffff;fill-rule:evenodd;stroke-width:0.87465;stroke-linecap:square;-inkscape-stroke:none"
     d="m 7.760791,7.3303954 c -4.047572,-0.00969 -7.343868,3.2865896 -7.334162,7.3341626 0.0096,4.047569 3.313649,7.351009 7.361206,7.360721 l 1.819774,0.0043 -0.0039,-5.07e-4 c 0.0013,4e-6 0.0016,-5e-6 0.0029,0 h 4.59e-4 c 1.653837,0.0037 3.097107,0.0072 3.800377,0.0087 0.0021,0.965086 0.0088,4.067439 0.01255,5.619667 0.0096,4.047563 3.313151,7.351509 7.36073,7.361198 4.047567,0.0096 7.343866,-3.286587 7.334158,-7.334158 -0.0097,-4.047572 -3.313636,-7.351022 -7.361207,-7.360723 -0.47442,-0.0012 -0.976827,-0.0022 -1.71739,-0.0039 -1.682255,-0.0038 -3.188773,-0.0072 -3.901796,-0.0087 -0.002,-0.965089 -0.0088,-4.067443 -0.01256,-5.619669 -0.0096,-4.047574 -3.313632,-7.3514985 -7.361204,-7.3612061 z m -0.0043,1.7313963 c 0.23855,5.089e-4 0.472999,0.017674 0.703666,0.046858 V 15.34312 H 2.202014 C 2.174544,15.119144 2.158624,14.891586 2.158064,14.660221 2.150564,11.548089 4.64435,9.0543417 7.756483,9.061804 Z m 2.435061,0.5558808 c 1.890046,0.9090305 3.193727,2.8384915 3.199097,5.0777945 0.0037,1.549588 0.0104,4.640052 0.01255,5.611458 -0.971452,-0.0022 -4.061404,-0.0088 -5.610975,-0.01256 C 5.544847,20.288965 3.609825,18.975588 2.704773,17.0745 h 7.486772 z m 4.946913,12.4245115 c 0.971745,0.0022 4.061987,0.0088 5.611458,0.01256 2.277178,0.0055 4.232653,1.354186 5.121741,3.296169 h -7.455873 v 7.410466 c -1.925201,-0.895831 -3.259346,-2.843257 -3.264779,-5.108219 -0.0037,-1.549573 -0.0104,-4.639523 -0.01256,-5.610974 z m 5.008247,5.039154 h 6.202594 c 0.02176,0.199593 0.0338,0.402213 0.03429,0.607557 0.0075,3.112132 -2.486289,5.605883 -5.598416,5.598419 -0.216038,-4.2e-4 -0.428829,-0.0146 -0.638466,-0.03865 z" />
</svg>
