<?xml version="1.0" encoding="UTF-8"?>
<!-- Created with Inkscape (http://www.inkscape.org/) -->
<svg width="16" height="16" version="1.1" viewBox="0 0 128 128" xmlns="http://www.w3.org/2000/svg">
 <path d="m33.9 0.011687c-18.709-0.044859-33.945 15.191-33.9 33.9 0.044846 18.709 15.317 33.978 34.026 34.024l8.4115 0.02009-0.01785-0.0022c0.0059 1.4e-5 0.0075-1.3e-5 0.0134 0h0.0022c7.6445 0.01738 14.316 0.03276 17.566 0.04017 0.0097 4.4609 0.04083 18.801 0.05804 25.976 0.0449 18.709 15.315 33.98 34.024 34.025 18.709 0.0449 33.945-15.191 33.9-33.9-0.0449-18.709-15.317-33.978-34.026-34.024-2.1929-0.0053-4.5152-0.01006-7.9382-0.01785-7.7758-0.0177-14.74-0.03293-18.035-0.04019-0.0097-4.4609-0.04084-18.801-0.05804-25.976-0.044867-18.709-15.317-33.98-34.026-34.026zm-0.02009 8.003c1.1026 0.00263 2.1864 0.081722 3.2525 0.21653v28.817h-28.927c-0.12703-1.0353-0.20058-2.0872-0.20315-3.1565-0.034485-14.385 11.492-25.912 25.878-25.878zm11.256 2.5694c8.7363 4.2018 14.762 13.12 14.788 23.471 0.01718 7.1626 0.04804 21.448 0.05804 25.937-4.4903-0.0099-18.773-0.04084-25.935-0.05804-10.388-0.024918-19.332-6.0958-23.515-14.882h34.605zm22.866 57.429c4.4916 0.0099 18.775 0.04084 25.937 0.05804 10.526 0.02525 19.564 6.2594 23.674 15.236h-34.463v34.253c-8.8987-4.1407-15.065-13.142-15.091-23.611-0.017178-7.1625-0.048038-21.445-0.058039-25.935zm23.15 23.292h28.67c0.10058 0.92256 0.15622 1.8591 0.1585 2.8083 0.0345 14.385-11.492 25.912-25.878 25.878-0.99857-2e-3 -1.9821-0.0674-2.9511-0.17858z" color="#000000" stroke-width=".99969"/>
</svg>
