<svg xmlns="http://www.w3.org/2000/svg" height="16px" width="16px">
<path d="m 12.285884,4.273627 c -0.733234,0 -1.446086,0.211893 -2.080921,0.573706 -0.6174595,0.35168 -1.155565,0.8288 -1.6348649,1.34992 A 11.664415,11.664414 0 0 0 8.0238058,6.838267 18.495401,18.495401 0 0 0 7.5338144,7.4876 C 7.4527884,7.599227 7.3722655,7.711173 7.2915743,7.823227 7.1306945,8.046747 6.9669739,8.270427 6.7796982,8.472933 A 14.324371,14.324371 0 0 1 6.246102,9.019707 C 5.791027,9.461947 5.305378,9.88232 4.768943,10.223387 4.344773,10.49304 3.848601,10.75 3.333549,10.75 1.95245,10.75 0.714356,9.654907 0.714356,7.988133 c 0,-1.666613 1.190482,-2.571413 2.619193,-2.571413 0.827791,0 1.559688,0.353173 2.269868,0.964267 L 5.223351,6.77192 6.152882,7.006853 7.0822464,7.24168 6.8209622,6.319333 6.559677,5.396987 6.143861,5.824827 C 5.41731,5.17496 4.514341,4.654747 3.381162,4.654747 1.52377,4.654747 0,5.98808 0,8.03576 c 0,1.952427 1.52377,3.3808 3.238324,3.3808 0.709344,0 1.396135,-0.211307 2.005074,-0.569867 0.545958,-0.321866 1.022584,-0.7464 1.4601192,-1.201866 C 6.8512001,9.49128 6.9947062,9.333787 7.1372095,9.1756 7.3218127,8.97032 7.4952229,8.76664 7.6499221,8.533573 L 7.8539046,8.226533 C 7.9790336,8.038267 8.09464,7.851653 8.2287909,7.66856 8.4758752,7.331067 8.7348202,7.001947 9.0134794,6.690053 c 0.4674389,-0.523413 0.9970236,-1.0104 1.6209996,-1.3408 0.495004,-0.262133 1.042798,-0.40896 1.603792,-0.40896 1.952618,0 3.047707,1.357174 3.047707,3.095254 0,1.619146 -1.047645,2.95248 -2.857256,2.95248 -1.034279,0 -1.94109,-0.28048 -2.8963493,-1.1064 L 9.9749194,9.343493 9.0293505,9.18632 8.0836138,9.029093 l 0.3366295,0.8976 0.3369635,0.8976 0.3760557,-0.457066 C 10.058951,11.20024 11.068171,11.75 12.381108,11.75 14.571455,11.75 16,10.083227 16,7.987973 16,5.797413 14.524009,4.273627 12.285883,4.273627" />
</svg>
