<?xml version="1.0" encoding="UTF-8" standalone="no"?>
<!-- Created with Inkscape (http://www.inkscape.org/) -->

<svg
   width="128"
   height="128"
   version="1.1"
   viewBox="0 0 128 128"
   id="svg1"
   xmlns="http://www.w3.org/2000/svg"
   xmlns:svg="http://www.w3.org/2000/svg">
  <defs
     id="defs1" />
  <path
     id="path12"
     style="color:#000000;fill:#35b9ab;fill-rule:evenodd;stroke-width:0.874648;stroke-linecap:square;-inkscape-stroke:none"
     d="M 37.664062,8.015625 C 21.29524,7.9763766 7.9646524,21.306953 8.0039066,37.675781 8.0431433,54.044607 21.404668,67.404083 37.773438,67.443359 l 7.359374,0.01758 -0.01562,-0.0019 c 0.0052,1.2e-5 0.0066,-1.2e-5 0.01172,0 h 0.0019 c 6.688301,0.01521 12.52504,0.02866 15.369142,0.03515 0.0085,3.902924 0.03572,16.44918 0.05078,22.726562 0.03928,16.368789 13.398747,29.730319 29.767601,29.769499 16.368825,0.0393 29.699425,-13.29132 29.660165,-29.660151 -0.0393,-16.368831 -13.40071,-29.728349 -29.769541,-29.767578 -1.918605,-0.0046 -3.950398,-0.0088 -6.945312,-0.01562 C 76.46042,60.531411 70.367892,60.518091 67.48435,60.511741 67.47585,56.608814 67.44862,44.062547 67.43357,37.785178 67.394347,21.416325 54.032889,8.0548862 37.664061,8.0156241 Z m -0.01758,7.001953 c 0.964718,0.0023 1.91286,0.0715 2.845703,0.189453 V 40.419922 H 15.183591 C 15.07245,39.51414 15.008102,38.593871 15.005854,37.658203 14.975682,25.072392 25.06067,14.9874 37.646484,15.017578 Z m 9.847658,2.248047 c 7.643552,3.676218 12.915785,11.479164 12.937501,20.535157 0.01503,6.266714 0.04203,18.76489 0.05078,22.693359 -3.928655,-0.0087 -16.424768,-0.03573 -22.691406,-0.05078 C 28.70238,60.421559 20.876931,55.110086 17.216801,47.421875 H 47.49414 Z M 67.5,67.511718 c 3.929849,0.0087 16.427126,0.03573 22.693359,0.05078 9.209161,0.02209 17.117321,5.476483 20.712891,13.330079 H 80.753906 V 110.86133 C 72.968181,107.23849 67.572747,99.362876 67.550781,90.203126 c -0.01503,-6.266647 -0.04203,-18.76275 -0.05078,-22.691407 z m 20.253906,20.378907 h 25.083984 c 0.088,0.807173 0.13668,1.626598 0.13867,2.457032 0.0302,12.585803 -10.05483,22.670803 -22.640622,22.640623 -0.873674,-0.002 -1.734232,-0.059 -2.582032,-0.15625 z" />
</svg>
