<?xml version="1.0" encoding="UTF-8"?>
<!-- Created with Inkscape (http://www.inkscape.org/) -->
<svg width="16" height="16" version="1.1" viewBox="0 0 128 128" xmlns="http://www.w3.org/2000/svg">
 <path d="m37.664 8.0156c-16.369-0.039248-29.699 13.291-29.66 29.66 0.039237 16.369 13.401 29.728 29.77 29.768l7.3594 0.01758-0.01562-0.0019c0.0052 1.2e-5 0.0066-1.2e-5 0.01172 0h0.0019c6.6883 0.01521 12.525 0.02866 15.369 0.03515 0.0085 3.9029 0.03572 16.449 0.05078 22.727 0.03928 16.369 13.399 29.73 29.768 29.769 16.369 0.0393 29.699-13.291 29.66-29.66-0.0393-16.369-13.401-29.728-29.77-29.768-1.9186-0.0046-3.9504-0.0088-6.9453-0.01562-6.8032-0.01549-12.896-0.02881-15.779-0.03516-0.0085-3.9029-0.03573-16.449-0.05078-22.727-0.039223-16.369-13.401-29.73-29.77-29.77zm-0.01758 7.002c0.96472 0.0023 1.9129 0.0715 2.8457 0.18945v25.213h-25.309c-0.11114-0.90578-0.17549-1.8261-0.17774-2.7617-0.030172-12.586 10.055-22.671 22.641-22.641zm9.8477 2.248c7.6436 3.6762 12.916 11.479 12.938 20.535 0.01503 6.2667 0.04203 18.765 0.05078 22.693-3.9287-0.0087-16.425-0.03573-22.691-0.05078-9.0886-0.021802-16.914-5.3333-20.574-13.021h30.277zm20.006 50.246c3.9298 0.0087 16.427 0.03573 22.693 0.05078 9.2092 0.02209 17.117 5.4765 20.713 13.33h-30.152v29.969c-7.7857-3.6228-13.181-11.498-13.203-20.658-0.01503-6.2666-0.04203-18.763-0.05078-22.691zm20.254 20.379h25.084c0.088 0.80717 0.13668 1.6266 0.13867 2.457 0.0302 12.586-10.055 22.671-22.641 22.641-0.87367-2e-3 -1.7342-0.059-2.582-0.15625z" color="#000000" stroke-width=".87465"/>
</svg>
