<?xml version="1.0" encoding="UTF-8"?>
<svg width="128" height="128" version="1.1" viewBox="0 0 128 128" xml:space="preserve" xmlns="http://www.w3.org/2000/svg" xmlns:cc="http://creativecommons.org/ns#" xmlns:dc="http://purl.org/dc/elements/1.1/" xmlns:rdf="http://www.w3.org/1999/02/22-rdf-syntax-ns#"><metadata><rdf:RDF><cc:Work rdf:about=""><dc:format>image/svg+xml</dc:format><dc:type rdf:resource="http://purl.org/dc/dcmitype/StillImage"/></cc:Work></rdf:RDF></metadata><path x="0.99225497" y="0.99225497" width="126.0155" height="126.0155" d="m10.992 0.99225h106.02a10 10 45 0 1 10 10v106.02a10 10 135 0 1-10 10h-106.02a10 10 45 0 1-10-10v-106.02a10 10 135 0 1 10-10z" fill="#fff" stroke="#000" stroke-width="1.9845"/><path d="m64 16c-26.474 0-48 21.526-48 48 0 0.62022 0.0156 1.2389 0.0468 1.8515 0.97501 25.619 22.099 46.148 47.953 46.148 26.474 0 48-21.526 48-48s-21.526-48-48-48zm0 6c23.231 0 42 18.769 42 42s-18.769 42-42 42c-9.6366 0-18.502-3.2341-25.582-8.6718 4.1954 1.717 8.7768 2.6719 13.582 2.6719 19.847 0 36-16.153 36-36 0-13.219-10.781-24-24-24s-24 10.781-24 24c0 9.9054 8.0946 18 18 18 1.6568 0 3-1.3432 3-3s-1.3432-3-3-3c-6.663 0-12-5.3371-12-12 0-9.9768 8.0232-18 18-18s18 8.0232 18 18c0 16.604-13.396 30-30 30-16.041 0-29.087-12.505-29.953-28.324-0.0216-0.55578-0.0468-1.1146-0.0468-1.6758 0-23.231 18.769-42 42-42z" stroke-width="6"/></svg>
