<?xml version="1.0" encoding="UTF-8"?>
<svg width="200" height="44" fill="#ffffff" preserveAspectRatio="xMidYMid" version="1.1" viewBox="0 0 200 44" xmlns="http://www.w3.org/2000/svg" xmlns:cc="http://creativecommons.org/ns#" xmlns:dc="http://purl.org/dc/elements/1.1/" xmlns:rdf="http://www.w3.org/1999/02/22-rdf-syntax-ns#">
 <metadata>
  <rdf:RDF>
   <cc:Work rdf:about="">
    <dc:format>image/svg+xml</dc:format>
    <dc:type rdf:resource="http://purl.org/dc/dcmitype/StillImage"/>
   </cc:Work>
  </rdf:RDF>
 </metadata>
 <path d="m75.678 6.7871v22.902c0 2.6483 0.93154 4.1035 3.2441 4.1035 0.8206 0 1.3436-0.11233 1.7539-0.29883l-0.41016-2.3125c-0.3357 0.0746-0.48538 0.074218-0.67188 0.074218-0.4476 0-0.85742-0.372-0.85742-1.3418v-23.127h-3.0586zm89.146 0v22.902c0 2.6483 0.93154 4.1035 3.2441 4.1035 0.8206 0 1.3436-0.11233 1.7539-0.29883l-0.41016-2.3125c-0.3357 0.0746-0.48538 0.074218-0.67188 0.074218-0.4476 0-0.85742-0.372-0.85742-1.3418v-23.127h-3.0586zm9.5117 0v22.902c0 2.6483 0.93154 4.1035 3.2441 4.1035 0.8206 0 1.3436-0.11233 1.7539-0.29883l-0.41015-2.3125c-0.3357 0.0746-0.48538 0.074218-0.67188 0.074218-0.4476 0-0.85742-0.372-0.85742-1.3418v-23.127h-3.0586zm-111.19 1.6426c-4.4387 0-7.6836 2.7602-7.6836 6.4902 0 3.5808 2.6483 5.3329 4.9609 6.3027l3.5059 1.5293c2.3126 1.0444 4.0645 1.829 4.0645 4.3281 0 2.3872-1.9016 3.9902-5.1094 3.9902-2.5364 0-4.9989-1.2309-6.752-3.0586l-1.8652 2.1641c2.1261 2.2007 5.1485 3.6172 8.5801 3.6172 5.1474 0 8.3184-3.0954 8.3184-6.9746 0-3.6181-2.2004-5.2964-5.0352-6.5273l-3.4707-1.4922c-1.9396-0.8206-4.0645-1.7165-4.0645-4.0664 0-2.2007 1.8279-3.5801 4.5508-3.5801 2.2753 0 4.0646 0.8951 5.5566 2.3125l1.6797-2.0137c-1.7531-1.7904-4.3269-3.0215-7.2363-3.0215zm29.094 6.3398c-4.4387 0-8.3926 3.4689-8.3926 9.5488 0 6.0053 3.9539 9.4746 8.3926 9.4746 4.4387 0 8.3926-3.4693 8.3926-9.4746 0-6.0799-3.9539-9.5488-8.3926-9.5488zm47.855 0c-2.0515 0-3.9156 1.4552-5.1465 3.7305h-0.11329l-0.25976-3.2812h-2.5371v18.127h3.0586v-11.639c1.2309-3.0586 3.0586-4.1758 4.5879-4.1758 0.746 0 1.1571 0.11038 1.7539 0.29688l0.5957-2.6855c-0.5968-0.2611-1.1562-0.37305-1.9394-0.37305zm11.562 0c-4.4387 0-8.3926 3.4689-8.3926 9.5488 0 6.0053 3.9539 9.4746 8.3926 9.4746s8.3926-3.4693 8.3926-9.4746c0-6.0799-3.9539-9.5488-8.3926-9.5488zm-48.564 0.44922 5.0352 18.127h3.582l2.5352-9.6973c0.4849-1.7158 0.85923-3.4321 1.2695-5.2598h0.14844c0.4476 1.8277 0.78287 3.5049 1.2305 5.2207l2.6113 9.7363h3.7305l4.8496-18.127h-2.9102l-2.6484 10.48c-0.373 1.7158-0.70884 3.3567-1.1191 5.0352h-0.14844c-0.4103-1.6785-0.82193-3.3194-1.2695-5.0352l-2.834-10.48h-2.9844l-2.7969 10.48c-0.4476 1.6785-0.82017 3.3567-1.2305 5.0352h-0.15039c-0.3357-1.6785-0.67173-3.3194-1.082-5.0352l-2.6856-10.48h-3.1328zm-10.854 2.0879c3.1332 0 5.2227 2.8341 5.2227 7.0117 0 4.1403-2.0895 6.9375-5.2227 6.9375-3.0959 0-5.2227-2.7972-5.2227-6.9375 0-4.1776 2.1268-7.0117 5.2227-7.0117zm59.418 0c3.1332 0 5.2227 2.8341 5.2227 7.0117 0 4.1403-2.0895 6.9375-5.2227 6.9375-3.0959 0-5.2207-2.7972-5.2207-6.9375 0-4.1776 2.1248-7.0117 5.2207-7.0117z" fill="#fff" style="font-variant-numeric:slashed-zero"/>
 <path d="m32 5c-8.8247 0-16 7.1753-16 16 0 0.20674 0.0052 0.41298 0.0156 0.61719 0.32503 8.5398 7.3662 15.383 15.984 15.383 8.8247 0 16-7.1753 16-16s-7.1753-16-16-16zm0 2c7.7438 0 14 6.2562 14 14s-6.2562 14-14 14c-3.2122 0-6.1674-1.078-8.5273-2.8906 1.3985 0.57234 2.9256 0.89062 4.5273 0.89062 6.6156 0 12-5.3844 12-12 0-4.4064-3.5936-8-8-8s-8 3.5936-8 8c0 3.3019 2.6981 6 6 6 0.55228 0 1-0.44772 1-1s-0.44772-1-1-1c-2.221 0-4-1.779-4-4 0-3.3255 2.6745-6 6-6s6 2.6745 6 6c0 5.5347-4.4653 10-10 10-5.3471 0-9.6957-4.1681-9.9844-9.4414-0.0072-0.18526-0.0156-0.37153-0.0156-0.55859 0-7.7438 6.2562-14 14-14z" color="#000000" fill="#fff" stroke-linecap="round" stroke-linejoin="round" stroke-miterlimit="0" stroke-width="2" style="-inkscape-stroke:none"/>
</svg>
