<svg xmlns="http://www.w3.org/2000/svg" height="16px" width="16px" preserveAspectRatio="xMidYMid meet" viewBox="0 0 16 16"><path d="m8 0c-4.4123 0-8 3.5877-8 8 0 0.10337 0.0026176 0.20649 0.0078125 0.30859 0.1625 4.2699 3.6831 7.6914 7.9922 7.6914 4.4123 0 8-3.5877 8-8 0-4.4123-3.5877-8-8-8zm0 1c3.8719 0 7 3.1281 7 7 0 3.8719-3.1281 7-7 7-1.6061 0-3.0837-0.53901-4.2637-1.4453 0.69923 0.28617 1.4628 0.44531 2.2637 0.44531 3.3078 0 6-2.6922 6-6 0-2.2032-1.7968-4-4-4-2.2032 0-4 1.7968-4 4 0 1.6509 1.3491 3 3 3 0.27614 0 0.5-0.22386 0.5-0.5s-0.22386-0.5-0.5-0.5c-1.1105 0-2-0.88951-2-2 0-1.6628 1.3372-3 3-3s3 1.3372 3 3c0 2.7673-2.2327 5-5 5-2.6735 0-4.8478-2.0841-4.9922-4.7207-0.003617-0.092628-0.0078125-0.18577-0.0078125-0.2793 0-3.8719 3.1281-7 7-7z"/></svg>
