<?xml version="1.0" encoding="UTF-8" standalone="no"?>
<svg
   xmlns:dc="http://purl.org/dc/elements/1.1/"
   xmlns:cc="http://creativecommons.org/ns#"
   xmlns:rdf="http://www.w3.org/1999/02/22-rdf-syntax-ns#"
   xmlns:svg="http://www.w3.org/2000/svg"
   xmlns="http://www.w3.org/2000/svg"
   xmlns:sodipodi="http://sodipodi.sourceforge.net/DTD/sodipodi-0.dtd"
   xmlns:inkscape="http://www.inkscape.org/namespaces/inkscape"
   width="128"
   height="128"
   preserveAspectRatio="xMidYMid meet"
   viewBox="0 0 128 128"
   version="1.1"
   id="svg4"
   sodipodi:docname="apple-touch-icon.svg"
   inkscape:version="1.0.1 (3bc2e813f5, 2020-09-07)"
   inkscape:export-filename="/home/lkocman/Workspace/opensuse/distribution-logos/Leap/apple-touch-icon.png"
   inkscape:export-xdpi="42.91"
   inkscape:export-ydpi="42.91">
  <metadata
     id="metadata10">
    <rdf:RDF>
      <cc:Work
         rdf:about="">
        <dc:format>image/svg+xml</dc:format>
        <dc:type
           rdf:resource="http://purl.org/dc/dcmitype/StillImage" />
        <dc:title />
      </cc:Work>
    </rdf:RDF>
  </metadata>
  <defs
     id="defs8">
    <inkscape:path-effect
       effect="fillet_chamfer"
       id="path-effect1141"
       is_visible="true"
       lpeversion="1"
       satellites_param="F,0,0,1,0,10,0,1 @ F,0,0,1,0,10,0,1 @ F,0,0,1,0,10,0,1 @ F,0,0,1,0,10,0,1"
       unit="px"
       method="auto"
       mode="F"
       radius="10"
       chamfer_steps="1"
       flexible="false"
       use_knot_distance="true"
       apply_no_radius="true"
       apply_with_radius="true"
       only_selected="false"
       hide_knots="false" />
    <marker
       style="overflow:visible"
       id="marker1121"
       refX="0.0"
       refY="0.0"
       orient="auto"
       inkscape:stockid="Arrow1Lstart"
       inkscape:isstock="true">
      <path
         transform="scale(0.8) translate(12.5,0)"
         style="fill-rule:evenodd;stroke:#000000;stroke-width:1.0pt"
         d="M 0.0,0.0 L 5.0,-5.0 L -12.5,0.0 L 5.0,5.0 L 0.0,0.0 z "
         id="path1119" />
    </marker>
    <marker
       style="overflow:visible"
       id="marker1105"
       refX="0.0"
       refY="0.0"
       orient="auto"
       inkscape:stockid="Arrow1Lstart"
       inkscape:isstock="true">
      <path
         transform="scale(0.8) translate(12.5,0)"
         style="fill-rule:evenodd;stroke:#000000;stroke-width:1.0pt"
         d="M 0.0,0.0 L 5.0,-5.0 L -12.5,0.0 L 5.0,5.0 L 0.0,0.0 z "
         id="path1103" />
    </marker>
    <marker
       style="overflow:visible"
       id="Arrow1Lstart"
       refX="0.0"
       refY="0.0"
       orient="auto"
       inkscape:stockid="Arrow1Lstart"
       inkscape:isstock="true">
      <path
         transform="scale(0.8) translate(12.5,0)"
         style="fill-rule:evenodd;stroke:#000000;stroke-width:1.0pt"
         d="M 0.0,0.0 L 5.0,-5.0 L -12.5,0.0 L 5.0,5.0 L 0.0,0.0 z "
         id="path833" />
    </marker>
  </defs>
  <sodipodi:namedview
     pagecolor="#ffffff"
     bordercolor="#666666"
     borderopacity="1"
     objecttolerance="10"
     gridtolerance="10"
     guidetolerance="10"
     inkscape:pageopacity="0"
     inkscape:pageshadow="2"
     inkscape:window-width="1920"
     inkscape:window-height="1011"
     id="namedview6"
     showgrid="false"
     inkscape:zoom="4"
     inkscape:cx="-1.360983"
     inkscape:cy="35.463101"
     inkscape:window-x="0"
     inkscape:window-y="32"
     inkscape:window-maximized="1"
     inkscape:current-layer="svg4"
     inkscape:document-rotation="0"
     inkscape:snap-text-baseline="false" />
  <path
     style="fill:#ffffff;fill-opacity:1;stroke:#fbc75d;stroke-width:1.98451;stroke-linejoin:miter;stroke-miterlimit:4;stroke-dasharray:none;stroke-opacity:1"
     id="rect831"
     width="126.0155"
     height="126.0155"
     x="0.99225497"
     y="0.99225497"
     inkscape:path-effect="#path-effect1141"
     d="M 10.992255,0.99225497 H 117.00776 a 10,10 45 0 1 10,10.00000003 V 117.00776 a 10,10 135 0 1 -10,10 H 10.992255 a 10,10 45 0 1 -10.00000003,-10 V 10.992255 A 10,10 135 0 1 10.992255,0.99225497 Z"
     sodipodi:type="rect"
     inkscape:export-xdpi="42.91"
     inkscape:export-ydpi="42.91" />
  <path
     d="m 63.541983,18.230661 a 2.8414144,2.9456427 0 0 0 -1.87418,0.848505 l -31.25298,32.398737 a 2.8414144,2.9456427 0 0 0 0,4.164841 l 31.25298,32.398297 a 2.8414144,2.9456427 0 0 0 4.01676,0 l 31.2521,-32.398297 a 2.8414144,2.9456427 0 0 0 0,-4.164841 l -31.2521,-32.398737 a 2.8414144,2.9456427 0 0 0 -2.14192,-0.848505 z m 0.132,7.098664 27.23534,28.233884 -27.23534,28.233704 -27.23424,-28.233704 z m -34.09252,45.903461 v 2.945546 a 2.8411117,2.9453284 0 0 0 0.83468,2.082375 l 31.25276,32.398343 a 2.8414144,2.9456427 0 0 0 4.01698,0 l 31.2521,-32.398343 a 2.8411117,2.9453284 0 0 0 0.83468,-2.082375 2.8411117,2.9453284 0 0 0 0,-0.133018 v -2.807771 h -2.84152 a 2.8411117,2.9453284 0 0 0 -2.00816,0.866237 l -29.2435,30.31607 -29.24328,-30.31607 a 2.8411117,2.9453284 0 0 0 -2.00794,-0.848471 v -0.0045 z"
     color="#000000"
     color-rendering="auto"
     dominant-baseline="auto"
     fill="#fbc75d"
     image-rendering="auto"
     shape-rendering="auto"
     solid-color="#000000"
     stop-color="#000000"
     style="font-variant-ligatures:normal;font-variant-position:normal;font-variant-caps:normal;font-variant-numeric:normal;font-variant-alternates:normal;font-variant-east-asian:normal;font-feature-settings:normal;font-variation-settings:normal;text-indent:0;text-decoration:none;text-decoration-line:none;text-decoration-style:solid;text-decoration-color:#000000;text-transform:none;text-orientation:mixed;white-space:normal;shape-padding:0;shape-margin:0;inline-size:0;isolation:auto;mix-blend-mode:normal;fill:#fbc75d;fill-opacity:1;stroke-width:0.3857"
     id="path64-3" />
</svg>
