<?xml version="1.0" encoding="UTF-8" standalone="no"?>
<svg
   xmlns:dc="http://purl.org/dc/elements/1.1/"
   xmlns:cc="http://creativecommons.org/ns#"
   xmlns:rdf="http://www.w3.org/1999/02/22-rdf-syntax-ns#"
   xmlns:svg="http://www.w3.org/2000/svg"
   xmlns="http://www.w3.org/2000/svg"
   xmlns:sodipodi="http://sodipodi.sourceforge.net/DTD/sodipodi-0.dtd"
   xmlns:inkscape="http://www.inkscape.org/namespaces/inkscape"
   style="fill:#ffffff"
   width="144"
   height="44"
   preserveAspectRatio="xMidYMid meet"
   viewBox="0 0 144 44"
   version="1.1"
   id="svg6"
   sodipodi:docname="light-inline.svg"
   inkscape:version="1.0.1 (3bc2e813f5, 2020-09-07)">
  <metadata
     id="metadata12">
    <rdf:RDF>
      <cc:Work
         rdf:about="">
        <dc:format>image/svg+xml</dc:format>
        <dc:type
           rdf:resource="http://purl.org/dc/dcmitype/StillImage" />
      </cc:Work>
    </rdf:RDF>
  </metadata>
  <defs
     id="defs10" />
  <sodipodi:namedview
     pagecolor="#ffffff"
     bordercolor="#666666"
     borderopacity="1"
     objecttolerance="10"
     gridtolerance="10"
     guidetolerance="10"
     inkscape:pageopacity="0"
     inkscape:pageshadow="2"
     inkscape:window-width="1353"
     inkscape:window-height="776"
     id="namedview8"
     showgrid="false"
     showguides="false"
     inkscape:guide-bbox="true"
     inkscape:zoom="12.030636"
     inkscape:cx="17.280722"
     inkscape:cy="33.728865"
     inkscape:window-x="380"
     inkscape:window-y="149"
     inkscape:window-maximized="0"
     inkscape:current-layer="svg6">
    <sodipodi:guide
       position="43.987401,14.217148"
       orientation="1,0"
       id="guide843" />
    <sodipodi:guide
       position="42.200816,37.417143"
       orientation="0,-1"
       id="guide845" />
    <sodipodi:guide
       position="37.999019,8.1286437"
       orientation="0,-1"
       id="guide847" />
  </sodipodi:namedview>
  <path
     d="M 56 8.8554688 L 56 33.345703 L 69.8125 33.345703 L 69.8125 30.695312 L 59.099609 30.695312 L 59.099609 8.8554688 L 56 8.8554688 z M 80.214844 14.753906 C 76.070844 14.753906 72.076172 18.3765 72.076172 24.3125 C 72.076172 30.2485 75.922057 33.794922 80.775391 33.794922 C 83.239391 33.794922 85.180047 32.935734 86.748047 31.927734 L 85.666016 29.912109 C 84.322016 30.770776 82.865771 31.330078 81.148438 31.330078 C 77.676438 31.330078 75.323609 28.866818 75.099609 25.021484 L 87.345703 25.021484 C 87.42037 24.573484 87.457031 23.902245 87.457031 23.267578 C 87.457031 18.078245 84.844177 14.753906 80.214844 14.753906 z M 98.224609 14.753906 C 95.312609 14.753906 92.77375 16.024755 91.09375 17.107422 L 92.289062 19.234375 C 93.707729 18.263708 95.612458 17.292969 97.703125 17.292969 C 100.68979 17.292969 101.43555 19.53299 101.43555 21.847656 C 93.707547 22.706323 90.310547 24.685245 90.310547 28.642578 C 90.310547 31.890578 92.587328 33.794922 95.611328 33.794922 C 97.888661 33.794922 99.905714 32.600307 101.62305 31.181641 L 101.73438 31.181641 L 101.99609 33.345703 L 104.53516 33.345703 L 104.53516 22.220703 C 104.53516 17.70337 102.66728 14.753906 98.224609 14.753906 z M 118.94141 14.753906 C 116.81341 14.753906 114.79696 15.911635 113.1543 17.292969 L 113.04297 17.292969 L 112.78125 15.203125 L 110.24219 15.203125 L 110.24219 41 L 113.30469 41 L 113.30469 34.876953 L 113.23047 31.703125 C 114.91047 33.009792 116.58953 33.794922 118.26953 33.794922 C 122.41353 33.794922 126.10938 30.173672 126.10938 24.013672 C 126.10938 18.376339 123.60807 14.753906 118.94141 14.753906 z M 80.289062 17.181641 C 83.126396 17.181641 84.769531 19.159693 84.769531 22.818359 L 75.0625 22.818359 C 75.435833 19.234359 77.750396 17.181641 80.289062 17.181641 z M 118.1582 17.330078 C 121.59287 17.330078 122.93555 20.019005 122.93555 24.013672 C 122.93555 28.493672 120.73276 31.21875 117.74609 31.21875 C 116.55143 31.21875 114.94735 30.695786 113.30469 29.314453 L 113.30469 19.794922 C 115.09669 18.189589 116.62754 17.330078 118.1582 17.330078 z M 101.43555 23.863281 L 101.43555 28.904297 C 99.68088 30.472297 98.262479 31.330078 96.507812 31.330078 C 94.715813 31.330078 93.296875 30.471302 93.296875 28.417969 C 93.296875 26.103302 95.387547 24.609948 101.43555 23.863281 z "
     id="path2"
     style="fill-opacity:1;fill-rule:nonzero;" />
  <path
     d="M 33.129675,6.6888665 A 0.90127632,0.93433676 0 0 0 32.535198,6.9580067 L 22.621977,17.234653 a 0.90127632,0.93433676 0 0 0 0,1.321058 l 9.913221,10.276508 a 0.90127632,0.93433676 0 0 0 1.274088,0 l 9.912942,-10.276508 a 0.90127632,0.93433676 0 0 0 0,-1.321058 L 33.809286,6.9580067 A 0.90127632,0.93433676 0 0 0 33.129884,6.6888665 Z m 0.04187,2.2516456 8.638855,8.9555849 -8.638858,8.955529 -8.638506,-8.955529 z M 22.357641,23.500761 v 0.934306 a 0.90118025,0.93423708 0 0 0 0.264755,0.660515 l 9.913151,10.276522 a 0.90127632,0.93433676 0 0 0 1.274158,0 l 9.912942,-10.276522 a 0.90118025,0.93423708 0 0 0 0.264754,-0.660515 0.90118025,0.93423708 0 0 0 0,-0.04219 v -0.890605 h -0.90131 a 0.90118025,0.93423708 0 0 0 -0.636974,0.274764 l -9.275828,9.61604 -9.275759,-9.61604 a 0.90118025,0.93423708 0 0 0 -0.636905,-0.269129 v -0.0014 z"
     color="#000000"
     color-rendering="auto"
     dominant-baseline="auto"
     fill="#ffffff"
     image-rendering="auto"
     shape-rendering="auto"
     solid-color="#000000"
     stop-color="#000000"
     style="font-variant-ligatures:normal;font-variant-position:normal;font-variant-caps:normal;font-variant-numeric:normal;font-variant-alternates:normal;font-variant-east-asian:normal;font-feature-settings:normal;font-variation-settings:normal;text-indent:0;text-decoration:none;text-decoration-line:none;text-decoration-style:solid;text-decoration-color:#000000;text-transform:none;text-orientation:mixed;white-space:normal;shape-padding:0;shape-margin:0;inline-size:0;isolation:auto;mix-blend-mode:normal;fill-opacity:1;stroke-width:0.122341;"
     id="path64-3"
     inkscape:export-filename="/home/lkocman/Pictures/leap-export.png"
     inkscape:export-xdpi="96"
     inkscape:export-ydpi="96" />
</svg>
