<svg xmlns="http://www.w3.org/2000/svg" style="fill:#ffffff" width="144" height="44" preserveAspectRatio="xMidYMid meet" viewBox="0 0 144 44">
<path d="M 56 8.8554688 L 56 33.345703 L 69.8125 33.345703 L 69.8125 30.695312 L 59.099609 30.695312 L 59.099609 8.8554688 L 56 8.8554688 z M 80.214844 14.753906 C 76.070844 14.753906 72.076172 18.3765 72.076172 24.3125 C 72.076172 30.2485 75.922057 33.794922 80.775391 33.794922 C 83.239391 33.794922 85.180047 32.935734 86.748047 31.927734 L 85.666016 29.912109 C 84.322016 30.770776 82.865771 31.330078 81.148438 31.330078 C 77.676438 31.330078 75.323609 28.866818 75.099609 25.021484 L 87.345703 25.021484 C 87.42037 24.573484 87.457031 23.902245 87.457031 23.267578 C 87.457031 18.078245 84.844177 14.753906 80.214844 14.753906 z M 98.224609 14.753906 C 95.312609 14.753906 92.77375 16.024755 91.09375 17.107422 L 92.289062 19.234375 C 93.707729 18.263708 95.612458 17.292969 97.703125 17.292969 C 100.68979 17.292969 101.43555 19.53299 101.43555 21.847656 C 93.707547 22.706323 90.310547 24.685245 90.310547 28.642578 C 90.310547 31.890578 92.587328 33.794922 95.611328 33.794922 C 97.888661 33.794922 99.905714 32.600307 101.62305 31.181641 L 101.73438 31.181641 L 101.99609 33.345703 L 104.53516 33.345703 L 104.53516 22.220703 C 104.53516 17.70337 102.66728 14.753906 98.224609 14.753906 z M 118.94141 14.753906 C 116.81341 14.753906 114.79696 15.911635 113.1543 17.292969 L 113.04297 17.292969 L 112.78125 15.203125 L 110.24219 15.203125 L 110.24219 41 L 113.30469 41 L 113.30469 34.876953 L 113.23047 31.703125 C 114.91047 33.009792 116.58953 33.794922 118.26953 33.794922 C 122.41353 33.794922 126.10938 30.173672 126.10938 24.013672 C 126.10938 18.376339 123.60807 14.753906 118.94141 14.753906 z M 80.289062 17.181641 C 83.126396 17.181641 84.769531 19.159693 84.769531 22.818359 L 75.0625 22.818359 C 75.435833 19.234359 77.750396 17.181641 80.289062 17.181641 z M 118.1582 17.330078 C 121.59287 17.330078 122.93555 20.019005 122.93555 24.013672 C 122.93555 28.493672 120.73276 31.21875 117.74609 31.21875 C 116.55143 31.21875 114.94735 30.695786 113.30469 29.314453 L 113.30469 19.794922 C 115.09669 18.189589 116.62754 17.330078 118.1582 17.330078 z M 101.43555 23.863281 L 101.43555 28.904297 C 99.68088 30.472297 98.262479 31.330078 96.507812 31.330078 C 94.715813 31.330078 93.296875 30.471302 93.296875 28.417969 C 93.296875 26.103302 95.387547 24.609948 101.43555 23.863281 z " />
<path d="M 25.927763,6.6593998 12.922204,16.793198 25.855306,26.710062 38.860866,16.576268 Z M 40.332536,19.23022 25.855306,30.498582 11.450534,19.471447 8,22.149699 26.072237,36 44,22.053385 Z" />
</svg>
