<?xml version="1.0" encoding="UTF-8" standalone="no"?>
<svg
   xmlns:dc="http://purl.org/dc/elements/1.1/"
   xmlns:cc="http://creativecommons.org/ns#"
   xmlns:rdf="http://www.w3.org/1999/02/22-rdf-syntax-ns#"
   xmlns:svg="http://www.w3.org/2000/svg"
   xmlns="http://www.w3.org/2000/svg"
   xmlns:sodipodi="http://sodipodi.sourceforge.net/DTD/sodipodi-0.dtd"
   xmlns:inkscape="http://www.inkscape.org/namespaces/inkscape"
   width="128"
   height="128"
   preserveAspectRatio="xMidYMid meet"
   viewBox="0 0 128 128"
   version="1.1"
   id="svg4"
   sodipodi:docname="square-hicolor.svg"
   inkscape:version="1.0.1 (3bc2e813f5, 2020-09-07)">
  <metadata
     id="metadata10">
    <rdf:RDF>
      <cc:Work
         rdf:about="">
        <dc:format>image/svg+xml</dc:format>
        <dc:type
           rdf:resource="http://purl.org/dc/dcmitype/StillImage" />
      </cc:Work>
    </rdf:RDF>
  </metadata>
  <defs
     id="defs8" />
  <sodipodi:namedview
     pagecolor="#ffffff"
     bordercolor="#666666"
     borderopacity="1"
     objecttolerance="10"
     gridtolerance="10"
     guidetolerance="10"
     inkscape:pageopacity="0"
     inkscape:pageshadow="2"
     inkscape:window-width="1920"
     inkscape:window-height="1011"
     id="namedview6"
     showgrid="false"
     inkscape:zoom="2.8284271"
     inkscape:cx="-15.099016"
     inkscape:cy="33.22384"
     inkscape:window-x="0"
     inkscape:window-y="32"
     inkscape:window-maximized="1"
     inkscape:current-layer="svg4" />
  <path
     d="m 63.541983,18.230661 a 2.8414144,2.9456427 0 0 0 -1.87418,0.848505 l -31.25298,32.398737 a 2.8414144,2.9456427 0 0 0 0,4.164841 l 31.25298,32.398297 a 2.8414144,2.9456427 0 0 0 4.01676,0 l 31.2521,-32.398297 a 2.8414144,2.9456427 0 0 0 0,-4.164841 l -31.2521,-32.398737 a 2.8414144,2.9456427 0 0 0 -2.14192,-0.848505 z m 0.132,7.098664 27.23534,28.233884 -27.23534,28.233704 -27.23424,-28.233704 z m -34.09252,45.903461 v 2.945546 a 2.8411117,2.9453284 0 0 0 0.83468,2.082375 l 31.25276,32.398343 a 2.8414144,2.9456427 0 0 0 4.01698,0 l 31.2521,-32.398343 a 2.8411117,2.9453284 0 0 0 0.83468,-2.082375 2.8411117,2.9453284 0 0 0 0,-0.133018 v -2.807771 h -2.84152 a 2.8411117,2.9453284 0 0 0 -2.00816,0.866237 l -29.2435,30.31607 -29.24328,-30.31607 a 2.8411117,2.9453284 0 0 0 -2.00794,-0.848471 v -0.0045 z"
     color="#000000"
     color-rendering="auto"
     dominant-baseline="auto"
     fill="#fbc75d"
     image-rendering="auto"
     shape-rendering="auto"
     solid-color="#000000"
     stop-color="#000000"
     style="font-variant-ligatures:normal;font-variant-position:normal;font-variant-caps:normal;font-variant-numeric:normal;font-variant-alternates:normal;font-variant-east-asian:normal;font-feature-settings:normal;font-variation-settings:normal;text-indent:0;text-decoration:none;text-decoration-line:none;text-decoration-style:solid;text-decoration-color:#000000;text-transform:none;text-orientation:mixed;white-space:normal;shape-padding:0;shape-margin:0;inline-size:0;isolation:auto;mix-blend-mode:normal;fill:#fbc75d;fill-opacity:1;stroke-width:0.3857"
     id="path64-3" />
</svg>
