<?xml version="1.0" encoding="UTF-8" standalone="no"?>
<svg
   xmlns:dc="http://purl.org/dc/elements/1.1/"
   xmlns:cc="http://creativecommons.org/ns#"
   xmlns:rdf="http://www.w3.org/1999/02/22-rdf-syntax-ns#"
   xmlns:svg="http://www.w3.org/2000/svg"
   xmlns="http://www.w3.org/2000/svg"
   xmlns:sodipodi="http://sodipodi.sourceforge.net/DTD/sodipodi-0.dtd"
   xmlns:inkscape="http://www.inkscape.org/namespaces/inkscape"
   height="16"
   width="16"
   preserveAspectRatio="xMidYMid meet"
   viewBox="0 0 16 16"
   version="1.1"
   id="svg4"
   sodipodi:docname="square-symbolic.svg"
   inkscape:version="1.0.1 (3bc2e813f5, 2020-09-07)">
  <metadata
     id="metadata10">
    <rdf:RDF>
      <cc:Work
         rdf:about="">
        <dc:format>image/svg+xml</dc:format>
        <dc:type
           rdf:resource="http://purl.org/dc/dcmitype/StillImage" />
      </cc:Work>
    </rdf:RDF>
  </metadata>
  <defs
     id="defs8" />
  <sodipodi:namedview
     pagecolor="#ffffff"
     bordercolor="#666666"
     borderopacity="1"
     objecttolerance="10"
     gridtolerance="10"
     guidetolerance="10"
     inkscape:pageopacity="0"
     inkscape:pageshadow="2"
     inkscape:window-width="1920"
     inkscape:window-height="1011"
     id="namedview6"
     showgrid="false"
     inkscape:zoom="26.59375"
     inkscape:cx="-7.7597292"
     inkscape:cy="8.6202289"
     inkscape:window-x="0"
     inkscape:window-y="32"
     inkscape:window-maximized="1"
     inkscape:current-layer="svg4" />
  <path
     d="M 7.9640961,1.4597326 A 0.40582938,0.42071594 0 0 0 7.6964133,1.580922 L 3.2326588,6.2083217 a 0.40582938,0.42071594 0 0 0 0,0.594849 l 4.4637545,4.6273373 a 0.40582938,0.42071594 0 0 0 0.5737007,0 l 4.463629,-4.6273373 a 0.40582938,0.42071594 0 0 0 0,-0.594849 L 8.270114,1.580922 A 0.40582938,0.42071594 0 0 0 7.9641905,1.4597326 Z M 7.9829487,2.4736101 11.872878,6.5061587 7.9829487,10.538681 4.0931767,6.5061587 Z M 3.1136324,9.0298432 v 0.420702 a 0.40578615,0.42067104 0 0 0 0.1192151,0.2974186 l 4.463723,4.6273432 a 0.40582938,0.42071594 0 0 0 0.5737314,0 L 12.733931,9.7479638 a 0.40578615,0.42067104 0 0 0 0.119222,-0.2974186 0.40578615,0.42067104 0 0 0 0,-0.019001 V 9.0305194 H 12.447306 A 0.40578615,0.42067104 0 0 0 12.160488,9.1542422 L 7.9837343,13.48418 3.8070181,9.1542415 A 0.40578615,0.42067104 0 0 0 3.5202313,9.0330566 v -6.203e-4 z"
     color="#000000"
     color-rendering="auto"
     dominant-baseline="auto"
     fill="#fbc75d"
     image-rendering="auto"
     shape-rendering="auto"
     solid-color="#000000"
     stop-color="#000000"
     style="font-variant-ligatures:normal;font-variant-position:normal;font-variant-caps:normal;font-variant-numeric:normal;font-variant-alternates:normal;font-variant-east-asian:normal;font-feature-settings:normal;font-variation-settings:normal;text-indent:0;text-decoration:none;text-decoration-line:none;text-decoration-style:solid;text-decoration-color:#000000;text-transform:none;text-orientation:mixed;white-space:normal;shape-padding:0;shape-margin:0;inline-size:0;isolation:auto;mix-blend-mode:normal;fill:#000000;fill-opacity:1;stroke-width:0.0550883"
     id="path64-3"
     inkscape:export-filename="/home/lkocman/Pictures/leap-export.png"
     inkscape:export-xdpi="96"
     inkscape:export-ydpi="96" />
</svg>
